/* XPM */
static char *_6767_8ef0af199ba0c1d3b775866b064299d65e917d7950cd6990dcf0729e130ebd88[] = {
/* columns rows colors chars-per-pixel */
"64 64 216 2 ",
"   c #920D3F",
".  c #9B103E",
"X  c #9D113E",
"o  c #9F113E",
"O  c #A3123D",
"+  c #A5133D",
"@  c #A9143C",
"#  c #AA153C",
"$  c #AC153C",
"%  c #B2173B",
"&  c #B0163C",
"*  c #BA1A3A",
"=  c #972A3F",
"-  c #982C3F",
";  c #9B343E",
":  c #9F3D3E",
">  c #A1373D",
",  c #CD1F37",
"<  c #CE1F37",
"1  c #C31C39",
"2  c #C51D39",
"3  c #CE1F38",
"4  c #CD2037",
"5  c #CE2037",
"6  c #CD2038",
"7  c #CE2038",
"8  c #D13F3C",
"9  c #A4483D",
"0  c #A4493E",
"q  c #B04639",
"w  c #B0533A",
"e  c #B3553B",
"r  c #B4563A",
"t  c #B75839",
"y  c #BB5C39",
"u  c #BE5F3A",
"i  c #C84936",
"p  c #C16037",
"a  c #C56336",
"s  c #C66537",
"d  c #C2653B",
"f  c #C76738",
"g  c #C3683E",
"h  c #C56A3E",
"j  c #C56B3F",
"k  c #890A40",
"l  c #890B40",
"z  c #890B41",
"x  c #8B0B40",
"c  c #8A0B41",
"v  c #971E42",
"b  c #B5355D",
"n  c #CA2840",
"m  c #C92A43",
"M  c #C33852",
"N  c #91525E",
"B  c #BE425D",
"V  c #8B667A",
"C  c #89677D",
"Z  c #B27D72",
"A  c #C26D45",
"S  c #C57046",
"D  c #CE7540",
"F  c #D37A41",
"G  c #D47D42",
"H  c #D17D47",
"J  c #D0784A",
"K  c #D27B4B",
"L  c #D17F49",
"P  c #E64D62",
"I  c #D68044",
"U  c #D68246",
"Y  c #D88345",
"T  c #DA8647",
"R  c #D6814B",
"E  c #D7834B",
"W  c #DC8C4B",
"Q  c #DE8D4A",
"!  c #DD8D4C",
"~  c #DE8F4C",
"^  c #DF914E",
"/  c #CF8C59",
"(  c #D58E55",
")  c #D98F52",
"_  c #D18C58",
"`  c #E0914D",
"'  c #E1924D",
"]  c #C9946F",
"[  c #D29464",
"{  c #C99672",
"}  c #D29F7A",
"|  c #D4A37E",
" . c #736797",
".. c #796790",
"X. c #6E6AA0",
"o. c #6868A5",
"O. c #6969A6",
"+. c #696AA6",
"@. c #6A6AA6",
"#. c #6A6BA7",
"$. c #6B6BA7",
"%. c #6C6CA7",
"&. c #6C6DA7",
"*. c #6C6EA8",
"=. c #6D6EA8",
"-. c #6D6FA9",
";. c #6F71AA",
":. c #7172AA",
">. c #7072AB",
",. c #7376AD",
"<. c #797AAF",
"1. c #797DB1",
"2. c #A77898",
"3. c #7B80B3",
"4. c #7E80B2",
"5. c #7D82B4",
"6. c #7E84B5",
"7. c #7F86B6",
"8. c #A98A8D",
"9. c #9F88AB",
"0. c #8183B4",
"q. c #8384B5",
"w. c #8087B7",
"e. c #8188B7",
"r. c #8289B8",
"t. c #868EBB",
"y. c #888DB9",
"u. c #8790BC",
"i. c #8890BC",
"p. c #8992BD",
"a. c #8F91BC",
"s. c #959CBE",
"d. c #9D9DBF",
"f. c #8F9AC2",
"g. c #9696C0",
"h. c #909BC2",
"j. c #9698C0",
"k. c #929DC3",
"l. c #959EC2",
"z. c #939EC4",
"x. c #94A0C5",
"c. c #95A0C5",
"v. c #95A1C5",
"b. c #95A0C6",
"n. c #95A1C6",
"m. c #96A2C6",
"M. c #97A2C6",
"N. c #97A3C7",
"B. c #98A4C7",
"V. c #9AA6C8",
"C. c #9DA8C9",
"Z. c #9FAACA",
"A. c #A0ABCB",
"S. c #A6B0CD",
"D. c #A6B1CE",
"F. c #A7B2CE",
"G. c #A8B2CE",
"H. c #A8B3CF",
"J. c #A9B3CF",
"K. c #AAB4CF",
"L. c #ABB5D0",
"P. c #ACB6D0",
"I. c #ADB7D1",
"U. c #AEB8D1",
"Y. c #AFBAD1",
"T. c #B1B5D2",
"R. c #B0BAD2",
"E. c #B1BBD3",
"W. c #B2BCD3",
"Q. c #B3BCD3",
"!. c #B2BBD5",
"~. c #B4BDD4",
"^. c #B5BFD5",
"/. c #B7C0D6",
"(. c #B9C1D6",
"). c #BAC2D6",
"_. c #B8C0D8",
"`. c #C2CADA",
"'. c #C3CADA",
"]. c #C2CBDA",
"[. c #C2CBDB",
"{. c #C3CBDB",
"}. c #C2CCDB",
"|. c #C8CEDE",
" X c #CAD0DF",
".X c #CAD1DF",
"XX c #CCD1E0",
"oX c #CDD4E1",
"OX c #CFD5E2",
"+X c #D1D7E3",
"@X c #D8DBE7",
"#X c #DADEE8",
"$X c #DADFE8",
"%X c #DBDEE9",
"&X c #DBE0E9",
"*X c #DDE2EA",
"=X c #E3E6ED",
"-X c #E4E8EE",
";X c #E6E9EF",
":X c #E6EAEF",
">X c #E7EAF0",
",X c #E8EBF0",
"<X c #E9EBF1",
"1X c #E8ECF1",
"2X c #EAECF1",
"3X c #EAEDF1",
"4X c #EBEDF2",
"5X c #ECEEF2",
"6X c #F1F3F6",
"7X c #F3F4F6",
"8X c #F4F5F7",
"9X c #F6F7F8",
"0X c #F7F7F9",
"qX c #FBFBFB",
"wX c gray99",
"eX c None",
/* pixels */
"eXeXeXeXeXeXeXeXeXeXeXeXeXeXeXeXeXeXeXeXeXeXeXeXeXeXeXeXeXeXeXeXeXeXeXeXeXeXeXeXeXeXeXeXeXeXeXeXeXeXeXeXeXeXeXeXeXeXeXeXeXeXeXeX",
"eXeXeXeXeXeXeXeXeXeXeXeXeXeXeXeXeXeXeXeXeXeXeXeXeXeXeXeXeXeXeXeXeXeXeXeXeXeXeXeXeXeXeXeXeXeXeXeXeXeXeXeXeXeXeXeXeXeXeXeXeXeXeXeX",
"eXeXeXeXeXeXeXeXeXeXeXeXeXeXeXeXeXeXeXeXeXeXeXeXeXeXeXeXeXeXeXeXeXeXeXeXeXeXeXeXeXeXeXeXeXeXeXeXeXeXeXeXeXeXeXeXeXeXeXeXeXeXeXeX",
"eXeXeXeXeXeXeXeXeXeXeXeXeXeXeXeXeXeXeXeXeXeXeXeXeXeXeXeXeXeXeXeXeXeXeXeXeXeXeXeXeXeXeXeXeXeXeXeXeXeXeXeXeXeXeXeXeXeXeXeXeXeXeXeX",
"eXeXeXeXeXeXeXeXeXeXeXeXeXeXeXeXeXeXeXeXeXeXeXeXeXeXeXeXeXeXeXeXeXeXeXeXeXeXeXeXeXeXeXeXeXeXeXeXeXeXeXeXeXeXeXeXeXeXeXeXeXeXeXeX",
"eXeXeXeXeXeXeXeXeXeXeXeXeXeXeXeXeXeXeXeXeXeXeXeXeXeXeXeXeXeXeXeXeXeXeXeXeXeXeXeXeXeXeXeXeXeXeXeXeXeXeXeXeXeXeXeXeXeXeXeXeXeXeXeX",
"eXeXeXeXeXeXeXeXeXeXeXeXeXeXeXeXeXeXeXeXeXeXeXeXeXeXeXeXeXeXeXeXeXeXeXeXeXeXeXeXeXeXeXeXeXeXeXeXeXeXeXeXeXeXeXeXeXeXeXeXeXeXeXeX",
"eXeXeXeXeXeXeXeXeXeXeXeXeXeXeXeXeXeXeXeXeXeXeXeXeXeXeXeXeXeXeXeXeXeXeXeXeXeXeXeXeXeXeXeXeXeXeXeXeXeXeXeXeXeXeXeXeXeXeXeXeXeXeXeX",
"eXeXeXeXeXeXeXeXeXeXeXeXeXeXeXeXeXeXeXeXeXeXeXeXeXeXeXeXeXeXeXeXeXeXeXeXeXeXeXeXeXeXeXeXeXeXeXeXeXeXeXeXeXeXeXeXeXeXeXeXeXeXeXeX",
"eXeXeXeXeXeXeXeXeXeXeXeXeXeXeXeXeXeXeXeXeXeXeXeXeXeXeXeXeXeXeXeXeXeXeXeXeXeXeXeXeXeXeXeXeXeXeXeXeXeXeXeXeXeXeXeXeXeXeXeXeXeXeXeX",
"eXeXeXeXeXeXeXeXeXeXeXeXeXeXeXeXeXeXeXeXeXeXeXeXeXeXeXeXeXeXeXeXeXeXeXeXeXeXeXeXeXeXeXeXeXeXeXeXeXeXeXeXeXeXeXeXeXeXeXeXeXeXeXeX",
"eXeXeXeXeXeXeXeXeXeXeXeXeXeXeXeXeXeXeXeXeXeXeXeXeXeXeXeXeXeXeXeXeXeXeXeXeXeXeXeXeXeXeXeXeXeXeXeXeXeXeXeXeXeXeXeXeXeXeXeXeXeXeXeX",
"eXeXeXeXeXeXeXeXeXeXeXeXeXeXeXeXeXeXeXeXeXeXeXeXeXeXeXeXeXeXeXeXeXeXeXeXeXeXeXeXeXeXeXeXeXeXeXeXeXeXeXeXeXeXeXeXeXeXeXeXeXeXeXeX",
"eXeXeXeXeXeXeXeXeXeXeXeXeXeXeXeXeXeXeXeXeXeXeXeXeXeXeXeXeXeXeXeXeXeXeXeXeXeXeXeXeXeXeXeXeXeXeXeXeXeXeXeXeXeXeXeXeXeXeXeXeXeXeXeX",
"eXeXeXeXeXeXeXeXeXeXeXeXeXeXeXeXeXeXeXeXeXeXeXeXeXeXeXeXeXeXeXeXeXeXeXeXeXeXeXeXeXeXeXeXeXeXeXeXeXeXeXeXeXeXeXeXeXeXeXeXeXeXeXeX",
"eXeXeXeXeXeXeXeXeXeXeXeXeXeXeXeXeXeXeXeXeXeXeXeXeXeXeXeXeXeXeXeXeXeXeXeXeXeXeXeXeXeXeXeXeXeXeXeXeXeXeXeXeXeXeXeXeXeXeXeXeXeXeXeX",
"eXeXeXeXeXeXeXeXeXeXeXeXeXeXeXeXeXeXeXeXeXeXeXeXeXeXeXeXeXeXeXeXeXeXeXeXeXeXeXeXeXeXeXeXeXeXeXeXeXeXeXeXeXeXeXeXeXeXeXeXeXeXeXeX",
"eXeXeXeXeXeXeXeXeXeXeXeXeXeXeXeXeXeXeXeXeXeXeXeXeXeXeXeXeXeXeXeXeXeXeXeXeXeXeXeXeXeXeXeXeXeXeXeXeXeXeXeXeXeXeXeXeXeXeXeXeXeXeXeX",
"eXeXeXeXeXeXeXeXeXeXeXeXeXeXeXeXeXeXeXeXeXeXeXeXeXeXeXeXeXeXeXeXeXeXeXeXeXeXeXeXeXeXeXeXeXeXeXeXeXeXeXeXeXeXeXeXeXeXeXeXeXeXeXeX",
"eXeXeXeXeXeXeXeXeXeXeXeXeXeXeXeXeXeXeXeXeXeXeXeXeXeXeXeXeXeXeXeXeXeXeXeXeXeXeXeXeXeXeXeXeXeXeXeXeXeXeXeXeXeXeXeXeXeXeXeXeXeXeXeX",
"eXeXeXeXeXeXeXeXeXeXeXeXeXeXeXeXeXeXeXeXeXeXeXeXeXeXeXeXeXeXeXeXeXeXeXeXeXeXeXeXeXeXeXeXeXeXeXeXeXeXeXeXeXeXeXeXeXeXeXeXeXeXeXeX",
"eXeXeXeXeXeXeXeXeXeXeXeXeXeXeXeXeXeXeXeXeXeXeXeXeXeXeXeXeXeXeXeXeXeXeXeXeXeXeXeXeXeXeXeXeXeXeXeXeXeXeXeXeXeXeXeXeXeXeXeXeXeXeXeX",
"eXeXeXeXeXeXeXeXeXeXeXeXeXeXeXeXeXeXeXeXeXeXeXeXeXeXeXeXeXeXeXeXeXeXeXeXeXeXeXeXeXeXeXeXeXeXeXeXeXeXeXeXeXeXeXeXeXeXeXeXeXeXeXeX",
"eXeXeXeXeXeXeXeXeXeXeXeXeXeXeXeXeXeXeXeXeXeXeXeXeXeXeXeXeXeXeXeXeXeXeXeXeXeXeXeXeXeXeXeXeXeXeXeXeXeXeXeXeXeXeXeXeXeXeXeXeXeXeXeX",
"eXeXeXeXeXeXeXeXeXeXeXeXeXeXeXeXeXeXeXeXeXeXeXeXeXeXeXeXeXeXeXeXeXeXeXeXeXeXeXeXeXeXeXeXeXeXeXeXeXeXeXeXeXeXeXeXeXeXeXeXeXeXeXeX",
"eXeXeXeXeXeXeXeXeXeXeXeXeXeXeXeXeXeXeXeXwX%Xo.o.|.eXeXeXeXeXeXeXeXeXeXeXeXeXeXXXo.o.@XwXeXeXeXeXeXeXeXeXeXeXeXeXeXeXeXeXeXeXeXeX",
"eXeXeXeXeXeXeXeXeXeXeXeXeXeXeXeXeXeXeX`.*Xo.o.o.<.eXeXeXeXeXeXP & eXeXeXeXeXeX4.o.o.o.$X{.eXeXeXeXeXeXeXeXeXeXeXeXeXeXeXeXeXeXeX",
"eXeXeXeXeXeXeXeXeXeXeXeXeXeXeXeXeXeXqXwXj.o.o.o.%.'.eXeXeXeX# R E k eXeXeXeX].=.o.o.o.a.wXwXeXeXeXeXeXeXeXeXeXeXeXeXeXeXeXeXeXeX",
"eXeXeXeXeXeXeXeXeXeXeXeXeXeXeXeXeXeXwXwX>.o.o.o.o.@.[.eXeXeXb ' ' k eXeXeX}.&.o.o.o.o.o.wXwXeXeXeXeXeXeXeXeXeXeXeXeXeXeXeXeXeXeX",
"eXeXeXeXeXeXeXeXeXeXeXeXeXeXeXeXeXwXwXT.o.o.o.o.o.o.o.eXeXeXO J K v eXeXeX$.o.o.o.e.o.o.g.wXwXeXeXeXeXeXeXeXeXeXeXeXeXeXeXeXeXeX",
"eXeXeXeXeXeXeXeXeXeXeXeXeXeXeXeXwXwXwX0.*.3.,.>.o.o.o.o./ 8 O = ; T T ( o.o.O.o.;.t.6.i.y.wXwXwXeXeXeXeXeXeXeXeXeXeXeXeXeXeXeXeX",
"eXeXeXeXeXeXeXeXeXeXeXeXeXeXeXwXwXwXwXr.k.7.n.#.o.#.o._ j 7 O s e y o.g ) o.;.o.+.5.n.n.n.wXwXwXwXeXeXeXeXeXeXeXeXeXeXeXeXeXeXeX",
"eXeXeXeXeXeXeXeXeXeXeXeXeXeXwXwXwXwX_.w.o.1.n.n.u.-.o.^ ..7 O ' D U o. .` X.x.h.z.D.n.n.n.!.wXwXwXwXeXeXeXeXeXeXeXeXeXeXeXeXeXeX",
"eXeXeXeXeXeXeXeXeXeXeXeXeXeXwXwXwXwXq.f.n.n.n.F.~.W.{ 8.>.7 O 0 0 N o.o.C ] R.~.H.n.n.n.n.A.wXwXwXwXeXeXeXeXeXeXeXeXeXeXeXeXeXeX",
"eXeXeXeXeXeXeXeXeXeXeXeXeX>XwXwXwXwX:.n.n.n.n.n.K.~ G s.m 7 O r a V e.e.l.H W G.n.n.n.n.n.B.wXwXwXwX<XeXeXeXeXeXeXeXeXeXeXeXeXeX",
"eXeXeXeXeXeXeXeXeXeXeXeX1XwXwXwXwXwXp.n.S.n.n.n.C.| i 7 7 7 > a d [ b.c.S.Z } A.n.n.n.S.n.n.wXwXwXwXwX:XeXeXeXeXeXeXeXeXeXeXeXeX",
"eXeXeXeXeXeXeXeXeXeXeXeXwXwXwXwXwXwXn.E.J.n.L.n.m.7 M 7 7 2 q f S ' eXeXeXn.n.M.n.I.n.S.~.n.wXwXwXwXwXwXeXeXeXeXeXeXeXeXeXeXeXeX",
"eXeXeXeXeXeXeXeXeXeXeXeXwXwXwXwXwXoXn.{.J.n.E.n.9.n 7 7 7 o a A ' Y eXeXeXn.n.A.n.U.n.S.{.n..XwXwXwXwXwXeXeXeXeXeXeXeXeXeXeXeXeX",
"eXeXeXeXeXeXeXeXeXeXeXwX5X9XwXwXwXoXn.{.N.J.E.n.B d.7 7 x o a ! I u eXeXeXeXV.Q.n.U.P.M.{.n..XwXwXwX9X<XwXeXeXeXeXeXeXeXeXeXeXeX",
"eXeXeXeXeXeXeXeXeXeXqXwXOXwX0X2XwXoXn.{.n.^.eXeXA.7 7 + c c 0 ' G p eXeXeXeXb.Z.Y.eX/.n.{.n..XwX4X8XwX+XwXwXeXeXeXeXeXeXeXeXeXeX",
"eXeXeXeXeXeXeXeXeXeXwX`.,XwX&XwXwX-Xn.{.eXeXeXeX2.7 7   c c : L h eXeXeXeXeXeXeXeXeXeXeX{.n.=XwXwX#XwX2X[.wXeXeXeXeXeXeXeXeXeXeX",
"eXeXeXeXeXeXeXeXeXeX7XeXwXwX[.wXwXwXv.).eXeXeXeXeX7 7   c c - r w eXeXeXeXeXeXeXeXeXeXeX(.v.wXwXwX{.wXwXeX6XeXeXeXeXeXeXeXeXeXeX",
"eXeXeXeXeXeXeXeXeXqXeXeXwXwXeXwXwXwXeXeXeXeXeXeXeXeX7 X c c eXt 0 0 9 eXeXeXeXeXeXeXeXeXeXeXwXwXwXeXwXwXeXeXwXeXeXeXeXeXeXeXeXeX",
"eXeXeXeXeXeXeXeXeXqXeXeXwX'.eXwXwXoXeXeXeXeXeXeXeXeX7 7 c c eXa eXeX9 eXeXeXeXeXeXeXeXeXeXeX.XwXwXeX{.wXeXeXwXeXeXeXeXeXeXeXeXeX",
"eXeXeXeXeXeXeXeXeXeXeXeXwXeXeXwXwXoXeXeXeXeXeXeXeXeXeX3 1 . eXQ eXeX9 eXeXeXeXeXeXeXeXeXeXeX.XwXwXeXeXwXeXeXeXeXeXeXeXeXeXeXeXeX",
"eXeXeXeXeXeXeXeXeXeXeXeX2XeXeXwXwX3XeXeXeXeXeXeXeXeXeXeX5 7 7 F 7 7 eX, eXeXeXeXeXeXeXeXeXeX<XwXwXeXeX;XeXeXeXeXeXeXeXeXeXeXeXeX",
"eXeXeXeXeXeXeXeXeXeXeXeXeXeXeXeXwXwXeXeXeXeXeXeXeXeXeXeXeX% o $ * 7 7 eXeXeXeXeXeXeXeXeXeXeXwXwX XeXeXeXeXeXeXeXeXeXeXeXeXeXeXeX",
"eXeXeXeXeXeXeXeXeXeXeXeXeXeXeXeX4XwXeXeXeXeXeXeXeXeXeXeXeXeX6 @ l 4 7 eXeXeXeXeXeXeXeXeXeXeXwX2XeXeXeXeXeXeXeXeXeXeXeXeXeXeXeXeX",
"eXeXeXeXeXeXeXeXeXeXeXeXeXeXeXeXeXwXeXeXeXeXeXeXeXeXeXeXeXeXeXeXeXeX7 eXeXeXeXeXeXeXeXeXeXeXwXeXeXeXeXeXeXeXeXeXeXeXeXeXeXeXeXeX",
"eXeXeXeXeXeXeXeXeXeXeXeXeXeXeXeXeXeXeXeXeXeXeXeXeXeXeXeXeXeXeXeXeXz 7 eXeXeXeXeXeXeXeXeXeXeXeXeXeXeXeXeXeXeXeXeXeXeXeXeXeXeXeXeX",
"eXeXeXeXeXeXeXeXeXeXeXeXeXeXeXeXeXeXeXeXeXeXeXeXeXeXeXeXeXeXeXeXeXeX< eXeXeXeXeXeXeXeXeXeXeXeXeXeXeXeXeXeXeXeXeXeXeXeXeXeXeXeXeX",
"eXeXeXeXeXeXeXeXeXeXeXeXeXeXeXeXeXeXeXeXeXeXeXeXeXeXeXeXeXeX, 6 6 7 eXeXeXeXeXeXeXeXeXeXeXeXeXeXeXeXeXeXeXeXeXeXeXeXeXeXeXeXeXeX",
"eXeXeXeXeXeXeXeXeXeXeXeXeXeXeXeXeXeXeXeXeXeXeXeXeXeXeXeXeXeXeXeXeXeXeXeXeXeXeXeXeXeXeXeXeXeXeXeXeXeXeXeXeXeXeXeXeXeXeXeXeXeXeXeX",
"eXeXeXeXeXeXeXeXeXeXeXeXeXeXeXeXeXeXeXeXeXeXeXeXeXeXeXeXeXeXeXeXeXeXeXeXeXeXeXeXeXeXeXeXeXeXeXeXeXeXeXeXeXeXeXeXeXeXeXeXeXeXeXeX",
"eXeXeXeXeXeXeXeXeXeXeXeXeXeXeXeXeXeXeXeXeXeXeXeXeXeXeXeXeXeXeXeXeXeXeXeXeXeXeXeXeXeXeXeXeXeXeXeXeXeXeXeXeXeXeXeXeXeXeXeXeXeXeXeX",
"eXeXeXeXeXeXeXeXeXeXeXeXeXeXeXeXeXeXeXeXeXeXeXeXeXeXeXeXeXeXeXeXeXeXeXeXeXeXeXeXeXeXeXeXeXeXeXeXeXeXeXeXeXeXeXeXeXeXeXeXeXeXeXeX",
"eXeXeXeXeXeXeXeXeXeXeXeXeXeXeXeXeXeXeXeXeXeXeXeXeXeXeXeXeXeXeXeXeXeXeXeXeXeXeXeXeXeXeXeXeXeXeXeXeXeXeXeXeXeXeXeXeXeXeXeXeXeXeXeX",
"eXeXeXeXeXeXeXeXeXeXeXeXeXeXeXeXeXeXeXeXeXeXeXeXeXeXeXeXeXeXeXeXeXeXeXeXeXeXeXeXeXeXeXeXeXeXeXeXeXeXeXeXeXeXeXeXeXeXeXeXeXeXeXeX",
"eXeXeXeXeXeXeXeXeXeXeXeXeXeXeXeXeXeXeXeXeXeXeXeXeXeXeXeXeXeXeXeXeXeXeXeXeXeXeXeXeXeXeXeXeXeXeXeXeXeXeXeXeXeXeXeXeXeXeXeXeXeXeXeX",
"eXeXeXeXeXeXeXeXeXeXeXeXeXeXeXeXeXeXeXeXeXeXeXeXeXeXeXeXeXeXeXeXeXeXeXeXeXeXeXeXeXeXeXeXeXeXeXeXeXeXeXeXeXeXeXeXeXeXeXeXeXeXeXeX",
"eXeXeXeXeXeXeXeXeXeXeXeXeXeXeXeXeXeXeXeXeXeXeXeXeXeXeXeXeXeXeXeXeXeXeXeXeXeXeXeXeXeXeXeXeXeXeXeXeXeXeXeXeXeXeXeXeXeXeXeXeXeXeXeX",
"eXeXeXeXeXeXeXeXeXeXeXeXeXeXeXeXeXeXeXeXeXeXeXeXeXeXeXeXeXeXeXeXeXeXeXeXeXeXeXeXeXeXeXeXeXeXeXeXeXeXeXeXeXeXeXeXeXeXeXeXeXeXeXeX",
"eXeXeXeXeXeXeXeXeXeXeXeXeXeXeXeXeXeXeXeXeXeXeXeXeXeXeXeXeXeXeXeXeXeXeXeXeXeXeXeXeXeXeXeXeXeXeXeXeXeXeXeXeXeXeXeXeXeXeXeXeXeXeXeX",
"eXeXeXeXeXeXeXeXeXeXeXeXeXeXeXeXeXeXeXeXeXeXeXeXeXeXeXeXeXeXeXeXeXeXeXeXeXeXeXeXeXeXeXeXeXeXeXeXeXeXeXeXeXeXeXeXeXeXeXeXeXeXeXeX"
};
