/* XPM */
static char *_6793_0097fe9e54623e879d0e0411cb3d304664e826b5584f09a87b3e33c40311495f[] = {
/* columns rows colors chars-per-pixel */
"64 64 174 2 ",
"   c #9F113D",
".  c #A3123D",
"X  c #AC153C",
"o  c #B8193A",
"O  c #BF1B39",
"+  c #AC283C",
"@  c #A2383D",
"#  c #B3393B",
"$  c #B63B3B",
"%  c #CC1F37",
"&  c #CD1F37",
"*  c #CE1F37",
"=  c #C11C39",
"-  c #CD2037",
";  c #CE2037",
":  c #CD2038",
">  c #CE2038",
",  c #D0233B",
"<  c #D03E3B",
"1  c #A3493D",
"2  c #A4483D",
"3  c #A74B3D",
"4  c #A4493E",
"5  c #AF513B",
"6  c #AD503C",
"7  c #B65739",
"8  c #B4563A",
"9  c #B6583B",
"0  c #BA5A38",
"q  c #BF633C",
"w  c #C84936",
"e  c #C26036",
"r  c #C36136",
"t  c #C56336",
"y  c #C46438",
"u  c #C2683F",
"i  c #CC6F3B",
"p  c #CF743E",
"a  c #890A40",
"s  c #890B40",
"d  c #8A0A40",
"f  c #8A0B40",
"g  c #8A0B41",
"h  c #8C295C",
"j  c #AB214B",
"k  c #BA2D4C",
"l  c #BE324F",
"z  c #B12C55",
"x  c #B63051",
"c  c #B83F5D",
"v  c #D8334A",
"b  c #994E50",
"n  c #AA4044",
"m  c #AE4744",
"M  c #B84E48",
"N  c #B85245",
"B  c #BA5247",
"V  c #A96456",
"C  c #A76458",
"Z  c #B9725A",
"A  c #89566B",
"S  c #CE7B48",
"D  c #D17740",
"F  c #D37A41",
"G  c #D37B42",
"H  c #D47D42",
"J  c #BE8464",
"K  c #D68044",
"L  c #D78145",
"P  c #D78245",
"I  c #D78346",
"U  c #D48248",
"Y  c #D5844A",
"T  c #DE8E4B",
"R  c #DD995F",
"E  c #E0904C",
"W  c #E0914C",
"Q  c #E1924D",
"!  c #74618E",
"~  c #6F6A9F",
"^  c #6868A5",
"/  c #6A6BA7",
"(  c #6D6FA9",
")  c #7A74A1",
"_  c #7072AB",
"`  c #7272AB",
"'  c #7373AB",
"]  c #7275AC",
"[  c #7376AD",
"{  c #7578AE",
"}  c #787DB1",
"|  c #8B738A",
" . c #8D7589",
".. c #FD778A",
"X. c #7B80B3",
"o. c #7D82B4",
"O. c #8086B6",
"+. c #8188B7",
"@. c #868FBB",
"#. c #8891BC",
"$. c #8992BD",
"%. c #8A93BE",
"&. c #A69DA9",
"*. c #8D97C0",
"=. c #8F99C1",
"-. c #909AC2",
";. c #929DC3",
":. c #929DC4",
">. c #939EC4",
",. c #939FC5",
"<. c #95A0C5",
"1. c #95A1C5",
"2. c #94A0C6",
"3. c #95A1C6",
"4. c #97A3C7",
"5. c #9AA3C6",
"6. c #98A4C7",
"7. c #9AA6C8",
"8. c #9DA8C9",
"9. c #9DA9CA",
"0. c #A3ADCC",
"q. c #A3AECC",
"w. c #A4AFCD",
"e. c #A5AFCD",
"r. c #A6B0CD",
"t. c #A7B1CE",
"y. c #A9B3CE",
"u. c #A9B3CF",
"i. c #AAB4CF",
"p. c #ACB6D0",
"a. c #AEB7D2",
"s. c #AEB8D1",
"d. c #B1BBD3",
"f. c #B3BCD5",
"g. c #B7C0D5",
"h. c #BAC3D7",
"j. c #BCC5D8",
"k. c #BDC6D8",
"l. c #C0C8D9",
"z. c #C1C9DA",
"x. c #C1CADA",
"c. c #C2CADA",
"v. c #C3CADA",
"b. c #C3CADB",
"n. c #C2CBDB",
"m. c #C3CBDB",
"M. c #C4CCDB",
"N. c #C6CEDD",
"B. c #C7CFDD",
"V. c #CAD1DF",
"C. c #EDD4C1",
"Z. c #CDD3E0",
"A. c #CED4E4",
"S. c #D0D0E2",
"D. c #D0D6E2",
"F. c #D4D9E7",
"G. c #D7DCE7",
"H. c #D8DDE7",
"J. c #E4E7EE",
"K. c #E7EAF0",
"L. c #EAECF1",
"P. c #EBEDF2",
"I. c #F2F3F6",
"U. c #F3F4F6",
"Y. c #F4F5F7",
"T. c #F5F5F7",
"R. c #FAF5F1",
"E. c #F7F7F9",
"W. c #F8F8F9",
"Q. c #F8F9FA",
"!. c #F9F9FA",
"~. c #FBFBFB",
"^. c gray99",
"/. c None",
/* pixels */
"/./././././././././././././././././././././././././././././././././././././././././././././././././././././././././././././././.",
"/./././././././././././././././././././././././././././././././././././././././././././././././././././././././././././././././.",
"/./././././././././././././././././././././././././././././././././././././././././././././././././././././././././././././././.",
"/./././././././././././././././././././././././././././././././././././././././././././././././././././././././././././././././.",
"/./././././././././././././././././././././././././././././././././././././././././././././././././././././././././././././././.",
"/./././././././././././././././././././././././././././././././././././././././././././././././././././././././././././././././.",
"/./././././././././././././././././././././././././././././././././././././././././././././././././././././././././././././././.",
"/./././././././././././././././././././././././././././././././././././././././././././././././././././././././././././././././.",
"/./././././././././././././././././././././././././././././././././././././././././././././././././././././././././././././././.",
"/./././././././././././././././././././././././././././././././././././././././././././././././././././././././././././././././.",
"/./././././././././././././././././././././././././././././././././././././././././././././././././././././././././././././././.",
"/./././././././././././././././././././././././././././././././././././././././././././././././././././././././././././././././.",
"/./././././././././././././././././././././././././././././././././././././././././././././././././././././././././././././././.",
"/./././././././././././././././././././././././././././././././././././././././././././././././././././././././././././././././.",
"/./././././././././././././././././././././././././././././././././././././././././././././././././././././././././././././././.",
"/./././././././././././././././././././././././././././././././././././././././././././././././././././././././././././././././.",
"/./././././././././././././././././././././././././././././././././././././././././././././././././././././././././././././././.",
"/./././././././././././././././././././././././././././././././././././././././././././././././././././././././././././././././.",
"/./././././././././././././././././././././././././././././././././././././././././././././././././././././././././././././././.",
"/./././././././././././././././././././././././././././././././././././././././././././././././././././././././././././././././.",
"/./././././././././././././././././././././././././././././././././././././././././././././././././././././././././././././././.",
"/./././././././././././././././././././././././././././././././././././././././././././././././././././././././././././././././.",
"/././././././././.~././././././././././././././././././././././././././././././././././././././././././././.^./././././././././.",
"/././././././././.~.^././././././././././././././././././././././././././././././././././././././././././.^.~./././././././././.",
"/././././././././.^.^././././././././././././././././././././././././././././././././././././././././././.^.^./././././././././.",
"/././././././././.^.^.^././././././././././././././././././././././././././././././././././././././././.^.^.^./././././././././.",
"/././././././././.^.^.^.^./././././././././././././././././.& M B s /././././././././././././././././.^.^.^.^./././././././././.",
"/././././././././.~.^.^.^.~././././././././././././././././.z Q Q a /./././././././././././././././.^.^.^.^.^./././././././././.",
"/./././././././.^./.^.^.^.^././././././././././././././.n.Q j Q Q h Q R /./././././././././././././.^.^.^.~./.^././././././././.",
"/././././././.^.^././.^.^.^.^./.^.^.^.^.^.^.~././././.P K < . n m N K K K E /././.^.^.^.^.^.^.^./.^.^.^.^././.^.~./././././././.",
"/././././././.^.^.^././.I.^.^.^.^.^.^.^.^.^.^.^.T.| Z ) ^ x . @ 3 e A ^ ^ V U R.^.^.^.^.^.^.^.^.^.^.^.U././.^.^.^./././././././.",
"/./././././././.^.^.^.K.N.Z.Q.^.^.^.^.^.^.^.W.S.W y / 3._ , . G 8 S { 3.:.^ b I C.E.^.^.^.^.^.^.^.!.D.N.J.^.^.^././././././././.",
"/./././././././.^.^.^.^.^.Y.m.V.Q.^.^.^.^.F.' =.Y u 3.3.c ... Q D J 3.-.( *.%.6  .` A.^.^.^.^.^.V.M.Y.^.^.^.^.~././././././././.",
"/././././././././././.^././.B.L.^.f.6.@.@.5.9.$.~ ;.3.#.k v . 5 0 ! ] ^ ^ ^ >.&.3.8.w.3.3.4.a.^.P.V././.^./././././././././././.",
"/././././././././././././.^.^.^.^.G.s.3.3.s.3.o.O.,.^ X.l > + 8 0 C ^ +.+.,.3.j.8.3.p.3.3.s.H.^.^.^.^./././././././././././././.",
"/./././././././././././.^.^.^.^.u.m.3.3.3.d.m.[ } ^ ^ /.; > w q p i ^ ^ / <.1.i.k.m.d.3.3.3.m.r.^.^.^.^././././././././././././.",
"/./././././././././.^.^.^.^.^.~.v.8.3.8.e.t.M./././././.- > w Q T r /./././././././.y.0.8.3.7.m.~.^.^.^.^.^././././././././././.",
"/./././././././.^.^.^.^.^.^././.m.8.g.r.3.2./././././././.> w Q H 0 /././././././././.3.q.h.7.m././.^.^.^.^.^.^././././././././.",
"/./././././././././././.^././.m.7./.z././././././././././.> $ 9 7 4 /././././././././././.x./.7.l././.^.~./././././././././././.",
"/./././././././././././././.b././././././././././././././.> # 8 4 /./././././././././././././././.c././././././././././././././.",
"/././././././././././././././././././././././././././././.- > t 4 /././././././././././././././././././././././././././././././.",
"/././././././././././././././././././././././././././././.- > L 4 1 /./././././././././././././././././././././././././././././.",
"/./././././././././././././././././././././././././././././.> F g 4 /./././././././././././././././././././././././././././././.",
"/./././././././././././././././././././././././././././././.> X g /.2 /././././././././././././././././././././././././././././.",
"/./././././././././././././././././././././././././././././.; X g /.2 /././././././././././././././././././././././././././././.",
"/./././././././././././././././././././././././././././././.: = g /././././././././././././././././././././././././././././././.",
"/././././././././././././././././././././././././././././././.> O a /./././././././././././././././././././././././././././././.",
"/./././././././././././././././././././././././././././././././.>   /./././././././././././././././././././././././././././././.",
"/./././././././././././././././././././././././././././././././.> o /./././././././././././././././././././././././././././././.",
"/./././././././././././././././././././././././././././././././.> % d /././././././././././././././././././././././././././././.",
"/./././././././././././././././././././././././././././././././.& - f /././././././././././././././././././././././././././././.",
"/./././././././././././././././././././././././././././././././.> - /./././././././././././././././././././././././././././././.",
"/./././././././././././././././././././././././././././././././.> /././././././././././././././././././././././././././././././.",
"/./././././././././././././././././././././././././././././.> > * /././././././././././././././././././././././././././././././.",
"/././././././././././././././././././././././././././././././.; /./././././././././././././././././././././././././././././././.",
"/./././././././././././././././././././././././././././././.: /././././././././././././././././././././././././././././././././.",
"/./././././././././././././././././././././././././././././././././././././././././././././././././././././././././././././././.",
"/./././././././././././././././././././././././././././././././././././././././././././././././././././././././././././././././.",
"/./././././././././././././././././././././././././././././././././././././././././././././././././././././././././././././././.",
"/./././././././././././././././././././././././././././././././././././././././././././././././././././././././././././././././.",
"/./././././././././././././././././././././././././././././././././././././././././././././././././././././././././././././././.",
"/./././././././././././././././././././././././././././././././././././././././././././././././././././././././././././././././.",
"/./././././././././././././././././././././././././././././././././././././././././././././././././././././././././././././././.",
"/./././././././././././././././././././././././././././././././././././././././././././././././././././././././././././././././."
};
