/* XPM */
static char *_2825_e00e513fdc76be195ce186945d2c29668aba6ec9558034d4aca98346a97a6d10[] = {
/* columns rows colors chars-per-pixel */
"64 64 246 2 ",
"   c #9B103E",
".  c #9F113E",
"X  c #A3123D",
"o  c #AC163C",
"O  c #B0163B",
"+  c #B6183B",
"@  c #BE1B3A",
"#  c #96293F",
"$  c #9D2B3E",
"%  c #9A323F",
"&  c #A7373B",
"*  c #A0363D",
"=  c #B43F39",
"-  c #CD1F37",
";  c #CE1F37",
":  c #C41D39",
">  c #CD1F38",
",  c #CE1F38",
"<  c #CF1F38",
"1  c #CD2037",
"2  c #CD2038",
"3  c #CE2038",
"4  c #C02C39",
"5  c #C5353D",
"6  c #AB413C",
"7  c #A4483D",
"8  c #AB4F3C",
"9  c #B04639",
"0  c #B2543A",
"q  c #B4563A",
"w  c #BC5F3C",
"e  c #BE603B",
"r  c #C94137",
"t  c #C94436",
"y  c #C05F37",
"u  c #C16036",
"i  c #C56036",
"p  c #C56336",
"a  c #C0633B",
"s  c #C86939",
"d  c #CD713D",
"f  c #CD733F",
"g  c #D0763F",
"h  c #890A40",
"j  c #8A0B41",
"k  c #8C1240",
"l  c #971E42",
"z  c #B03457",
"x  c #B5355D",
"c  c #C82C45",
"v  c #C33852",
"b  c #955057",
"n  c #BE6641",
"m  c #BC6B4C",
"M  c #AB6556",
"N  c #AD6E5D",
"B  c #9C6C70",
"V  c #C26C44",
"C  c #C26D45",
"Z  c #D36540",
"A  c #C57046",
"S  c #CD7B48",
"D  c #CF7C4A",
"F  c #D17740",
"G  c #D27940",
"H  c #D37A41",
"J  c #D47D42",
"K  c #D67F44",
"L  c #D0784A",
"P  c #D27B4B",
"I  c #D17F49",
"U  c #D37C4B",
"Y  c #D57F4B",
"T  c #E64D62",
"R  c #D68246",
"E  c #D88345",
"W  c #D6854A",
"Q  c #DB8948",
"!  c #DE8D4A",
"~  c #DF8F4B",
"^  c #CC8257",
"/  c #C7885F",
"(  c #E1924D",
")  c #C99672",
"_  c #D7A379",
"`  c #6868A5",
"'  c #696AA6",
"]  c #6A6BA7",
"[  c #6E6FA9",
"{  c #7072AB",
"}  c #7275AC",
"|  c #787AAF",
" . c #797EB2",
".. c #7F83B4",
"X. c #AA8587",
"o. c #B69296",
"O. c #B09899",
"+. c #858DBB",
"@. c #868EBB",
"#. c #9095BE",
"$. c #C39A8D",
"%. c #C49B8D",
"&. c #C09A91",
"*. c #E4AF81",
"=. c #EBBA8F",
"-. c #CABCB7",
";. c #8F99C1",
":. c #919CC3",
">. c #94A0C5",
",. c #95A0C5",
"<. c #94A1C5",
"1. c #95A1C5",
"2. c #94A0C6",
"3. c #95A0C6",
"4. c #94A1C6",
"5. c #95A1C6",
"6. c #96A1C6",
"7. c #96A2C6",
"8. c #97A2C6",
"9. c #97A3C7",
"0. c #98A0C0",
"q. c #98A3C7",
"w. c #98A4C7",
"e. c #99A4C7",
"r. c #99A4C8",
"t. c #99A5C8",
"y. c #9AA5C8",
"u. c #9AA6C8",
"i. c #9BA6C8",
"p. c #9BA6C9",
"a. c #9CA7C9",
"s. c #9DA8C9",
"d. c #9DA9CA",
"f. c #9EA9CA",
"g. c #9EA9CB",
"h. c #9FAACA",
"j. c #A0ABCB",
"k. c #A1ACCB",
"l. c #A1ABCC",
"z. c #A1ADCC",
"x. c #A2ADCC",
"c. c #A3ADCC",
"v. c #A2AECC",
"b. c #A3AECC",
"n. c #A4AECD",
"m. c #A5AFCD",
"M. c #A5B0CD",
"N. c #A6B0CD",
"B. c #A7B0CF",
"V. c #A8B2CE",
"C. c #A8B3CF",
"Z. c #A9B3CF",
"A. c #AAB4CF",
"S. c #A8B2D0",
"D. c #ABB5D0",
"F. c #ACB5D0",
"G. c #ACB6D0",
"H. c #ACB6D1",
"J. c #ADB7D1",
"K. c #AEB7D3",
"L. c #AEB8D1",
"P. c #AFB8D1",
"I. c #AFB9D2",
"U. c #B1BBD3",
"Y. c #B2BCD3",
"T. c #B3BDD3",
"R. c #B1B9D4",
"E. c #B0B9D5",
"W. c #B3BDD4",
"Q. c #B4BDD4",
"!. c #B5BED4",
"~. c #B6BFD5",
"^. c #B5BDD6",
"/. c #B7C0D5",
"(. c #B8C0D5",
"). c #B8C1D6",
"_. c #BAC2D7",
"`. c #BAC3D7",
"'. c #BBC3D7",
"]. c #BBC4D7",
"[. c #BAC2D8",
"{. c #BAC2D9",
"}. c #BBC3DA",
"|. c #BDC5D8",
" X c #BDC6D8",
".X c #BEC7D9",
"XX c #C0C7DA",
"oX c #C0C8D9",
"OX c #C0C8DA",
"+X c #C0C9DA",
"@X c #C1C9DA",
"#X c #C1CADA",
"$X c #C2CADA",
"%X c #C3CADA",
"&X c #C2CADB",
"*X c #C2CBDB",
"=X c #C3CBDB",
"-X c #C2CCDA",
";X c #C1C9DC",
":X c #C3CADC",
">X c #C5CBDF",
",X c #C4CCDC",
"<X c #C5CDDC",
"1X c #C6CEDD",
"2X c #C6CDDF",
"3X c #C9D0DE",
"4X c #CAD0DF",
"5X c #CAD1DF",
"6X c #C6CDE0",
"7X c #CBD2E0",
"8X c #CDD3E0",
"9X c #CED4E2",
"0X c #CED4E4",
"qX c #CFD5E4",
"wX c #D1D7E3",
"eX c #D2D8E4",
"rX c #D4DAE5",
"tX c #D5D9E7",
"yX c #D5DAE6",
"uX c #D8DDE7",
"iX c #DADFE8",
"pX c #DBDFEB",
"aX c #DBE0E9",
"sX c #DEE1EC",
"dX c #E1E4EE",
"fX c #E2E5EE",
"gX c #E6E9EF",
"hX c #E6EAEF",
"jX c #F8EEE5",
"kX c #E8EBF0",
"lX c #E9EBF1",
"zX c #EBEDF2",
"xX c #EBEDF3",
"cX c #EDEFF3",
"vX c #F2F3F6",
"bX c #F2F4F5",
"nX c #F3F4F6",
"mX c #F4F5F7",
"MX c #F5F6F8",
"NX c #F8F8F9",
"BX c #F8F9FA",
"VX c #F9F9FA",
"CX c #FAFAFB",
"ZX c #FBFBFB",
"AX c gray99",
"SX c None",
/* pixels */
"SXSXSXSXSXSXSXSXSXSXSXSXSXSXSXSXSXSXSXSXSXSXSXSXSXSXSXAXSXSXSXSXSXSXSXSXSXAXSXSXSXSXSXSXSXSXSXSXSXSXSXSXSXSXSXSXSXSXSXSXSXSXSXSX",
"SXSXSXSXSXSXSXSXSXSXSXSXSXSXSXSXSXSXSXSXSXSXSXSXSXSXAXSXSXSXSXSXSXSXSXSXSXZXAXSXSXSXSXSXSXSXSXSXSXSXSXSXSXSXSXSXSXSXSXSXSXSXSXSX",
"SXSXSXSXSXSXSXSXSXSXSXSXSXSXSXSXSXSXSXSXSXSXSXSXSXAXAXSXSXSXSXSXSXSXSXSXSXSXAXVXSXSXSXSXSXSXSXSXSXSXSXSXSXSXSXSXSXSXSXSXSXSXSXSX",
"SXSXSXSXSXSXSXSXSXSXSXSXSXSXSXSXSXSXSX-XSXSXSXSXAX8XSXSXSXSXSXSXSXSXSXSXSXSXAXwXSXSXSXSXxXSXSXSXSXSXSXSXSXSXSXSXSXSXSXSXSXSXSXSX",
"SXSXSXSXSXSXSXSXSXSXSXSXSXSXSXSXSXSXSXaXSXSXSXZXmX1XSXSXSXSXSXSXSXSXSXSXSXSXAXK.Q.SXSXSXbX%XSXSXSXSXSXSXSXSXSXSXSXSXSXSXSXSXSXSX",
"SXSXSXSXSXSXSXSXSXSXSXSXSXSXSXSXSXSXSXgXSXSXSXAXyX,XSXSXSXSXSXSXSXSXSXSXSXSXSXtX5.!.SXSXSX%XSXSXSXSXSXSXSXSXSXSXSXSXSXSXSXSXSXSX",
"SXSXSXSXSXSXSXSXSXSXSXSXSXSXSXgXSXSXSXgXSXSXSXlXG.AXSXSXSXSXSXSXSXSXSXSXSXSXSXAX5.L.SXSXSX%XSXSXAXSXSXSXSXSXSXSXSXSXSXSXSXSXSXSX",
"SXSXSXSXSXSXSXSXSXSXSXSXSXSXSX=XSXSX=X5.SXSXSXfXS.AXSXSXSXSXSXSXSXSXSXSXSXSXSXAXp.L.SXSXpXs.SXSXAXSXSXSXSXSXSXSXSXSXSXSXSXSXSXSX",
"SXSXSXSXSXSXSXSXSXSXSXSXSXSXSX=XSXSX=X5.AXSXSXfXS.AXSXSXSXSXSXSXSXSXSXSXSXSXSXAX^.L.SXSXpXs.SXSXAX=XSXSXSXSXSXSXSXSXSXSXSXSXSXSX",
"SXSXSXSXSXSXSXSXSXSXSXSXSXSXSX=XSXSXSXc.0XSXSXi.S.AXSXSXSXSXSXSXSXSXSXSXSXSXSXAXp.L.SXSX5.'.SXSXAX=XSXSXSXSXSXSXSXSXSXSXSXSXSXSX",
"SXSXSXSXSXSXSXSXSXSXSXSXSXSXSX=XMXSXSXN.B.ZXSX5.p.AXSXSXSXSXSXSXSXSXSXSXSXSXSX6X5.L.SXdX5.%XSXSXp.=XSXSXSXSXSXSXSXSXSXSXSXSXSXSX",
"SXSXSXSXSXSXSXSXSXSXSXSXSXSXSX=XMXSXSXQ.5.;XSX5.5.AXSXSXSXSXSXSXSXSXSXSXSXSXSXK.5.k.SXb.a.%XSXSXp.=XSXSXSXSXSXSXSXSXSXSXSXSXSXSX",
"SXSXSXSXSXSXSXSXSXSXSXSXSXSXSX=X5.MXSX$X5.{.dX5.5.AXSXSXSXSXSXSXSXSXSXSXSXSXAXK.5.B.nX5.b.SXSXpX5.SXSXSXSXSXSXSXSXSXSXSXSXSXSXSX",
"SXSXSXSXSXSXSXSXSXSXSXSXSXSXSXSX9.sXSX-X5.5.rX5.5.@XSXSXSXSXSXSXSXSXSXSXSXSXAXh.5.0XZ.5.z.SXCX5.XXSXSXSXSXSXSXSXSXSXSXSXSXSXSXSX",
"SXSXSXSXSXSXSXSXSXSXSXSXSXSXSXSX*X5.cXSX5.5.}.5.5.9.=XSXSXSXSXSXSXSXSXSXSXSX=X5.5.0X5.5.3.SX|.5.SXSXSXSXSXSXSXSXSXSXSXSXSXSXSXSX",
"SXSXSXSXSXSXSXSXSXSXSXSXSXSX5XSXSXa.5.kX5.5.q.5.5.5.=XSXSXSXSXSXSXSXSXSXSXSXx.5.5.t.5.5.E.:X5.`.SXZXSXSXSXSXSXSXSXSXSXSXSXSXSXSX",
"SXSXSXSXSXSXSXSXSXSXSXSXSXSXSXuXSXSX5.h.R.5.5.5.5.5.5.=XSXSXSXSXSXSXSXSXSX<X5.5.5.5.5.5.2X5.1.SXAXI.SXSXSXSXSXSXSXSXSXSXSXSXSXSX",
"SXSXSXSXSXSXSXSXSXSXSXSXSXSXSX5.SXSX4.5.Z.5.5.5.5.5.5.D.SXSXSXSXSXSXSXSXSXw.5.5.5.5.5.5.Q.5.SXSXqX,.SXSXSXSXSXSXSXSXSXSXSXSXSXSX",
"SXSXSXSXSXSXSXSXSXSXSXSXSXSXSX5.5.SXg.5.5.5.5.5.5.5.b.5.9XSXSXSXSXSXSXSXY.5.b.5.5.5.5.5.5.5.SXpX5.SXSXSXSXSXSXSXSXSXSXSXSXSXSXSX",
"SXSXSXSXSXSXSXSXSXSXSXSXSXSXSXSX5.sXK.5.5.5.5.5.x.`.5.5.5.kXSXSXSXSXSXCX5.5.5.@X7.5.5.5.5.5.CX5.5.SXSXSXSXSXSXSXSXSXSXSXSXSXSXSX",
"SXSXSXSXSXSXSXSXSXSXSXSXSXSXSXSX3.5.k.5.5.5.5.5.`.5.5.5.5.r.SXSXSXSXAXy.5.|.5.8.b.5.5.5.5.5.OX5.SXSXSXSXSXSXSXSXSXSXSXSXSXSXSXSX",
"SXSXSXSXSXSXSXSXSXSXSXSXSXSXSXSXSX5.U.5.V.W.j.s.`.5.5.5.5.5.T.SXSXAXAX).+X5.5.5.b.j.j..X5.i.h.5.SXSXSXSXSXSXSXSXSXSXSXSXSXSXSXSX",
"SXSXSXSXSXSXSXSXSXSXSXSXSXSXSXSXSX<.k.5.f.m.5.U.q.5.5.5.G./.5.%XSXAX7XvX5.5.5.k.C.k.5.J.5.q.5.SXSXSXSXSXSXSXSXSXSXSXSXSXSXSXSXSX",
"SXSXSXSXSXSXSXSXSXSXSXSXSXSXSXSXSXSX4.5.5.d.].5.5.5.5.=X=X!.5.G.AXAXAXmX=X=X5.5.5.b.~.5.5.5.SXSXSXSXSXSXSXSXSXSXSXSXSXSXSXSXSXSX",
"SXSXSXSXSXSXSXSXSXSXSXSXSXSXSXSXAXAXSXj.5.=XA.5.j.x.5.=X=Xh.5.G.AXAXNXkX=X=X|.j.w.5.|.U.w.M.SXAXSXSXSXSXSXSXSXSXSXSXSXSXSXSXSXSX",
"SXSXSXSXSXSXSXSXSXSXSXSXSXSXSXSXSX=XoXm.L.J.6.=X=X$XoX5.5.5.5.H.SXzX=X3XBXAX=X=X=XA.5.@X5.oXoX=XSXSXSXSXSXSXSXSXSXSXSXSXSXSXSXSX",
"SXSXSXSXSXSXSXSXSXSXSXSXSXSXSXSXSXSX5.5.7.5.6.x.=XoX5.5.5.5.5.SXSXSXzX=X=XBXn.=X=X9.5.6.5.5.<.SXSXSXSXSXSXSXSXSXSXSXSXSXSXSXSXSX",
"SXSXSXSXSXSXSXSXSXSXSXSXSXSXSXSXSXSX,.5.5.5.5.5.5.8./.=X=Xh.v.SXSXSXSX=X=X=X,X5.5.5.5.5.5.5.SXSXSXSXSXSXSXSXSXSXSXSXSXSXSXSXSXSX",
"SXSXSXSXSXSXSXSXSXSXSXSXSXSXSXSXSXSXSXSX0XL.m.5.5.7.Z.G.#.[ SXSXSXSXSXAXiX=XZ.5.5.5.L.[.>XSXSXSXSXSXSXSXSXSXSXSXSXSXSXSXSXSXSXSX",
"SXSXSXSXSXSXSXSXSXSXSXSXSXSXSXSXSXSXhXgXeXU.5.e.=X5.5.@.` SXSXSXSXSXSXAX` ` :./.P.5.b.).gXgXSXSXSXSXSXSXSXSXSXSXSXSXSXSXSXSXSXSX",
"SXSXSXSXSXSXSXSXSXSXSXSXSXSXSXSXSXSXSX=X/.5.e.oX/.5.5.5.`.SXSXSXSXSXSXSX4X} 5.L.=XI.5.k._.&XSXSXSXSXSXSXSXSXSXSXSXSXSXSXSXSXSXSX",
"SXSXSXSXSXSXSXSXSXSXSXSXSXSXSXSXSXSXSXSX2.>.*X(.5.5.5.5.SXSXSXSXSXSXSXSXMX9.5.5.4.*XF.>.SXSXSXSXSXSXSXSXSXSXSXSXSXSXSXSXSXSXSXSX",
"SXSXSXSXSXSXSXSXSXSXSXSXSXSXSXSXSXSXSXSXSXSXSXSXSX9.|.u.SXSXSXT O SXSXSXl.oX Xh.SXSXSXSXSXSXSXSXSXSXSXSXSXSXSXSXSXSXSXSXSXSXSXSX",
"SXSXSXSXSXSXSXSXSXSXSXSXSXSXSXSXSXSXSXSXSXSXSXSXjX_ _ ) `.SXo U Y h SXSX0.) _ *.ZXSXSXSXSXSXSXSXSXSXSXSXSXSXSXSXSXSXSXSXSXSXSXSX",
"SXSXSXSXSXSXSXSXSXSXSXSXSXSXSXSXSXSXSXSXSXSXSXSXV o.X.D ! -.x ( ( h ZX=.F %.&.^ W SXSXSXSXSXSXSXSXSXSXSXSXSXSXSXSXSXSXSXSXSXSXSX",
"SXSXSXSXSXSXSXSXSXSXSXSXSXSXSXSXSXSXSXSXSXSXSXSXm #XU.U.B Z X L P l ( a 7.U.U.$.I SXSXSXSXSXSXSXSXSXSXSXSXSXSXSXSXSXSXSXSXSXSXSX",
"SXSXSXSXSXSXSXSXSXSXSXSXSXSXSXSXSXSXSXSXSXSXSXSXSX(.s.=X..5 3 $ % Q K M =X=X6.SXSXSXSXSXSXSXSXSXSXSXSXSXSXSXSXSXSXSXSXSXSXSXSXSX",
"SXSXSXSXSXSXSXSXSXSXSXSXSXSXSXSXSXSXSXSXSXSXSXSXSX9.=X=X{ 3 3 & 0 p b ` 9.=X=XSXSXSXSXSXSXSXSXSXSXSXSXSXSXSXSXSXSXSXSXSXSXSXSXSX",
"SXSXSXSXSXSXSXSXSXSXSXSXSXSXSXSXSXSXSXSXSXSXSXSXSXSX=X| z 3 t ~ f R ` ;.] oX=XSXSXSXSXSXSXSXSXSXSXSXSXSXSXSXSXSXSXSXSXSXSXSXSXSX",
"SXSXSXSXSXSXSXSXSXSXSXSXSXSXSXSXSXSXSXSXSXSXSXSXSXSXSX' v 3 X d w N `  .4.SXSXSXSXSXSXSXSXSXSXSXSXSXSXSXSXSXSXSXSXSXSXSXSXSXSXSX",
"SXSXSXSXSXSXSXSXSXSXSXSXSXSXSXSXSXSXSXSXSXSXSXSXSXSXSXG.c 3 j q p O.` ] 5.SXSXSXSXSXSXSXSXSXSXSXSXSXSXSXSXSXSXSXSXSXSXSXSXSXSXSX",
"SXSXSXSXSXSXSXSXSXSXSXSXSXSXSXSXSXSXSXSXSXSXSXSXSXSXSXSX3 . * p s / ` ' +.SXSXSXSXSXSXSXSXSXSXSXSXSXSXSXSXSXSXSXSXSXSXSXSXSXSXSX",
"SXSXSXSXSXSXSXSXSXSXSXSXSXSXSXSXSXSXSXSXSXSXSXSXSXSXSX3 3   9 u A ( 1.SXSXSXSXSXSXSXSXSXSXSXSXSXSXSXSXSXSXSXSXSXSXSXSXSXSXSXSXSX",
"SXSXSXSXSXSXSXSXSXSXSXSXSXSXSXSXSXSXSXSXSXSXSXSXSXSXSX3 3 j p H ( S SXSXSXSXSXSXSXSXSXSXSXSXSXSXSXSXSXSXSXSXSXSXSXSXSXSXSXSXSXSX",
"SXSXSXSXSXSXSXSXSXSXSXSXSXSXSXSXSXSXSXSXSXSXSXSXSXSXSX3 3 j p C ( e SXSXSXSXSXSXSXSXSXSXSXSXSXSXSXSXSXSXSXSXSXSXSXSXSXSXSXSXSXSX",
"SXSXSXSXSXSXSXSXSXSXSXSXSXSXSXSXSXSXSXSXSXSXSXSXSXSXSX3 3 j 8 ( J y SXSXSXSXSXSXSXSXSXSXSXSXSXSXSXSXSXSXSXSXSXSXSXSXSXSXSXSXSXSX",
"SXSXSXSXSXSXSXSXSXSXSXSXSXSXSXSXSXSXSXSXSXSXSXSXSXSXSXSX1 + 6 ( J # SXSXSXSXSXSXSXSXSXSXSXSXSXSXSXSXSXSXSXSXSXSXSXSXSXSXSXSXSXSX",
"SXSXSXSXSXSXSXSXSXSXSXSXSXSXSXSXSXSXSXSXSXSXSXSXSXSXSXSX< 3 3 n = k SXSXSXSXSXSXSXSXSXSXSXSXSXSXSXSXSXSXSXSXSXSXSXSXSXSXSXSXSXSX",
"SXSXSXSXSXSXSXSXSXSXSXSXSXSXSXSXSXSXSXSXSXSXSXSXSXSXSXSXSX- 3 r 3 4 7 SXSXSXSXSXSXSXSXSXSXSXSXSXSXSXSXSXSXSXSXSXSXSXSXSXSXSXSXSX",
"SXSXSXSXSXSXSXSXSXSXSXSXSXSXSXSXSXSXSXSXSXSXSXSXSXSXSXSXSX1 3 i 3 2 7 SX3 SXSXSXSXSXSXSXSXSXSXSXSXSXSXSXSXSXSXSXSXSXSXSXSXSXSXSX",
"SXSXSXSXSXSXSXSXSXSXSXSXSXSXSXSXSXSXSXSXSXSXSXSXSXSXSXSXSXSX3 g 3 3 , ; SXSXSXSXSXSXSXSXSXSXSXSXSXSXSXSXSXSXSXSXSXSXSXSXSXSXSXSX",
"SXSXSXSXSXSXSXSXSXSXSXSXSXSXSXSXSXSXSXSXSXSXSXSXSXSXSXSXSXSXSXE , 3 X SXSXSXSXSXSXSXSXSXSXSXSXSXSXSXSXSXSXSXSXSXSXSXSXSXSXSXSXSX",
"SXSXSXSXSXSXSXSXSXSXSXSXSXSXSXSXSXSXSXSXSXSXSXSXSXSXSXSXSXSXSXG SX3 : SXSXSXSXSXSXSXSXSXSXSXSXSXSXSXSXSXSXSXSXSXSXSXSXSXSXSXSXSX",
"SXSXSXSXSXSXSXSXSXSXSXSXSXSXSXSXSXSXSXSXSXSXSXSXSXSXSXSXSXSXSXSXSX3 j @ > SXSXSXSXSXSXSXSXSXSXSXSXSXSXSXSXSXSXSXSXSXSXSXSXSXSXSX",
"SXSXSXSXSXSXSXSXSXSXSXSXSXSXSXSXSXSXSXSXSXSXSXSXSXSXSXSXSXSXSXSXSX3 @ h SXSXSXSXSXSXSXSXSXSXSXSXSXSXSXSXSXSXSXSXSXSXSXSXSXSXSXSX",
"SXSXSXSXSXSXSXSXSXSXSXSXSXSXSXSXSXSXSXSXSXSXSXSXSXSXSXSXSXSXSXSX> 3 3 SXSXSXSXSXSXSXSXSXSXSXSXSXSXSXSXSXSXSXSXSXSXSXSXSXSXSXSXSX",
"SXSXSXSXSXSXSXSXSXSXSXSXSXSXSXSXSXSXSXSXSXSXSXSXSXSXSXSXSXSXSXSXSX3 3 SXSXSXSXSXSXSXSXSXSXSXSXSXSXSXSXSXSXSXSXSXSXSXSXSXSXSXSXSX",
"SXSXSXSXSXSXSXSXSXSXSXSXSXSXSXSXSXSXSXSXSXSXSXSXSXSXSXSXSXSXSXSX3 3 SXSXSXSXSXSXSXSXSXSXSXSXSXSXSXSXSXSXSXSXSXSXSXSXSXSXSXSXSXSX",
"SXSXSXSXSXSXSXSXSXSXSXSXSXSXSXSXSXSXSXSXSXSXSXSXSXSXSXSXSXSXSX1 3 1 SXSXSXSXSXSXSXSXSXSXSXSXSXSXSXSXSXSXSXSXSXSXSXSXSXSXSXSXSXSX",
"SXSXSXSXSXSXSXSXSXSXSXSXSXSXSXSXSXSXSXSXSXSXSXSXSXSXSXSXSXSXSX3 SXSXSXSXSXSXSXSXSXSXSXSXSXSXSXSXSXSXSXSXSXSXSXSXSXSXSXSXSXSXSXSX",
"SXSXSXSXSXSXSXSXSXSXSXSXSXSXSXSXSXSXSXSXSXSXSXSXSXSXSXSXSX> 2 SXSXSXSXSXSXSXSXSXSXSXSXSXSXSXSXSXSXSXSXSXSXSXSXSXSXSXSXSXSXSXSXSX",
"SXSXSXSXSXSXSXSXSXSXSXSXSXSXSXSXSXSXSXSXSXSXSXSXSXSXSXSXSXSX2 SXSXSXSXSXSXSXSXSXSXSXSXSXSXSXSXSXSXSXSXSXSXSXSXSXSXSXSXSXSXSXSXSX",
"SXSXSXSXSXSXSXSXSXSXSXSXSXSXSXSXSXSXSXSXSXSXSXSXSXSXSXSXSXSXSXSXSXSXSXSXSXSXSXSXSXSXSXSXSXSXSXSXSXSXSXSXSXSXSXSXSXSXSXSXSXSXSXSX",
"SXSXSXSXSXSXSXSXSXSXSXSXSXSXSXSXSXSXSXSXSXSXSXSXSXSXSXSXSXSXSXSXSXSXSXSXSXSXSXSXSXSXSXSXSXSXSXSXSXSXSXSXSXSXSXSXSXSXSXSXSXSXSXSX"
};
