/* XPM */
static char *_098_a995413ae39899916063e63d522c75c5691a42279cc1152fd53dd4c16e408f95[] = {
/* columns rows colors chars-per-pixel */
"64 64 227 2 ",
"   c #9F113E",
".  c #A3123D",
"X  c #A7143D",
"o  c #A8143D",
"O  c #B01A3C",
"+  c #BC1A3A",
"@  c #972A3F",
"#  c #9C383E",
"$  c #A7373B",
"%  c #A4393C",
"&  c #CD1F37",
"*  c #CE1F37",
"=  c #C31C39",
"-  c #C81E38",
";  c #CD1F38",
":  c #CE1F38",
">  c #CD2037",
",  c #CE2037",
"<  c #CA2338",
"1  c #CB213A",
"2  c #CD2038",
"3  c #CE2038",
"4  c #C32A39",
"5  c #A3483D",
"6  c #B14939",
"7  c #BF5E37",
"8  c #B2543A",
"9  c #B4563A",
"0  c #B85939",
"q  c #BA5A38",
"w  c #BE603B",
"e  c #BE633D",
"r  c #C74B36",
"t  c #C56336",
"y  c #CB6D3B",
"u  c #CD713D",
"i  c #D1773F",
"p  c #890A40",
"a  c #8A0B41",
"s  c #8C0B40",
"d  c #900C40",
"f  c #A13C58",
"g  c #B5355D",
"h  c #C03544",
"j  c #B54E47",
"k  c #B35C42",
"l  c #BB6341",
"z  c #8C5566",
"x  c #A5446D",
"c  c #926775",
"v  c #B07164",
"b  c #B17364",
"n  c #A17B7B",
"m  c #D45D40",
"M  c #C16A44",
"N  c #C26D45",
"B  c #C86C49",
"V  c #C97547",
"C  c #CF7842",
"Z  c #CB704A",
"A  c #CD7B48",
"S  c #C97A4D",
"D  c #D17740",
"F  c #D17941",
"G  c #D27940",
"H  c #D37A41",
"J  c #D47D42",
"K  c #D17F49",
"L  c #C77B51",
"P  c #E34D61",
"I  c #BF8665",
"U  c #BB8468",
"Y  c #D88345",
"T  c #DA894B",
"R  c #DD8B49",
"E  c #DE8D4B",
"W  c #DB894C",
"Q  c #DC8A4C",
"!  c #DF8F4C",
"~  c #DD985C",
"^  c #DD995E",
"/  c #E0924C",
"(  c #E1924D",
")  c #C99672",
"_  c #D9A071",
"`  c #6767A5",
"'  c #6868A5",
"]  c #6969A6",
"[  c #6A6BA6",
"{  c #6A6BA7",
"}  c #6C6EA8",
"|  c #6D6EA8",
" . c #6D6FA9",
".. c #7072AA",
"X. c #7D7FB1",
"o. c #7B80B3",
"O. c #7D82B3",
"+. c #A88385",
"@. c #AA8587",
"#. c #8289B8",
"$. c #848BB9",
"%. c #858DBA",
"&. c #868FBB",
"*. c #8A90BC",
"=. c #8F93BC",
"-. c #9498BF",
";. c #C29C92",
":. c #8F9AC1",
">. c #929DC3",
",. c #979CC1",
"<. c #929EC4",
"1. c #94A0C5",
"2. c #95A0C5",
"3. c #94A1C5",
"4. c #95A1C5",
"5. c #94A0C6",
"6. c #95A0C6",
"7. c #94A1C6",
"8. c #95A1C6",
"9. c #96A1C6",
"0. c #96A2C6",
"q. c #97A2C6",
"w. c #97A3C7",
"e. c #98A3C7",
"r. c #99A4C7",
"t. c #99A4C8",
"y. c #9AA5C8",
"u. c #9AA6C8",
"i. c #9BA6C9",
"p. c #9CA7C9",
"a. c #9DA8C9",
"s. c #9DA9CA",
"d. c #9FAACA",
"f. c #A0ABCB",
"g. c #A1ACCB",
"h. c #A1ACCC",
"j. c #A2ADCC",
"k. c #A3AECC",
"l. c #A4AECC",
"z. c #A5AFCD",
"x. c #A6B0CD",
"c. c #A6B1CE",
"v. c #A7B1CE",
"b. c #A7B0CF",
"n. c #A7B2CE",
"m. c #A8B2CE",
"M. c #A9B3CF",
"N. c #A9B4CF",
"B. c #AAB4CF",
"V. c #B0B0CF",
"C. c #A8B1D0",
"Z. c #A8B2D0",
"A. c #A9B3D0",
"S. c #ABB5D0",
"D. c #ACB6D0",
"F. c #ADB6D2",
"G. c #AEB7D3",
"H. c #AEB8D1",
"J. c #AFB8D3",
"K. c #B2B8D1",
"L. c #B0BAD2",
"P. c #B1BAD2",
"I. c #B2BAD2",
"U. c #B2BCD3",
"Y. c #B3BDD4",
"T. c #B4BDD4",
"R. c #B5BED4",
"E. c #B7BED4",
"W. c #B9BFD5",
"Q. c #B7C0D5",
"!. c #B8C0D5",
"~. c #B8C1D6",
"^. c #BAC3D7",
"/. c #BBC4D7",
"(. c #BDC4D7",
"). c #BCC3DA",
"_. c #BDC5D8",
"`. c #BDC6D8",
"'. c #BFC6DB",
"]. c #CEC4C6",
"[. c #C0C7DA",
"{. c #C1C9DA",
"}. c #C2CADA",
"|. c #C3CADA",
" X c #C2CBDA",
".X c #C2CADB",
"XX c #C3CADB",
"oX c #C3CBDB",
"OX c #C2C8DD",
"+X c #C2C9DD",
"@X c #C6CEDD",
"#X c #C7CEDD",
"$X c #C7CFDD",
"%X c #C8CFDE",
"&X c #C9D0DF",
"*X c #CAD1DF",
"=X c #F0E0D3",
"-X c #CBD1E1",
";X c #CDD3E2",
":X c #CDD4E1",
">X c #CED4E4",
",X c #D8DCE8",
"<X c #DBDFEB",
"1X c #DCE0E9",
"2X c #DDE1EC",
"3X c #E3E6ED",
"4X c #E6E9EF",
"5X c #E5E8F0",
"6X c #E7E9F1",
"7X c #E9ECF2",
"8X c #EDEFF3",
"9X c #EDF0F4",
"0X c #EFF0F5",
"qX c #F0F0F5",
"wX c #F1F2F5",
"eX c #F2F3F5",
"rX c #F1F3F6",
"tX c #F3F3F6",
"yX c #F3F4F7",
"uX c #F4F5F7",
"iX c #F5F6F8",
"pX c #F7F7F9",
"aX c #F8F9F9",
"sX c gray98",
"dX c #FBFBFB",
"fX c gray99",
"gX c None",
/* pixels */
"gXgXgXgXgXgXgXgXgXgXgXgXgXgXgXgXgXgXgXgXgXgXgXgXgXgXgXgXgXgXgXgXgXgXgXgXgXgXgXgXgXgXgXgXgXgXgXgXgXgXgXgXgXgXgXgXgXgXgXgXgXgXgXgX",
"gXgXgXgXgXgXgXgXgXgXgXgXgXgXgXgXgXgXgXgXfXgXgXgXgXgXgXgXgXgXgXgXgXgXgXgXgXgXgXgXgXgXgXfXgXgXgXgXgXgXgXgXgXgXgXgXgXgXgXgXgXgXgXgX",
"gXgXgXgXgXgXgXgXgXgXgXgXgXgXgXgXgXgXgX[.fXgXgXgXgXgXgXgXgXgXgXgXgXgXgXgXgXgXgXgXgXgXgXfX XgXgXgXgXgXgXgXgXgXgXgXgXgXgXgXgXgXgXgX",
"gXgXgXgXgXgXgXgXgXgXgXgXgXgXgXgXgXgXgXx.fXgXgXgXgXgXgXgXgXgXgXgXgXgXgXgXgXgXgXgXgXgXgXfXoXgXgXgXgXgXgXgXgXgXgXgXgXgXgXgXgXgXgXgX",
"gXgXgXgXgXgXgXgXgXgXgXgXgXgXgXgXgXgXoX8.fXgXgXgXgXgXgXgXgXgXgXgXgXgXgXgXgXgXgXgXgXgXgXfXT.|.gXgXgXgXgXgXgXgXgXgXgXgXgXgXgXgXgXgX",
"gXgXgXgXgXgXgXgXgXgXgXgXgXgXgXgXgXgX}.8.fXgXgXgXgXgXgXgXgXgXgXgXgXgXgXgXgXgXgXgXgXgXgXfXT..XgXgXgXgXgXgXgXgXgXgXgXgXgXgXgXgXgXgX",
"gXgXgXgXgXgXgXgXgXgXgXgXgXgXgXgXgXgXf.8.fXgXgXgXgXgXgXgXgXgXgXgXgXgXgXgXgXgXgXgXgXgXgXfXT.a.gXgXgXgXgXgXgXgXgXgXgXgXgXgXgXgXgXgX",
"gXgXgXgXgXgXgXgXgXgXgXgXgXgXeXgXgXgXf.8.fXgXgXgXgXgXgXgXgXgXgXgXgXgXgXgXgXgXgXgXgXgXgXfXT.a.gXgXgXrXgXgXgXgXgXgXgXgXgXgXgXgXgXgX",
"gXgXgXgXgXgXgXgXgXgXgXgXgXgX*XgXgXgXf.8.fXdXgXgXgXgXgXgXgXgXgXgXgXgXgXgXgXgXgXgXgXgXgX4XT.a.gXgXgX:XgXgXgXgXgXgXgXgXgXgXgXgXgXgX",
"gXgXgXgXgXgXgXgXgXgXgXgXgXgXA.fXgXgX3.8.>XdXgXgXgXgXgXgXgXgXgXgXgXgXgXgXgXgXgXgXgXgXgX4Xu.4.gXgXfXJ.gXgXgXgXgXgXgXgXgXgXgXgXgXgX",
"gXgXgXgXgXgXgXgXgXgXgXgXgXgXt.fXgXgX5.8.b.dXgXgXgXgXgXgXgXgXgXgXgXgXgXgXgXgXgXgXgXgXgXoX8.2.gXgXfXi.gXgXgXgXgXgXgXgXgXgXgXgXgXgX",
"gXgXgXgXgXgXgXgXgXgXgXgXgXgXgXfXdXgXgX8.8.dXgXgXgXgXgXgXgXgXgXgXgXgXgXgXgXgXgXgXgXgXgXk.8.gXgXgXfXgXgXgXgXgXgXgXgXgXgXgXgXgXgXgX",
"gXgXgXgXgXgXgXgXgXgXgXgXgXgXgX<XfXgXgX8.8.7XgXgXgXgXgXgXgXgXgXgXgXgXgXgXgXgXgXgXgXgX,X8.8.gXgXfX2XgXgXgXgXgXgXgXgXgXgXgXgXgXgXgX",
"gXgXgXgXgXgXgXgXgXgXgXgXgXgXgXgX0XyXgX8.8.).aXgXgXgXgXgXgXgXgXgXgXgXgXgXgXgXgXgXgXpXOX8.5.gXuX0XgXgXgXgXgXgXgXgXgXgXgXgXgXgXgXgX",
"gXgXgXgXgXgXgXgXgXgXgXgXgXgXfXgX1.8.8XgX5.8.8.5.gXgXgXgXgXgXgXgXgXgXgXgXgXgXgXgXoX8.8.2.gXwX8.8.gXdXgXgXgXgXgXgXgXgXgXgXgXgXgXgX",
"gXgXgXgXgXgXgXgXgXgXgXgXgXgX*XdX1.p.8.Z.gX8.8.8.C.gXgXgXgXgXgXgXgXgXgXgXgXgXgXdXw.8.8.gX8X8.p.8.dX:XgXgXgXgXgXgXgXgXgXgXgXgXgXgX",
"gXgXgXgXgXgXgXgXgXgXgXgXgXgXgXfXfX3.8.8.-Xz.8.8.e.@XfXgXgXgXgXgXgXgXgXgXgXgXfX*.8.8.k.;Xf.8.4.fXfXgXgXgXgXgXgXgXgXgXgXgXgXgXgXgX",
"gXgXgXgXgXgXgXgXgXgXgXgXgXgXgXfXfXdX8.8.8.H.z.8.8.1X3XgXgXgXgXgXgXgXgXgXgXfX4X=.M.k.H.8.8.8.dXfXfXgXgXgXgXgXgXgXgXgXgXgXgXgXgXgX",
"gXgXgXgXgXgXgXgXgXgXgXgXgXgXgXgX6.H.+X8.8.8.8.8.u.8.8.gXgXgXgXgXgXgXgXgXgXfX$XT.8.8.8.8.8.'.L.8.gXgXgXgXgXgXgXgXgXgXgXgXgXgXgXgX",
"gXgXgXgXgXgXgXgXgXgXgXgXgXgX&XgXgX8._.N.w.8.8.8.8.8.8.8.gXgXgXgXgXgXgXgXfXiXy.8.8.8.8.q.v._.8.gXgX:XgXgXgXgXgXgXgXgXgXgXgXgXgXgX",
"gXgXgXgXgXgXgXgXgXgXgXgXgXgXgXi.fX5.8.w.0.8.8.8.8.8.8.8.^.gXgXgXgXgXgXfXtX2.8.8.8.8.8.9.w.8.3.fXh.gXgXgXgXgXgXgXgXgXgXgXgXgXgXgX",
"gXgXgXgXgXgXgXgXgXgXgXgXgXgXgXgXF.6X8.8.m.Q.B.8.8.8.8.8.8.gXgXgXgXgXgXsXX.>.8.8.8.m.Q.B.8.8.5XG.gXgXgXgXgXgXgXgXgXgXgXgXgXgXgXgX",
"gXgXgXgXgXgXgXgXgXgXgXgXgXgXgXgX6.8.8.d.U.8.8.p.`.8.8.8.8.gXgXgXgXgXgXqX' >.8./.s.8.8.P.s.8.8.8.gXgXgXgXgXgXgXgXgXgXgXgXgXgXgXgX",
"gXgXgXgXgXgXgXgXgXgXgXgXgXgXgXgXgX5.Y.8.M.8.8.Q.8.8.8.8.8.gXgXgXgXgXgXV.' >.8.8.T.8.8.x.8.U.5.gXgXgXgXgXgXgXgXgXgXgXgXgXgXgXgXgX",
"gXgXgXgXgXgXgXgXgXgXgXgXgXgXgXgXgXgXf.8.l.y.f.f.q.}.Q.8.!.gXgXgXgXgXgXE.' I.{.w.f.f.u.g.8.a.gXgXgXgXgXgXgXgXgXgXgXgXgXgXgXgXgXgX",
"gXgXgXgXgXgXgXgXgXgXgXgXgXgXgXgXgXgX8.8.8.M.8.8.^.8.8.8.K.gXgXgXgXgXgXE.' >.8.Q.8.8.D.8.8.8.gXgXgXgXgXgXgXgXgXgXgXgXgXgXgXgXgXgX",
"gXgXgXgXgXgXgXgXgXgXgXgXgXgXgXgXgXdXiX8.8.H.8.8.^.8.8...gXgXgXgXgXgXgXgX[ 1.8.Q.8.8.D.8.8.iXfXgXgXgXgXgXgXgXgXgXgXgXgXgXgXgXgXgX",
"gXgXgXgXgXgXgXgXgXgXgXgXgXgXgXgXgXgXoX%Xy.8.8.8.8.8.8.] gXgXgXgXgXgXgXgX' <.8.8.8.8.8.r.#XoXgXgXgXgXgXgXgXgXgXgXgXgXgXgXgXgXgXgX",
"gXgXgXgXgXgXgXgXgXgXgXgXgXgXgXgXgXgXgX7.8.8.8.Y.M.n.o.-.gXgXgXgXgXgXgXgX,.>.c.M.R.8.8.8.5.gXgXgXgXgXgXgXgXgXgXgXgXgXgXgXgXgXgXgX",
"gXgXgXgXgXgXgXgXgXgXgXgXgXgXgXgXgXgXgXgXgXS.c.Q.8.#.' E.gXgXgXgXgXgXgXgX(.>.8.8.T.z.D.gXgXgXgXgXgXgXgXgXgXgXgXgXgXgXgXgXgXgXgXgX",
"gXgXgXgXgXgXgXgXgXgXgXgXgXgXgXgXgXgXgXgXgXH.8.8.8.8.' %.gXgXgXgXgXgXgXgX{ 8.8.8.~.8.D.gXgXgXgXgXgXgXgXgXgXgXgXgXgXgXgXgXgXgXgXgX",
"gXgXgXgXgXgXgXgXgXgXgXgXgXgXgXgXgXgXgXgXgXgX8.8.8.8.{ ' gXgXgXP O gXgXgX| 8.w.8.j.8.gXgXgXgXgXgXgXgXgXgXgXgXgXgXgXgXgXgXgXgXgXgX",
"gXgXgXgXgXgXgXgXgXgXgXgXgXgXgXgXgXgXgXgXgXgX8.8.8.8.8.' W.fXX W Q p 9X} 8.8.u.T.8.8.gXgXgXgXgXgXgXgXgXgXgXgXgXgXgXgXgXgXgXgXgXgX",
"gXgXgXgXgXgXgXgXgXgXgXgXgXgXgXgXgXgXgXgXgXgXgX~ b ) u E _ =Xg ( ( x ].I ! u ) v ^ gXgXgXgXgXgXgXgXgXgXgXgXgXgXgXgXgXgXgXgXgXgXgX",
"gXgXgXgXgXgXgXgXgXgXgXgXgXgXgXgXgXgXgXgXgXgXgXK S +.@.@.l m . B Z f R e c ;.@.L A gXgXgXgXgXgXgXgXgXgXgXgXgXgXgXgXgXgXgXgXgXgXgX",
"gXgXgXgXgXgXgXgXgXgXgXgXgXgXgXgXgXgXgXgXgXgXgXgXgXgX$.<.| h . @ # i k ' O.XXgXgXgXgXgXgXgXgXgXgXgXgXgXgXgXgXgXgXgXgXgXgXgXgXgXgX",
"gXgXgXgXgXgXgXgXgXgXgXgXgXgXgXgXgXgXgXgXgXgXgXgXgXgXgX` ' 3 . $ 8 w z  .2.gXgXgXgXgXgXgXgXgXgXgXgXgXgXgXgXgXgXgXgXgXgXgXgXgXgXgX",
"gXgXgXgXgXgXgXgXgXgXgXgXgXgXgXgXgXgXgXgXgXgXgXgXgXgXgXgX' 3 a j D Y '  .gXgXgXgXgXgXgXgXgXgXgXgXgXgXgXgXgXgXgXgXgXgXgXgXgXgXgXgX",
"gXgXgXgXgXgXgXgXgXgXgXgXgXgXgXgXgXgXgXgXgXgXgXgXgXgXgX& 1 s a j M U ' :.gXgXgXgXgXgXgXgXgXgXgXgXgXgXgXgXgXgXgXgXgXgXgXgXgXgXgXgX",
"gXgXgXgXgXgXgXgXgXgXgXgXgXgXgXgXgXgXgXgXgXgXgXgXgXgX> 3 o a a 9 t n &.gXgXgXgXgXgXgXgXgXgXgXgXgXgXgXgXgXgXgXgXgXgXgXgXgXgXgXgXgX",
"gXgXgXgXgXgXgXgXgXgXgXgXgXgXgXgXgXgXgXgXgXgXgXgXgXgX3 3 d a % t y / gXgXgXgXgXgXgXgXgXgXgXgXgXgXgXgXgXgXgXgXgXgXgXgXgXgXgXgXgXgX",
"gXgXgXgXgXgXgXgXgXgXgXgXgXgXgXgXgXgXgXgXgXgXgXgXgX3 3 3 a a 6 7 V ( gXgXgXgXgXgXgXgXgXgXgXgXgXgXgXgXgXgXgXgXgXgXgXgXgXgXgXgXgXgX",
"gXgXgXgXgXgXgXgXgXgXgXgXgXgXgXgXgXgXgXgXgXgXgXgXgX; 3 3 a a t C ( A gXgXgXgXgXgXgXgXgXgXgXgXgXgXgXgXgXgXgXgXgXgXgXgXgXgXgXgXgXgX",
"gXgXgXgXgXgXgXgXgXgXgXgXgXgXgXgXgXgXgXgXgXgXgXgXgX, gX3 a a t N ( q gXgXgXgXgXgXgXgXgXgXgXgXgXgXgXgXgXgXgXgXgXgXgXgXgXgXgXgXgXgX",
"gXgXgXgXgXgXgXgXgXgXgXgXgXgXgXgXgXgXgXgXgXgXgXgXgX, gX3 = a 0 N ( q 5 gXgXgXgXgXgXgXgXgXgXgXgXgXgXgXgXgXgXgXgXgXgXgXgXgXgXgXgXgX",
"gXgXgXgXgXgXgXgXgXgXgXgXgXgXgXgXgXgXgXgXgXgXgXgXgXgXgX3 3 3 3 ( J 4 < 2 : gXgXgXgXgXgXgXgXgXgXgXgXgXgXgXgXgXgXgXgXgXgXgXgXgXgXgX",
"gXgXgXgXgXgXgXgXgXgXgXgXgXgXgXgXgXgXgXgXgXgXgXgXgXgXgXgX> 3 3 ( J 3 3 , gXgXgXgXgXgXgXgXgXgXgXgXgXgXgXgXgXgXgXgXgXgXgXgXgXgXgXgX",
"gXgXgXgXgXgXgXgXgXgXgXgXgXgXgXgXgXgXgXgXgXgXgXgXgXgXgXgXgX> , gXr 3 3 3 gXgXgXgXgXgXgXgXgXgXgXgXgXgXgXgXgXgXgXgXgXgXgXgXgXgXgXgX",
"gXgXgXgXgXgXgXgXgXgXgXgXgXgXgXgXgXgXgXgXgXgXgXgXgXgXgXgXgXgXgXT gX- 3 * gXgXgXgXgXgXgXgXgXgXgXgXgXgXgXgXgXgXgXgXgXgXgXgXgXgXgXgX",
"gXgXgXgXgXgXgXgXgXgXgXgXgXgXgXgXgXgXgXgXgXgXgXgXgXgXgXgXgXgXgXF gX  3 3 gXgXgXgXgXgXgXgXgXgXgXgXgXgXgXgXgXgXgXgXgXgXgXgXgXgXgXgX",
"gXgXgXgXgXgXgXgXgXgXgXgXgXgXgXgXgXgXgXgXgXgXgXgXgXgXgXgXgXgXgXH gX  3 3 gXgXgXgXgXgXgXgXgXgXgXgXgXgXgXgXgXgXgXgXgXgXgXgXgXgXgXgX",
"gXgXgXgXgXgXgXgXgXgXgXgXgXgXgXgXgXgXgXgXgXgXgXgXgXgXgXgXgXgXgXY gX+ 3 3 gXgXgXgXgXgXgXgXgXgXgXgXgXgXgXgXgXgXgXgXgXgXgXgXgXgXgXgX",
"gXgXgXgXgXgXgXgXgXgXgXgXgXgXgXgXgXgXgXgXgXgXgXgXgXgXgXgXgXgXgXG gX3 * gXgXgXgXgXgXgXgXgXgXgXgXgXgXgXgXgXgXgXgXgXgXgXgXgXgXgXgXgX",
"gXgXgXgXgXgXgXgXgXgXgXgXgXgXgXgXgXgXgXgXgXgXgXgXgXgXgXgXgXgXgXgX: & gXgXgXgXgXgXgXgXgXgXgXgXgXgXgXgXgXgXgXgXgXgXgXgXgXgXgXgXgXgX",
"gXgXgXgXgXgXgXgXgXgXgXgXgXgXgXgXgXgXgXgXgXgXgXgXgXgXgXgXgXgX* , gXgXgXgXgXgXgXgXgXgXgXgXgXgXgXgXgXgXgXgXgXgXgXgXgXgXgXgXgXgXgXgX",
"gXgXgXgXgXgXgXgXgXgXgXgXgXgXgXgXgXgXgXgXgXgXgXgXgXgXgXgXgX; 3 gXgXgXgXgXgXgXgXgXgXgXgXgXgXgXgXgXgXgXgXgXgXgXgXgXgXgXgXgXgXgXgXgX",
"gXgXgXgXgXgXgXgXgXgXgXgXgXgXgXgXgXgXgXgXgXgXgXgXgXgXgXgXgX& gXgXgXgXgXgXgXgXgXgXgXgXgXgXgXgXgXgXgXgXgXgXgXgXgXgXgXgXgXgXgXgXgXgX",
"gXgXgXgXgXgXgXgXgXgXgXgXgXgXgXgXgXgXgXgXgXgXgXgXgXgXgXgXgXgX* gXgXgXgXgXgXgXgXgXgXgXgXgXgXgXgXgXgXgXgXgXgXgXgXgXgXgXgXgXgXgXgXgX",
"gXgXgXgXgXgXgXgXgXgXgXgXgXgXgXgXgXgXgXgXgXgXgXgXgXgXgXgXgXgXgXgXgXgXgXgXgXgXgXgXgXgXgXgXgXgXgXgXgXgXgXgXgXgXgXgXgXgXgXgXgXgXgXgX",
"gXgXgXgXgXgXgXgXgXgXgXgXgXgXgXgXgXgXgXgXgXgXgXgXgXgXgXgXgXgXgXgXgXgXgXgXgXgXgXgXgXgXgXgXgXgXgXgXgXgXgXgXgXgXgXgXgXgXgXgXgXgXgXgX",
"gXgXgXgXgXgXgXgXgXgXgXgXgXgXgXgXgXgXgXgXgXgXgXgXgXgXgXgXgXgXgXgXgXgXgXgXgXgXgXgXgXgXgXgXgXgXgXgXgXgXgXgXgXgXgXgXgXgXgXgXgXgXgXgX",
"gXgXgXgXgXgXgXgXgXgXgXgXgXgXgXgXgXgXgXgXgXgXgXgXgXgXgXgXgXgXgXgXgXgXgXgXgXgXgXgXgXgXgXgXgXgXgXgXgXgXgXgXgXgXgXgXgXgXgXgXgXgXgXgX",
"gXgXgXgXgXgXgXgXgXgXgXgXgXgXgXgXgXgXgXgXgXgXgXgXgXgXgXgXgXgXgXgXgXgXgXgXgXgXgXgXgXgXgXgXgXgXgXgXgXgXgXgXgXgXgXgXgXgXgXgXgXgXgXgX",
"gXgXgXgXgXgXgXgXgXgXgXgXgXgXgXgXgXgXgXgXgXgXgXgXgXgXgXgXgXgXgXgXgXgXgXgXgXgXgXgXgXgXgXgXgXgXgXgXgXgXgXgXgXgXgXgXgXgXgXgXgXgXgXgX"
};
