/* XPM */
static char *_8810_86764b221c809d691865a4df9131ff801bb5e766d84c2abecbcff7c6123eda08[] = {
/* columns rows colors chars-per-pixel */
"64 64 225 2 ",
"   c #960E3F",
".  c #9D113E",
"X  c #9F113E",
"o  c #A3123D",
"O  c #AC153C",
"+  c #9A313F",
"@  c #AA3B3A",
"#  c #CE1F37",
"$  c #C11C39",
"%  c #C31C39",
"&  c #CD1F38",
"*  c #CE1F38",
"=  c #CD2037",
"-  c #CE2037",
";  c #CC2E37",
":  c #C42339",
">  c #CD2038",
",  c #CE2038",
"<  c #CC3638",
"1  c #A0403E",
"2  c #A4493E",
"3  c #AB483B",
"4  c #B55139",
"5  c #B2543A",
"6  c #B65739",
"7  c #B4563A",
"8  c #BA5A38",
"9  c #C94137",
"0  c #C34A37",
"q  c #C75236",
"w  c #C15F36",
"e  c #CB5039",
"r  c #C56336",
"t  c #C66C3E",
"y  c #C96A39",
"u  c #CB6E3B",
"i  c #CC703C",
"p  c #CD703C",
"a  c #CD713D",
"s  c #CF743E",
"d  c #8B0B40",
"f  c #8A0B41",
"g  c #8C0B40",
"h  c #901E50",
"j  c #A81B45",
"k  c #B42E40",
"l  c #A53544",
"z  c #B4325B",
"x  c #C42742",
"c  c #D62F47",
"v  c #D73148",
"b  c #BA5647",
"n  c #BF5E48",
"m  c #BF6741",
"M  c #BC6B4C",
"N  c #BD6D4F",
"B  c #A3615B",
"V  c #AD5478",
"C  c #AB7F73",
"Z  c #CB4056",
"A  c #D44D58",
"S  c #C56D41",
"D  c #C26C44",
"F  c #C46E44",
"G  c #D96344",
"H  c #CA7443",
"J  c #CD7543",
"K  c #CC7847",
"L  c #CD7B48",
"P  c #D17740",
"I  c #D37A41",
"U  c #D47D42",
"Y  c #DA8747",
"T  c #D6854A",
"R  c #D88649",
"E  c #DF8F4B",
"W  c #CD8352",
"Q  c #D18C58",
"!  c #E1924C",
"~  c #E1924D",
"^  c #C99672",
"/  c #D69D71",
"(  c #D7A075",
")  c #6E6AA0",
"_  c #6F6CA3",
"`  c #6868A5",
"'  c #6969A5",
"]  c #6A6AA6",
"[  c #6A6BA7",
"{  c #6C6DA7",
"}  c #6D6EA8",
"|  c #6D6FA9",
" . c #7072AA",
".. c #7273AB",
"X. c #7174AC",
"o. c #7376AD",
"O. c #7377AD",
"+. c #7578AE",
"@. c #7779AE",
"#. c #7B7DB0",
"$. c #7D7FB1",
"%. c #7E82B4",
"&. c #7F86B6",
"*. c #AA898B",
"=. c #AA8C90",
"-. c #A58F99",
";. c #A7919A",
":. c #8188B7",
">. c #8588B6",
",. c #8C8EB5",
"<. c #8A8DB9",
"1. c #8790BC",
"2. c #8992BD",
"3. c #8F93BC",
"4. c #8C96BF",
"5. c #9E9FB6",
"6. c #9396BE",
"7. c #AC9CA0",
"8. c #A89DA7",
"9. c #A29EB1",
"0. c #C5A2B4",
"q. c #8F99C1",
"w. c #929DC3",
"e. c #929DC4",
"r. c #939EC4",
"t. c #94A0C5",
"y. c #94A0C6",
"u. c #94A1C6",
"i. c #95A1C6",
"p. c #97A3C7",
"a. c #98A3C7",
"s. c #98A4C7",
"d. c #99A5C8",
"f. c #9BA6C9",
"g. c #9CA7CA",
"h. c #9DA8C9",
"j. c #9EAACA",
"k. c #9FAACA",
"l. c #A0ABCB",
"z. c #A4AAC8",
"x. c #A1ACCB",
"c. c #A1ACCC",
"v. c #A3AECC",
"b. c #A5AFCC",
"n. c #A5AFCD",
"m. c #ABADCC",
"M. c #ADAFCD",
"N. c #A5B0CD",
"B. c #A6B1CE",
"V. c #A7B2CE",
"C. c #AAB4CF",
"Z. c #A8B2D0",
"A. c #ACB6D0",
"S. c #ADB7D1",
"D. c #AEB7D3",
"F. c #AEB8D1",
"G. c #AFB8D2",
"H. c #B2B8D1",
"J. c #B0B9D2",
"K. c #B1BAD2",
"L. c #B2BCD2",
"P. c #B3BBD5",
"I. c #B4BDD4",
"U. c #B7BED4",
"Y. c #B7BFD5",
"T. c #B7C0D5",
"R. c #B8C1D6",
"E. c #B9C2D6",
"W. c #BAC2D6",
"Q. c #B9C0D8",
"!. c #BDC5D8",
"~. c #BDC6D8",
"^. c #C3C4D5",
"/. c #C0C8D9",
"(. c #C0C8DA",
"). c #C0C9DA",
"_. c #C1CADA",
"`. c #C3CADA",
"'. c #C2CBDA",
"]. c #C3CBDB",
"[. c #C6CADC",
"{. c #C5CDDC",
"}. c #C6CEDD",
"|. c #C6CDDF",
" X c #C8CFE0",
".X c #CDD4E1",
"XX c #D1D7E3",
"oX c #D3D3E4",
"OX c #D7D7E6",
"+X c #D3D8E4",
"@X c #D4DAE4",
"#X c #D4DAE5",
"$X c #D8DDE7",
"%X c #DBE0E9",
"&X c #DEE1EC",
"*X c #DFE3EE",
"=X c #E1E5EC",
"-X c #E3E6ED",
";X c #E2E5EE",
":X c #E3E7EE",
">X c #E4E4EE",
",X c #E6E9EF",
"<X c #E6E8F0",
"1X c #E7EAF0",
"2X c #EAECF2",
"3X c #EBEEF2",
"4X c #EDEFF3",
"5X c #EEF0F4",
"6X c #F0F1F5",
"7X c #F1F2F5",
"8X c #F1F3F6",
"9X c #F2F2F6",
"0X c #F2F3F6",
"qX c #F2F4F7",
"wX c #F3F5F7",
"eX c #F4F5F7",
"rX c #F9F0F0",
"tX c #FAF5F1",
"yX c #F5F6F8",
"uX c #F6F7F8",
"iX c #F8F8F9",
"pX c #F8F9FA",
"aX c #FBFBFB",
"sX c gray99",
"dX c None",
/* pixels */
"dXdXdXdXdXdXdXdXdXdXdXdXdXdXdXdXdXdXdXdXdXdXdXdXdXdXdXdXdXdXdXdXdXdXdXdXdXdXdXdXdXdXdXdXdXdXdXdXdXdXdXdXdXdXdXdXdXdXdXdXdXdXdXdX",
"dXdXdXdXdXdXdXdXdXdXdXdXdXdXdXdXdXdXdXdXdXdXdXdXdXdXdXdXdXdXdXdXdXdXdXdXdXdXdXdXdXdXdXdXdXdXdXdXdXdXdXdXdXdXdXdXdXdXdXdXdXdXdXdX",
"dXdXdXdXdXdXdXdXdXdXdXdXdXdXdXdXdXdXdXdXdXdXdXdXdXdXdXdXdXdXdXdXdXdXdXdXdXdXdXdXdXdXdXdXdXdXdXdXdXdXdXdXdXdXdXdXdXdXdXdXdXdXdXdX",
"dXdXdXdXdXdXdXdXdXdXdXdXdXdXdXdXdXdXdXdXdXdXdXdXdXdXdXdXdXdXdXdXdXdXdXdXdXdXdXdXdXdXdXdXdXdXdXdXdXdXdXdXdXdXdXdXdXdXdXdXdXdXdXdX",
"dXdXdXdXdXdXdXdXdXdXdXdXdXdXdXdXdXdXdXdXdXdXdXdXdXdXdXdXdXdXdXdXdXdXdXdXdXdXdXdXdXdXdXdXdXdXdXdXdXdXdXdXdXdXdXdXdXdXdXdXdXdXdXdX",
"dXdXdXdXdXdXdXdXdXdXdXdXdXdXdXdXdXdXdXdXdXdXdXdXdXdXdXdXdXdXdXdXdXdXdXdXdXdXdXdXdXdXdXdXdXdXdXdXdXdXdXdXdXdXdXdXdXdXdXdXdXdXdXdX",
"dXdXdXdXdXdXdXdXdXdXdXdXdXdXdXdXdXdXdXdXdXdXdXdXdXdXdXdXdXdXdXdXdXdXdXdXdXdXdXdXdXdXdXdXdXdXdXdXdXdXdXdXdXdXdXdXdXdXdXdXdXdXdXdX",
"dXdXdXdXdXdXdXdXdXdXdXdXdXdXdXdXdXdXdXdXdXdXdXdXdXdXdXdXdXdXdXdXdXdXdXdXdXdXdXdXdXdXdXdXdXdXdXdXdXdXdXdXdXdXdXdXdXdXdXdXdXdXdXdX",
"dXdXdXdXdXdXdXdXdXdXdXdXdXdXdXdXdXdXdXdXdXdXdXdXdXdXdXdXdXdXdXdXdXdXdXdXdXdXdXdXdXdXdXdXdXdXdXdXdXdXdXdXdXdXdXdXdXdXdXdXdXdXdXdX",
"dXdXdXdXdXdXdXdXdXdXdXdXdXdXdXdXdXdXdXdXdXdXdXdXdXdXdXdXdXdXdXdXdXdXdXdXdXdXdXdXdXdXdXdXdXdXdXdXdXdXdXdXdXdXdXdXdXdXdXdXdXdXdXdX",
"dXdXdXdXdXdXdXdXdXdXdXdXdXdXdXdXdXdXdXdXdXdXdXdXdXdXdXdXdXdXdXdXdXdXdXdXdXdXdXdXdXdXdXdXdXdXdXdXdXdXdXdXdXdXdXdXdXdXdXdXdXdXdXdX",
"dXdXdXdXdXdXdXdXdXdXdXdXdXdXdXdXdXdXdXdXdXdXdXdXdXdXdXdXdXdXdXdXdXdXdXdXdXdXdXdXdXdXdXdXdXdXdXdXdXdXdXdXdXdXdXdXdXdXdXdXdXdXdXdX",
"dXdXdXdXdXdXdXdXdXdXdXdXdXdXdXdXdXdXdXdXdXdXdXdXdXdXdXdXdXdXdXdXdXdXdXdXdXdXdXdXdXdXdXdXdXdXdXdXdXdXdXdXdXdXdXdXdXdXdXdXdXdXdXdX",
"dXdXdXdXdXdXdXdXdXdXdXdXdXdXdXdXdXdXdXdXdXdXdXdXdXdXdXdXdXdXdXdXdXdXdXdXdXdXdXdXdXdXdXdXdXdXdXdXdXdXdXdXdXdXdXdXdXdXdXdXdXdXdXdX",
"dXdXdXdXdXdXdXdXdXdXdXdXdXdXdXdXdXdXdXdXdXdXdXdXdXdXdXdXdXdXdXdXdXdXdXdXdXdXdXdXdXdXdXdXdXdXdXdXdXdXdXdXdXdXdXdXdXdXdXdXdXdXdXdX",
"dXdXdXdXdXdXdXdXdXdXdXdXdXdXdXdXdXdXdXdXdXdXdXdXdXdXdXdXdXdXdXdXdXdXdXdXdXdXdXdXdXdXdXdXdXdXdXdXdXdXdXdXdXdXdXdXdXdXdXdXdXdXdXdX",
"dXdXdXdXdXdXdXdXdXdXdXdXdXdXdXdXdXdXdXdXdXdXdXdXdXdXdXdXdXdXdXdXdXdXdXdXdXdXdXdXdXdXdXdXdXdXdXdXdXdXdXdXdXdXdXdXdXdXdXdXdXdXdXdX",
"dXdXdXdXdXdXdXdXdXdXdXdXdXdXdXdXdXdXdXdXdXdXdXdXdXdXdXdXdXdXdXdXdXdXdXdXdXdXdXdXdXdXdXdXdXdXdXdXdXdXdXdXdXdXdXdXdXdXdXdXdXdXdXdX",
"dXdXdXdXdXdXdXdXdXdXdXdXdXdXdXdXdXdXdXdXdXdXdXdXdXdXdXdXdXdXdXdXdXdXdXdXdXdXdXdXdXdXdXdXdXdXdXdXdXdXdXdXdXdXdXdXdXdXdXdXdXdXdXdX",
"dXdXdXdXdXdXdXdXdXdXdXdXdXdXdXdXdXdXdXdXdXdXdXdXdXdXsXsXdXdXdXdXdXdXdXdXyXsXdXdXdXdXdXdXdXdXdXdXdXdXdXdXdXdXdXdXdXdXdXdXdXdXdXdX",
"dXdXdXdXdXdXdXdXdXdXdXdXdXdXdXdXdXdXsXsXsXsXsXsXsXsXsXsXsXsXdXdXdXdXaXiXpXsXsXsXsXsXsXsXsXaXdXdXdXdXdXdXdXdXdXdXdXdXdXdXdXdXdXdX",
"dXdXdXdXdXdXdXdXdXdXdXdXdXdXdXdXsXsXsXsXsXsXsXsXsXsXsXXXwXsXsXdXdXsXsXuXXXXXXXXX5XsXsXsXsXsXsXsXdXdXdXdXdXdXdXdXdXdXdXdXdXdXdXdX",
"dXdXdXdXdXdXdXdXdXdXdXdXdXsXsXsXsXsXsXsX1X$X$X$X<.` ` ` <.<.$.dXdXsX+X>.` ` ` <.[.$X$XsXsXsXsXsXsXsXsXdXdXdXdXdXdXdXdXdXdXdXdXdX",
"dXdXdXdXdXdXdXdXdXdXdXsXeX Xy.y.%X%X:XsXOXM.` ` ` ` ` ` ` ` ` dXdX8X].` ` ` ` ` ` ` m.oXsX=X%X%Xg.y.|.0XsXdXdXdXdXdXdXdXdXdXdXdX",
"dXdXdXdXdXdXdXdXdXdXdXy.y.dXdXsXsXsXsX>X` ` ` ` ` ` ` ` ` @.z.dXdXdX.X#.` ` X.o.o.o.o.&.2XsXsXsXsXdXdXy.y.dXdXdXdXdXdXdXdXdXdXdX",
"dXdXdXdXdXdXdXdXdXdXdXdXdXdXaX].}.8X9X` ` ' [ +.t.` ` ` H.dXdXdXdXdXdXU.` ` ` t.i.i.i.i.i.yXyX}.].aXdXdXdXdXdXdXdXdXdXdXdXdXdXdX",
"dXdXdXdXdXdXdXdXdXdXdXdXdXsX(.iXsXsX` ` w.r.i.i.] ` w.Y.dXdXdXdXdXdXdXdXW.e.w.] 1.i.i.i.i.i.sXsXpX~.sXdXdXdXdXdXdXdXdXdXdXdXdXdX",
"dXdXdXdXdXdXdXdXdXdXdXdX5XD.c.sXsX%.:.i.i.i.i.4.2.i.i.dXdXdXdXdXdXdXdXdXdXp.i.i.i.i.i.i.i.i.a.sXsXZ.D.3XdXdXdXdXdXdXdXdXdXdXdXdX",
"dXdXdXdXdXdXdXdXdXdXdX<XN.dXsXsXf.:.i.i.F.A.x.i.i.J.3.dXdXdXdXdXdXdXdXdXdX6.K.i.i.l.A.F.i.u.i.i.sXsXdXb.;XdXdXdXdXdXdXdXdXdXdXdX",
"dXdXdXdXdXdXdXdXdXdX*XL.dXdXsXsXi.dXdX].E.n.i.i.h.w.` dXdXdXdXA k dXdXdXdX} q.l.i.i.v.R.].dXdXi.yXsXdXdXG.&XdXdXdXdXdXdXdXdXdXdX",
"dXdXdXdXdXdXdXdXdXdXdXdXdXsXsXsXdXdX].3Xi.i.i.p.i.1.` dXdXdXj ~ ~ h dXdXdX} q.i.s.i.i.i.5X`.dXdXsXsXsXdXdXdXdXdXdXdXdXdXdXdXdXdX",
"dXdXdXdXdXdXdXdXdXdXdXdXdXsXsXdXdXdX{.Q.i.t.dXT.4...[ ` tXrXz ~ ~ V tXtX` ` { i.I.dXt.i.P.{.dXdXdXaXsXdXdXdXdXdXdXdXdXdXdXdXdXdX",
"dXdXdXdXdXdXdXdXdXdXdXdXdXsXdXdXdXdX4Xi.dXdX'.T.O./.i.Q p < o b n l Y u Q ) U.i.I.`.dXdXi.7XdXdXdXdXsXdXdXdXdXdXdXdXdXdXdXdXdXdX",
"dXdXdXdXdXdXdXdXdXdXdXdXsX#XdXdXdXdXdXdXdXdX].k.5.( a ;.,.x o 3 1 t B _ -.J / 9.j.].dXdXdXdXdXdXdXdX@XsXdXdXdXdXdXdXdXdXdXdXdXdX",
"dXdXdXdXdXdXdXdXdXdXdXdXqXdXdXdXdXdXdXdXdXdXx.8.D *.F.B.C.c o i 5 S `  .V.S.=.F 7.l.dXdXdXdXdXdXdXdXdX6XdXdXdXdXdXdXdXdXdXdXdXdX",
"dXdXdXdXdXdXdXdXdXdXdXsXdXdXdXdXdXdXdXdXdXdXdXdXM _.i.i.i.v o ~ P W ` | i.i.).N dXdXdXdXdXdXdXdXdXdXdXdXsXdXdXdXdXdXdXdXdXdXdXdX",
"dXdXdXdXdXdXdXdXdXdXdX,XdXdXdXdXdXdXdXdXdXdXdXdX^.0., , , , o R m C ] d.h.i.!.].dXdXdXdXdXdXdXdXdXdXdXdX-XdXdXdXdXdXdXdXdXdXdXdX",
"dXdXdXdXdXdXdXdXdXdXdXsXdXdXdXdXdXdXdXdXdXdXdXdXZ , , , , , f 7 r ^ i.i.].dXdX].dXdXdXdXdXdXdXdXdXdXdXdXaXdXdXdXdXdXdXdXdXdXdXdX",
"dXdXdXdXdXdXdXdXdXdXdXdXdXdXdXdXdXdXdXdXdXdXdXdXdX> , , . g @ 6 s ! dXdX].dXdXdXdXdXdXdXdXdXdXdXdXdXdXdXdXdXdXdXdXdXdXdXdXdXdXdX",
"dXdXdXdXdXdXdXdXdXdXdXdXdXdXdXdXdXdXdXdXdXdXdXdXdX, , g f f 4 7 T ~ dXdXdXdXdXdXdXdXdXdXdXdXdXdXdXdXdXdXdXdXdXdXdXdXdXdXdXdXdXdX",
"dXdXdXdXdXdXdXdXdXdXdXdXdXdXdXdXdXdXdXdXdXdXdXdXdX, O f f f r H ~ L dXdXdXdXdXdXdXdXdXdXdXdXdXdXdXdXdXdXdXdXdXdXdXdXdXdXdXdXdXdX",
"dXdXdXdXdXdXdXdXdXdXdXdXdXdXdXdXdXdXdXdXdXdXdXdXdX, X f f f w K ~ 8 dXdXdXdXdXdXdXdXdXdXdXdXdXdXdXdXdXdXdXdXdXdXdXdXdXdXdXdXdXdX",
"dXdXdXdXdXdXdXdXdXdXdXdXdXdXdXdXdXdXdXdXdXdXdXdXdX, , d f f 2 ~ U 0 , * dXdXdXdXdXdXdXdXdXdXdXdXdXdXdXdXdXdXdXdXdXdXdXdXdXdXdXdX",
"dXdXdXdXdXdXdXdXdXdXdXdXdXdXdXdXdXdXdXdXdXdXdXdXdX, , ,   f + ~ U , , dXdXdXdXdXdXdXdXdXdXdXdXdXdXdXdXdXdXdXdXdXdXdXdXdXdXdXdXdX",
"dXdXdXdXdXdXdXdXdXdXdXdXdXdXdXdXdXdXdXdXdXdXdXdXdXdX, , % $ : G e , , , dXdXdXdXdXdXdXdXdXdXdXdXdXdXdXdXdXdXdXdXdXdXdXdXdXdXdXdX",
"dXdXdXdXdXdXdXdXdXdXdXdXdXdXdXdXdXdXdXdXdXdXdXdXdXdXdXdX> , , 9 ; , , , - dXdXdXdXdXdXdXdXdXdXdXdXdXdXdXdXdXdXdXdXdXdXdXdXdXdXdX",
"dXdXdXdXdXdXdXdXdXdXdXdXdXdXdXdXdXdXdXdXdXdXdXdXdXdXdXdXdXdXdXq dXdX, , - dXdXdXdXdXdXdXdXdXdXdXdXdXdXdXdXdXdXdXdXdXdXdXdXdXdXdX",
"dXdXdXdXdXdXdXdXdXdXdXdXdXdXdXdXdXdXdXdXdXdXdXdXdXdXdXdXdXdXdXy dXdX, , dXdXdXdXdXdXdXdXdXdXdXdXdXdXdXdXdXdXdXdXdXdXdXdXdXdXdXdX",
"dXdXdXdXdXdXdXdXdXdXdXdXdXdXdXdXdXdXdXdXdXdXdXdXdXdXdXdXdXdXdXE dXdX, , dXdXdXdXdXdXdXdXdXdXdXdXdXdXdXdXdXdXdXdXdXdXdXdXdXdXdXdX",
"dXdXdXdXdXdXdXdXdXdXdXdXdXdXdXdXdXdXdXdXdXdXdXdXdXdXdXdXdX# dXI dXdX, , dXdXdXdXdXdXdXdXdXdXdXdXdXdXdXdXdXdXdXdXdXdXdXdXdXdXdXdX",
"dXdXdXdXdXdXdXdXdXdXdXdXdXdXdXdXdXdXdXdXdXdXdXdXdXdXdXdXdX= , - - , # dXdXdXdXdXdXdXdXdXdXdXdXdXdXdXdXdXdXdXdXdXdXdXdXdXdXdXdXdX",
"dXdXdXdXdXdXdXdXdXdXdXdXdXdXdXdXdXdXdXdXdXdXdXdXdXdXdXdXdXdXdXdXdX& dXdXdXdXdXdXdXdXdXdXdXdXdXdXdXdXdXdXdXdXdXdXdXdXdXdXdXdXdXdX",
"dXdXdXdXdXdXdXdXdXdXdXdXdXdXdXdXdXdXdXdXdXdXdXdXdXdXdXdXdXdXdXdX= dXdXdXdXdXdXdXdXdXdXdXdXdXdXdXdXdXdXdXdXdXdXdXdXdXdXdXdXdXdXdX",
"dXdXdXdXdXdXdXdXdXdXdXdXdXdXdXdXdXdXdXdXdXdXdXdXdXdXdXdXdXdXdXdXdXdXdXdXdXdXdXdXdXdXdXdXdXdXdXdXdXdXdXdXdXdXdXdXdXdXdXdXdXdXdXdX",
"dXdXdXdXdXdXdXdXdXdXdXdXdXdXdXdXdXdXdXdXdXdXdXdXdXdXdXdXdXdXdXdXdXdXdXdXdXdXdXdXdXdXdXdXdXdXdXdXdXdXdXdXdXdXdXdXdXdXdXdXdXdXdXdX",
"dXdXdXdXdXdXdXdXdXdXdXdXdXdXdXdXdXdXdXdXdXdXdXdXdXdXdXdXdXdXdXdXdXdXdXdXdXdXdXdXdXdXdXdXdXdXdXdXdXdXdXdXdXdXdXdXdXdXdXdXdXdXdXdX",
"dXdXdXdXdXdXdXdXdXdXdXdXdXdXdXdXdXdXdXdXdXdXdXdXdXdXdXdXdXdXdXdXdXdXdXdXdXdXdXdXdXdXdXdXdXdXdXdXdXdXdXdXdXdXdXdXdXdXdXdXdXdXdXdX",
"dXdXdXdXdXdXdXdXdXdXdXdXdXdXdXdXdXdXdXdXdXdXdXdXdXdXdXdXdXdXdXdXdXdXdXdXdXdXdXdXdXdXdXdXdXdXdXdXdXdXdXdXdXdXdXdXdXdXdXdXdXdXdXdX",
"dXdXdXdXdXdXdXdXdXdXdXdXdXdXdXdXdXdXdXdXdXdXdXdXdXdXdXdXdXdXdXdXdXdXdXdXdXdXdXdXdXdXdXdXdXdXdXdXdXdXdXdXdXdXdXdXdXdXdXdXdXdXdXdX",
"dXdXdXdXdXdXdXdXdXdXdXdXdXdXdXdXdXdXdXdXdXdXdXdXdXdXdXdXdXdXdXdXdXdXdXdXdXdXdXdXdXdXdXdXdXdXdXdXdXdXdXdXdXdXdXdXdXdXdXdXdXdXdXdX",
"dXdXdXdXdXdXdXdXdXdXdXdXdXdXdXdXdXdXdXdXdXdXdXdXdXdXdXdXdXdXdXdXdXdXdXdXdXdXdXdXdXdXdXdXdXdXdXdXdXdXdXdXdXdXdXdXdXdXdXdXdXdXdXdX",
"dXdXdXdXdXdXdXdXdXdXdXdXdXdXdXdXdXdXdXdXdXdXdXdXdXdXdXdXdXdXdXdXdXdXdXdXdXdXdXdXdXdXdXdXdXdXdXdXdXdXdXdXdXdXdXdXdXdXdXdXdXdXdXdX",
"dXdXdXdXdXdXdXdXdXdXdXdXdXdXdXdXdXdXdXdXdXdXdXdXdXdXdXdXdXdXdXdXdXdXdXdXdXdXdXdXdXdXdXdXdXdXdXdXdXdXdXdXdXdXdXdXdXdXdXdXdXdXdXdX",
"dXdXdXdXdXdXdXdXdXdXdXdXdXdXdXdXdXdXdXdXdXdXdXdXdXdXdXdXdXdXdXdXdXdXdXdXdXdXdXdXdXdXdXdXdXdXdXdXdXdXdXdXdXdXdXdXdXdXdXdXdXdXdXdX"
};
