/* XPM */
static char *_3040_37d6e057a5957be983fbacfe70316d1a3e79ff2aab113341fbbd9060cf4fa1e9[] = {
/* columns rows colors chars-per-pixel */
"64 64 87 1 ",
"  c #1A1725",
". c #251B28",
"X c #261F2C",
"o c #321B2C",
"O c #3F1E2D",
"+ c #3B232F",
"@ c #262331",
"# c #4F222F",
"$ c #59242F",
"% c #462732",
"& c #4F2635",
"* c #402F3B",
"= c #552330",
"- c #5D2430",
"; c #582A38",
": c #5E2F3A",
"> c #4B333E",
", c #672731",
"< c #6B2831",
"1 c #6D2A33",
"2 c #732A32",
"3 c #772B33",
"4 c #7F2D34",
"5 c #61303A",
"6 c #7A3039",
"7 c #4C3742",
"8 c #533240",
"9 c #5D3441",
"0 c #5E3A47",
"q c #7E3B43",
"w c #4A4955",
"e c #674751",
"r c #6E4952",
"t c #812D35",
"y c #832E35",
"u c #893037",
"i c #80333B",
"p c #973338",
"a c #9B3439",
"s c #A3363A",
"d c #A7373B",
"f c #A9393D",
"g c #883840",
"h c #9E3E43",
"j c #AE3D41",
"k c #B03F43",
"l c #8E4047",
"z c #86434B",
"x c #984249",
"c c #84555E",
"v c #915058",
"b c #A0474E",
"n c #A9484D",
"m c #B54B4F",
"M c #BC494D",
"N c #A04A50",
"B c #A64850",
"V c #B34B51",
"C c #B64F53",
"Z c #8C5F67",
"A c #9D6870",
"S c #B46165",
"D c #B2777D",
"F c #B8787F",
"G c #BB797F",
"H c #C34F53",
"J c #C55155",
"K c #C35459",
"L c #CD585C",
"P c #D16467",
"I c #D3686B",
"U c #C57B80",
"Y c #C97C81",
"T c #D57F83",
"R c #B0858B",
"E c #A1979F",
"W c #AD9AA1",
"Q c #ABADB5",
"! c #BEB1B8",
"~ c #DF888B",
"^ c #E5989B",
"/ c #D0A7AD",
"( c #CEB5BB",
") c #E2A9AD",
"_ c #DECDD3",
"` c #CFD2D9",
"' c #DCDFE6",
/* pixels */
"''''''''''''''''''''''''''''''''''''''''''''''''''''''''''''''''",
"''''''''''''''''''''''''''''''''''''''''''''''''''''''''''''''''",
"''`QQQQQQQQQQQQQQQQQQQQQQQQQQQQQQQQQQQQQQQQQQQQQQQQQQQQQQQQQQ`''",
"''Q                                                          Q''",
"''Q                                                          Q''",
"''Q                                  ZDDDDRQQQQQ             Q''",
"''Q                                  D^^^^)'''''             Q''",
"''Q                                  D^^^^)'''''             Q''",
"''Q             ^^^^^^^^          7^^0oo,,,,,pdd''Q          Q''",
"''Q             ^^^^^^^^          7^^0oo,,,,,pdd''Q          Q''",
"''Q          *77UUUUUGFF77777X  77eFF9OO,,<33add((Www@       Q''",
"''Q          D^^,,,,,Ooo^^^^^7  ^^Foo$,,,,3dddddddS''w       Q''",
"''Q          D^^,,,,,Ooo^^^^^7  ^^Foo$,,,,3dddddddS''w       Q''",
"''Q       *DDvzz,,,,,tuuCCN00ADD008oo$,,ppaddMHHddhccEQQ     Q''",
"''Q       7^^z,,,,,,,pdddduooF^^ooooo$,,dddddHLLddp,,!''     Q''",
"''Q       7^^z,,,,,,,pdddduooF^^ooooo$,,dddddHLLddp,,!''     Q''",
"''Q     ^^Foo$,,,,3dddddddddddddooO,,pddddC^^ILLLLHdd(''     Q''",
"''Q     ^^Foo$,,,,3dddddddddddddooO,,pddddC^^ILLLLHdd(''     Q''",
"''Q     ^^GOO-,,33yddddddddddddd##=,,pddddm~~PLLLLHdd(''     Q''",
"''Q     ^^U,,,,,ddddddddddddddddddp,,pddddkLLLLLLLHdd(''     Q''",
"''Q     ^^U,,,,,ddddddddddddddddddp,,pddddkLLLLLLLHdd(''     Q''",
"''Q     ^^U,,,,,ddddddddddddddddddspp433ddfkkJLLkkjdd(''     Q''",
"''Q     ^^U,,,,,ddddddddddddddddddddd3,,dddddHLLddddd(''     Q''",
"''Q     ^^U,,,,,ddddddddddddddddddddd3,,dddddHLLddddd(''     Q''",
"''Q     LLV,,,,,,,3dddddddddddddddddddddddddddddddddd(''     Q''",
"''Q     LLV,,,,,,,3dddddddddddddddddddddddddddddddddd(''     Q''",
"''Q     LLV,,,,,,,3dddddddddddddddddddddddddddddddddd/__     Q''",
"''Q     LLV,,,,,,,3ddddddddddddddddddddddddddddddddddT^^     Q''",
"''Q     LLV,,,,,,,3ddddddddddddddddddddddddddddddddddT^^     Q''",
"''Q     %%5VV6,,,,<33adddddddddddddddddddddddddddda33Y^^     Q''",
"''Q       %LLi,,,,,,,pddddddddddddddddddddddddddddp,,U^^     Q''",
"''Q       %LLi,,,,,,,pddddddddddddddddddddddddddddp,,U^^     Q''",
"''Q       %LLi,,,,,,,,,,ddddddddddddddddddddddddddC^^7       Q''",
"''Q       %LLi,,,,,,,,,,ddddddddddddddddddddddddddC^^7       Q''",
"''Q       +bbgii,,,,,,,,pppppsddddddddddddddddddppn~~>       Q''",
"''Q          bLL,,,,,,,,,,,,,pdddddddddddddddddd,,iLL%       Q''",
"''Q          bLL,,,,,,,,,,,,,pdddddddddddddddddd,,iLL%       Q''",
"''Q          +%%VVVVV6,,,,,,,233ddddddddddddddddVVx%%.       Q''",
"''Q             LLLLLi,,,,,,,,,,ddddddddddddddddLLb          Q''",
"''Q             LLLLLi,,,,,,,,,,ddddddddddddddddLLb          Q''",
"''Q                  bLLLLV,,,,,,,3dddddddddd3,,^^D          Q''",
"''Q                  bLLLLV,,,,,,,3dddddddddd3,,^^D          Q''",
"''Q                  qbbbbxii1,,,,2ppsdddddddlzzDDZ          Q''",
"''Q                       %LLi,,,,,,,pdddddddT^^             Q''",
"''Q                       %LLi,,,,,,,pdddddddT^^             Q''",
"''Q                       .%%xVV,,,,,23333lTTr77             Q''",
"''Q                          bLL,,,,,,,,,,z^^7               Q''",
"''Q                          bLL,,,,,,,,,,z^^7               Q''",
"''Q                             LLBooooo^^D                  Q''",
"''Q                             LLBooooo^^D                  Q''",
"''Q                             LLBoo&;;DDZ                  Q''",
"''Q                             LLBooBLL                     Q''",
"''Q                             LLBooBLL                     Q''",
"''Q                             LLKBB:%%                     Q''",
"''Q                             LLLLL%                       Q''",
"''Q                             LLLLL%                       Q''",
"''Q                                                          Q''",
"''Q                                                          Q''",
"''Q                                                          Q''",
"''Q                                                          Q''",
"''Q                                                          Q''",
"''`QQQQQQQQQQQQQQQQQQQQQQQQQQQQQQQQQQQQQQQQQQQQQQQQQQQQQQQQQQ`''",
"''''''''''''''''''''''''''''''''''''''''''''''''''''''''''''''''",
"''''''''''''''''''''''''''''''''''''''''''''''''''''''''''''''''"
};
