/* XPM */
static char *_aafb38c461245f4feb73a0558a708f9zzGetyg12otb3EoG[] = {
/* columns rows colors chars-per-pixel */
"64 64 221 2 ",
"   c None",
".  c #361E2A",
"X  c #36222C",
"o  c #38282E",
"O  c #3B2B33",
"+  c #372536",
"@  c #373431",
"#  c #3E3233",
"$  c #373C35",
"%  c #3C383A",
"&  c #413C37",
"*  c #423D3B",
"=  c #3C4438",
"-  c #3B4C3B",
";  c #3B4137",
":  c #39533D",
">  c #3C5B3D",
",  c #3F613D",
"<  c #42643D",
"1  c #436A3E",
"2  c #46733E",
"3  c #497A3E",
"4  c #4A763C",
"5  c #54793B",
"6  c #465A39",
"7  c #3D324B",
"8  c #3F3554",
"9  c #3F3759",
"0  c #3A2A40",
"q  c #3F3961",
"w  c #3E3B6D",
"e  c #3F3D73",
"r  c #413B45",
"t  c #42394A",
"y  c #413B56",
"u  c #423C61",
"i  c #3B4A44",
"p  c #3F594D",
"a  c #3B5449",
"s  c #3C5658",
"d  c #3C4955",
"f  c #3C546D",
"g  c #3D5575",
"h  c #3C486A",
"j  c #464546",
"k  c #494C4E",
"l  c #444659",
"z  c #475B57",
"x  c #435B4B",
"c  c #486A49",
"v  c #497745",
"b  c #4A6154",
"n  c #4B7B51",
"m  c #487451",
"M  c #517258",
"N  c #517E4D",
"B  c #484766",
"V  c #4D5862",
"C  c #4D5667",
"Z  c #40417D",
"A  c #424776",
"S  c #525B78",
"D  c #4E586B",
"F  c #486569",
"G  c #486A75",
"H  c #516172",
"J  c #576E78",
"K  c #546A79",
"L  c #58737C",
"P  c #546D71",
"I  c #64726B",
"U  c #5C9F2F",
"Y  c #4E833A",
"T  c #538C36",
"R  c #508739",
"E  c #559234",
"W  c #599A31",
"Q  c #5A993A",
"!  c #66A43F",
"~  c #5B8556",
"^  c #5C9B48",
"/  c #6BA649",
"(  c #65A147",
")  c #72A55E",
"_  c #568D6E",
"`  c #698B73",
"'  c #7FA97B",
"]  c #3E5388",
"[  c #3F5592",
"{  c #414382",
"}  c #41478D",
"|  c #434C8C",
" . c #49568E",
".. c #535B84",
"X. c #414A96",
"o. c #414B9C",
"O. c #455796",
"+. c #596B88",
"@. c #5C7B84",
"#. c #5E7C8A",
"$. c #587386",
"%. c #456491",
"&. c #5D6D92",
"*. c #5E6E9A",
"=. c #5C7B96",
"-. c #4A6E8D",
";. c #6A7B84",
":. c #61769D",
">. c #617D99",
",. c #676290",
"<. c #424EA7",
"1. c #4457A5",
"2. c #4254B4",
"3. c #4255BC",
"4. c #4559B6",
"5. c #5873A7",
"6. c #5B75BF",
"7. c #5B75B9",
"8. c #4D67B4",
"9. c #667EAB",
"0. c #6878A6",
"q. c #627CBB",
"w. c #4357C3",
"e. c #455CC4",
"r. c #4C62C1",
"t. c #4D6CCB",
"y. c #4965C7",
"u. c #536AC0",
"i. c #556ACA",
"p. c #4E70CC",
"a. c #5377CD",
"s. c #557ED2",
"d. c #6A7CCD",
"f. c #5D979C",
"g. c #588D9F",
"h. c #62809B",
"j. c #74878D",
"k. c #5B8CA8",
"l. c #5B8DB7",
"z. c #6583A6",
"x. c #6582AC",
"c. c #6885AF",
"v. c #7F8BA4",
"b. c #6A86B5",
"n. c #6986BB",
"m. c #6C89BD",
"M. c #6782B8",
"N. c #6697B1",
"B. c #5D89CD",
"V. c #5E94CA",
"C. c #5783D4",
"Z. c #5B8BD6",
"A. c #5E92D9",
"S. c #6989C4",
"D. c #748DC4",
"F. c #6694CE",
"G. c #7A93C5",
"H. c #7792C7",
"J. c #6095DA",
"K. c #629ADD",
"L. c #699DDF",
"P. c #6397D5",
"I. c #7193D6",
"U. c #6D9EE0",
"Y. c #74A2E2",
"T. c #7DA5E5",
"R. c #6FA1E0",
"E. c #73A1DD",
"W. c #828BA4",
"Q. c #879CAC",
"!. c #8A95B3",
"~. c #8E8FB4",
"^. c #92A4B7",
"/. c #93A79F",
"(. c #A5C4A0",
"). c #889CC9",
"_. c #879AD3",
"`. c #9BA2CE",
"'. c #99ABD5",
"]. c #94A5D8",
"[. c #8DAAD3",
"{. c #A6B2D5",
"}. c #83A6E8",
"|. c #8AABEA",
" X c #83AAE4",
".X c #93ACED",
"XX c #99AEEE",
"oX c #98A9E4",
"OX c #92B5E9",
"+X c #9AB8EB",
"@X c #9EB1F1",
"#X c #8CB2E8",
"$X c #A8ABE6",
"%X c #ADB8E2",
"&X c #A2B3F2",
"*X c #AFB6F7",
"=X c #A8BAF2",
"-X c #B4BAF8",
";X c #B6BAF8",
":X c #B1B6EB",
">X c #A9C2EE",
",X c #BCC4EA",
"<X c #B7C1E5",
"1X c #BEC1FA",
"2X c #B4C4F4",
"3X c #AEC5F1",
"4X c #C6CDEF",
"5X c #C1C8E3",
"6X c #D3DAE9",
"7X c #C3C5FA",
"8X c #CBCCFC",
"9X c #C5CBF7",
"0X c #D4D9F6",
"qX c #D3D4FD",
"wX c #D2DAFA",
"eX c #DBDDFD",
"rX c #D3D7F5",
"tX c #CBD4EF",
"yX c #DFE0FE",
"uX c #E3E4FF",
"iX c #C0CFD0",
/* pixels */
"                                                  U U U U U U U U U U U U -.w.                                                  ",
"                                        U U U U U U U U U U U U U E R R R -.w.w.w.w.w.w.                                        ",
"                                        U U U U U W E E U E E E E Y v v _ 8.w.w.w.w.w.w.                                        ",
"                                  U U U U U U U U T 3 3 E Y 3 3 3 3 3 n V.p.e.y.w.w.w.w.w.w.w.                                  ",
"                              U U U U U U U U U U W T 3 3 3 3 2 Y Y , n V.A.A.Z.y.w.w.w.w.w.3.w.w.                              ",
"                            U U U U U U U U U W T R Y 3 3 3 2 , , , Y ~ V.A.K.A.C.y.w.w.w.w.w.w.w.w.                            ",
"                          U U U E W U W E E E T 3 v 2 1 1 1 , : a , , n V.A.A.C.A.C.p.t.e.w.w.w.w.w.w.                          ",
"                        U U U W 3 E W W 3 2 2 4 3 2 , > : x b b c a a F V.A.C.y.A.A.K.A.y.e.w.w.w.w.w.w.                        ",
"                  U U U U U U U 3 3 3 3 3 < > > 2 < : 6 : W.$X%X+XL F V.K.K.C.3.y.C.K.K.A.t.w.w.w.w.w.2.u y y                   ",
"                U U U U U E R Y 3 4 4 , , j.!.W.c 6 : x W.$X`.L ;.b G K.K.K.A.C.w.5.k.k.A.p.w.w.w.w.w.w.o.u y y                 ",
"                ' / U U E Y 3 3 3 2 M ;.L `.$XW.x : b 0.5X8X{.j.;.L k.A.K.K.K.A.u.5.*.5.P.p.w.w.w.w.w.w.w.Z y y                 ",
"                ;X/./ ! 3 3 2 2 c c j.1X7X;X!.: z b j.7XeXuXuXyX7X}.K.K.K.K.K.R.G.m.a.e.Z.t.w.w.w.w.w.w.w.Z y u                 ",
"              uXyX6X6XiX~ 3 1 > 6 W.:XuXyX8X~.x `.5XrXeXuXuXuXuXeX#XK.K.K.K.#XyXyX[.d.3.e.w.w.w.w.w.w.w.w.{ y u $X              ",
"            uXuXuXuXyX%X~ 1 P !.~.%XeXuXuX0X5X{.tXeXuXuXuXuXuXuXuX2X}.U.>X3X9XyX8X Xa.w.w.w.w.w.w.w.w.3.{ } u A $X].            ",
"          uXuXuXuXeX5XQ.N < ` 8X8XeXuXuXuXuXuXuXuXuXeXqXwXqXwXyXqX-X XY.wXuXyX8X&XY.P.d.d.i.1.-.%.%.X. .| } X. .$X_.n.          ",
"        uXuXuXuXuX8X^.~ ~ M W.uXuXuXuXuXuXuXuXuXuXuX8X*X*X*X1XwX-XT.K.R.tXwX9X&XR.L.|.;X:Xd.@.W R v 4 m 4.u { i.$X_.m.m.        ",
"        uXuXuXuXuX8X7X6X6X5XrXuXuXuXuXuXuXuXuXuXuX8X@XL.R.U.L.Y.R.R.K.K.R.R.R.R.K..X3X%X) ^ Q U W R 4 v v k ,.&XG.D.m.m.        ",
"      W.yXuXuXuXuXeX0XuXuXqXqXuXuXuXuXuXuXuXuXuXyX8X*X@XXXY.K.K.K.K.K.K.K.K.K.R..X=X9X,X( U U W U R v 4 3 c L _.D.n.m.b.#.      ",
"      0.rXuXuXuXuXuXuXuXuX8X8XuXuXuXuXuXuXuXuXuXyXwX7X2X@XY.U.K.K.K.K.K.K.K.E.+X7X8X5X(.! U W E U R 3 3 3 3 M +.+.9.m.b.#.      ",
"      i.4XeXyXyXeXuXuXuXuX8X8XeXeXyXeX0XeXuXuXuXyXyX8X&XU.K.A.K.K.K.K.K.K.V.[.6X6X6X(.U U U E Y E R 3 3 5 v < & j &.m.b.#.      ",
"  w.p.A.U.&X1X1X1XqXuXuXuXuXqX;X1X1X&XY.;XqXuXuXuX+XY.R.K.K.K.K.K.K.K.K.K.f.! / / / ! U U U U W Y 3 3 3 3 3 < j :.b.m.b.#.@.#.  ",
"  w.p.K.J.Y.}.}.}.OXOXOXOX2X7X-X|.}.Y.L.*X7X8X8X8X|.A.K.K.K.K.K.K.K.K.K.R._ U U U U U U U U U U 3 4 3 3 3 j.!.~.m.m.m.b.#.#.@.  ",
"  w.p.K.K.K.J.P.k.k.N.}.}..XXX.XU.K.A.U..X*X;X;X-XXXY.K.K.K.K.K.K.K.K.K.K.f.^ U U U W E W U W T 3 2 1 c ` ).oX].D.m.b.h.#.@.@.  ",
"  w.p.K.K.L.P.l.n v ` $X*XT.K.K.K.K.U.A.U..X*X;X*X*XOXK.K.K.K.K.K.K.K.K.K.K.f.U W U E 3 , T T Y 3 < > b `.).m.m.b.b.z.@.@.@.@.  ",
"  w.p.K.K.K.k.m 3 T 5 V F.L.P.K.K.K.K.K.K.K.U.U.U.U.U.K.K.K.K.K.K.K.K.K.K.K.f.U Y E W E Y 3 , Y 4 4 4 c b =.m.b.>.@.#.@.@.L h.  ",
"w.w.y.p.A.K.k.6 T 4 I ~.>X&X@X.XU.K.K.K.K.K.K.K.K.K.K.U.3XT.K.K.K.K.K.K.K.K.f.E 3 E E R 3 3 ~ Y 3 4 ` Q.>.x.m.n.z.z.=.@.@.S l 7 ",
"w.w.w.e.A.K.l.D 5 I ~.rXeXqX2X.XU.K.K.K.K.K.K.K.K.K.U.T.>XT.K.K.K.K.K.K.K.K.g.R 3 R R 3 3 3 , , 3 _ Q.;X_.G.m.m.m.m.0.H H l 9 y ",
"w.w.w.e.Z.A.K.V.k ~.7XrXwXwX>XK.K.K.K.K.K.K.K.K.K.R.|.*XL.K.K.K.K.K.K.K.K.K.f.Q Y 3 3 4 3 3 , , 1 Q.*X*X:X_.M.9.c.9.+.8 8 8 8 8 ",
"w.w.w.w.y.C.K.P.9.].@XY.Y.Y.U.K.K.K.K.K.K.K.K.K.K.>X8X*XR.K.U.K.K.K.K.K.K..X#XV.^ R 1 , 2 4 1 : > >.D.D.D.m.:.j j j t 8 8 8 8 8 ",
"w.w.w.w.w.y.s.J.S.$XXXK.K.K.K.K.K.K.K.K.K.K.K.K.K.T.#XT.U.K.Y.XXXXY.K.L.OX|.Y.P.f._ 2 , < , > : : z $.m.m.6...& & & r 8 8 8 8 8 ",
"w.w.w.w.w.t.s.K.S..X&XT.K.K.K.K.K.K.K.K.K.K.K.K.K.K.K.K.K.Y.|.XXXXY.A.R.*X.XY.K.A.g._ 2 > - : : : - z &.b.6.1.B t r t 8 8 8 8 8 ",
"w.w.w.w.e.C.K.K.U..X;X;XT.L.K.K.K.K.K.K.K.K.K.K.K.L.L.K.K..X@XY.Y.L.U.L.&X1X+XR.K.A.k.v a > > : : & & j :.9.7.2.9 8 8 8 8 8 8 8 ",
"w.w.w.e.Z.A.K.K.K.L.+XeXwX#XK.K.K.K.K.K.K.K.K.K.U..XOXA.K.XX7X0XwX#XK.K.R.2X8X&XL.K.P.l.n v 1 - & & & * j j A 2.9 8 8 8 8 8 8 8 ",
"w.w.w.e.A.K. X>XL.K.Y.OX+XY.K.K.K.K.K.K.K.K.K.L..X|.Y.L..X1XeXuXuX2X}.L.>XwXyX9XY.K.Z.8.n 1 > : % & & & * * y A 9 8 8 8 8 8 8 8 ",
"w.w.w.y.A.P.OXeX+X|.Y.K.K.Y.}.}.}.U.K.K.K.K.U.}..X|.|.+X9XeXuXuXuXqX2X+XwXuXyX9XL.Z.p.4.G s : - & & & & * * u u 9 8 8 8 8 8 8 8 ",
"w.w.w.y.A.S.'.uXuX8X&XU.R.@X;X*X*XT.K.K.K.L.|.-XY.@X8XuXuXuXuXuXuXuXuXuXuXuXwX*XL.t.w.w.e.g i ; & & & & t t u <.q 8 8 8 8 8 8 8 ",
"w.w.w.y.A.F.'.uXuXyX8X*X*XqX2XR.U.K.K.K.K..X7XqX-X8XuXuXuXuXuXuXuXuXuXuXuXuXqX*Xy.e.w.e.Z.8.] - & & & r <.A u q 8 8 y 8 8 8 8 8 ",
"w.w.w.w.t.C.I.{.yXuXeXwXqXeX0X>X@XXX}.U.|.1XeXuXqXeXuXuXuXuXuXuXuXuXuXuXuXuX,X_.d.r.w.e.t.y.2.[ | | | } Z } u y 8 8 8 8 8 8 8 8 ",
"w.w.w.w.w.p.S.F.%XrXuXuXuX4X4XuX8X8X2X+X7XeXuXuXuXuXuXuXuXuXuXeX,XrXuXyX,X<X'.m.m.u.w.w.w.w.w.w.e.w.2.X.{ 1. .y 8 8 8 8 8 8 8 8 ",
"  w.w.w.w.w.t.A.n.%X0X0XrX].'.uXuXyXyXuXuXuXuXuXuXuXuXuX0XeXeX4XG.%X0X4XG.m.m.m.S.u.w.w.w.w.w.w.4.3.o.u 4.6.*.y 8 8 8 8 8 8 8   ",
"  w.w.w.w.w.w.y.e.S.G.G.G.D.'.uXuX8X8XuXuXuXuXuXuXuXuXwX).,X4XG.m.m.G.G.m.m.m.m.m.8.e.w.w.w.w.2.u <.X.B 9.n.&.9 8 8 8 8 8 8 8   ",
"  w.w.w.w.w.w.w.w.r.6.n.6.q.G.'.'.].%XuXuXuXuXuXuXuXtX[.I.I.H.m.m.m.m.m.m.m.m.b.K 1.w.w.w.w.<.{ X.8.5.*.n.z.$.D y 8 8 8 8 8 8   ",
"  w.w.w.w.w.w.w.w.w.e.6.w.5.$.+.+.9.).:X<XrXuXuX,X<X{.m.F.p.r.u.6.M.m.m.n.m.k.L a g [ O.8.<.| ..8.d.m.m.S.>.@.L D y 8 8 8 8 8   ",
"  w.w.w.w.w.w.w.w.w.w.w.2.F , & & +.n.S.m.%XrX4XG.m.m.m.m.8.e.w.w.7.x.c.x.x.+.: : : a z 0.S ..m.m.n.b.b.b.>.@.@.$.B 8 8 8 8 8   ",
"      w.w.w.w.w.w.w.w.2.l i > - &  .u.m.m.m.G.G.m.m.m.m.S.8.w.w.w.G p p p p a : : : F :.t ..M.m.m.m.9.#.#.#.@.L l y 8 8 8       ",
"      w.w.w.w.w.w.w.w.3.X.d = j { 2.u.m.m.m.m.m.u.y.u.m.m.y.w.4.g d : : : : : a > F $.F +.0.m.m.m.m.z.@.@.#.K B y 8 8 8 8       ",
"      w.w.w.w.w.w.w.w.w.w.| B A 8.u.u.m.6.6.6.6.w.e.8.6.6.y.w.2.a : : : : - - - - &.>.K x.b.z.z.z.z.>.@.H H B 8 8 8 8 8 8       ",
"        w.w.w.w.w.w.w.w.w.w.w.e.q.m.n.S.8.e.w.e.w.w.w.w.y.3.3.2.a i : : : ; % j % K M.m.n.>.#.#.#.L J K y 8 y 8 8 8 8 8         ",
"        w.w.w.w.w.w.w.w.w.w.w.w.e.6.m.m.n.u.3.e.e.w.w.w.w.w.w.2.a : : : & & V :.r & C m.m.b.b.c.;.l r y 8 8 8 8 8 8 8 8         ",
"          w.w.w.w.w.w.w.w.w.w.w.w.e.6.m.b.d.a.u.3. .f f f 1.w.2.a : : - & H S l * C *.m.m.m.c.h.@.F V S S l 8 8 8 8 8           ",
"            w.w.w.w.w.w.w.w.w.w.w.w.e.u.6.6.6.7.[ s : : : f 1.2.d - : : & +.*.B C :.b.c.m.c.h.@.@.@.J V C l 8 8 8 8             ",
"              w.2.3.3.2.w.w.w.w.w.w.w.w.w.w.2.1.s : : : : : f <.9 i : : j :.m.m.m.m.z.@.c.h.@.@.@.#.V . . 0 7 8 8               ",
"                q o.o.w 2.w.w.w.w.w.w.w.w.w.[ a : : : : : : i a 8 i i a 0.b.m.m.m.D.z.;.@.@.@.@.@.@.C . . . . X                 ",
"                8 e { X.{ <.<.} 3.[ X.2.w h s : : : - = = = - : i % ; p x.m.m.b.>.>.=.@.@.@.@.@.;.z % . . . . .                 ",
"                8 8 w X.{ } } { [ w 9 ] 0 $ ; : : - ; # & & # : ; @ $ - J +.=.z.@.@.@.@.@.H V V V 0 X . . . . .                 ",
"                  8 8 q <.e e <.9 + @ - : @ @ - - ; @ X & o O = o $ $ . - % k J J J J J L t . . . . . . . . .                   ",
"                        + + + + X $ $ X X $ $ o & o X & X # @ o - @ . . X X X + O O + O + X . . . . . .                         ",
"                          . . . . o O . X o o X o X o & X # O . @ X . . . . . X . . . . . . . . . . .                           ",
"                            . . . . . . . . . . . . o O . o o X . . . . . . . . . . . . . . . . . .                             ",
"                              . . . . . . . . . . . . . . . . . . . . . . . . . . . . . . . . . .                               ",
"                                  . . . . . . . . . . . . . . . . . . . . . X . . . . . . . .                                   ",
"                                        . . . . . . . . . . . . . . . . . . . . . . . .                                         ",
"                                        . . . . . . . . . . . . . . . . . . . . . . . .                                         ",
"                                                  . . . . . . . . . . . . . .                                                   "
};
