/* XPM */
static char *cd3dd0861b7d492582428bed4c7c466dI3jdsce9LhpOQ4wO[] = {
/* columns rows colors chars-per-pixel */
"64 64 161 2 ",
"   c None",
".  c #4E060B",
"X  c #550606",
"o  c #5B0503",
"O  c #500609",
"+  c #650403",
"@  c #6B0403",
"#  c #730303",
"$  c #7C0303",
"%  c #840303",
"&  c #8B0404",
"*  c #8A0C04",
"=  c #940505",
"-  c #9B0606",
";  c #920904",
":  c #A40606",
">  c #AA0707",
",  c #AB0906",
"<  c #AC0708",
"1  c #AD0809",
"2  c #B20707",
"3  c #B40A06",
"4  c #BC0C07",
"5  c #B40708",
"6  c #B90708",
"7  c #B40809",
"8  c #BE0809",
"9  c #BC1306",
"0  c #BE1804",
"q  c #C40C07",
"w  c #CB0D07",
"e  c #C40908",
"r  c #C90B08",
"t  c #C41207",
"y  c #CE1207",
"u  c #CC1905",
"i  c #CC1A0B",
"p  c #D21506",
"a  c #D51B06",
"s  c #D51E08",
"d  c #C82303",
"f  c #C52109",
"g  c #D42205",
"h  c #DA2305",
"j  c #DE2B04",
"k  c #DC3006",
"l  c #D63F15",
"z  c #E02E03",
"x  c #E23402",
"c  c #E43D01",
"v  c #E0350C",
"b  c #E53F09",
"n  c #E64203",
"m  c #E94602",
"M  c #E74807",
"N  c #E94B06",
"B  c #E7450A",
"V  c #EA4D09",
"C  c #EB520D",
"Z  c #E74711",
"A  c #E64A12",
"S  c #E3441B",
"D  c #EC5612",
"F  c #ED5914",
"G  c #E7501E",
"H  c #EE5E1A",
"J  c #EF611E",
"K  c #ED5E21",
"L  c #EF6422",
"P  c #EF6926",
"I  c #F06624",
"U  c #F06925",
"Y  c #F16C2A",
"T  c #F1702D",
"R  c #EB6532",
"E  c #F27431",
"W  c #F47A37",
"Q  c #F47C3A",
"!  c #F4803D",
"~  c #F58443",
"^  c #F48946",
"/  c #F68B4A",
"(  c #F6924C",
")  c #F79353",
"_  c #F89855",
"`  c #F79959",
"'  c #F89E5E",
"]  c #F5A057",
"[  c #F9A05B",
"{  c #F89E60",
"}  c #F9A362",
"|  c #FAAA65",
" . c #FAAB6A",
".. c #F8B166",
"X. c #FBB16E",
"o. c #FBBD6F",
"O. c #FBB573",
"+. c #FCBB76",
"@. c #FDBD79",
"#. c #FBC777",
"$. c #FDC07B",
"%. c #FEC07A",
"&. c #FEC079",
"*. c #FEC27D",
"=. c #FDC67D",
"-. c #FEC57E",
";. c #FFC77E",
":. c #FEC37B",
">. c #FEC97F",
",. c #FECA7E",
"<. c #FFCA80",
"1. c #FFCC80",
"2. c #FFCE81",
"3. c #FFD082",
"4. c #FFD182",
"5. c #FFD283",
"6. c #FFD483",
"7. c #FFD383",
"8. c #FFD884",
"9. c #FFD984",
"0. c #FFDB85",
"q. c #FFDA84",
"w. c #FFDC85",
"e. c #FFDE86",
"r. c #FFDF86",
"t. c #FFDB85",
"y. c #FFE086",
"u. c #FFE186",
"i. c #FFE286",
"p. c #FFE187",
"a. c #FFE588",
"s. c #FFE689",
"d. c #FFE789",
"f. c #FFE68A",
"g. c #FFE489",
"h. c #FFE88A",
"j. c #FFE88B",
"k. c #FFEA8B",
"l. c #FFEA8C",
"z. c #FFEC8D",
"x. c #FFEC8E",
"c. c #FFED8E",
"v. c #FFEA8C",
"b. c #FFEE92",
"n. c #FFEF92",
"m. c #FFEF93",
"M. c #FFEF94",
"N. c #FFEF95",
"B. c #FFEE96",
"V. c #FFEE97",
"C. c #FFEF97",
"Z. c #FFED94",
"A. c #FFEF98",
"S. c #FFEF99",
"D. c #FFEF9A",
"F. c #FFEF9E",
"G. c #FFEF9F",
"H. c #FFEF9D",
"J. c #FFEFA2",
"K. c #FEEFA3",
"L. c #FDEFA9",
/* pixels */
"                  0 n x x j 1 : : : : : : : : o                                 + h n V n M c n x x k p n x d                   ",
"                = B.,.N g a p , 1 > 1 > - - : q =                             & u v J `  .! ( ( %.( ! [ 6.r.N =                 ",
"              @ +.r.3.B y 2 , > - - - - = = - = - 4                         9 2 % : > : : > > : : - > m ,.%.I c #               ",
"            + ! z.^ 3.P j w 1 > : - : : - - - - = - 1                     - = # # - : - - - - - - - a | 3.H U F c +             ",
"            / n.-.U } <.H a e > : - : > - - - - = = - - +             + : % X o & - - - - - - = = : N 1.E L m U W s o           ",
"          T l.q.-.+.I 1. .c p 7 : : : : : = - - = = = = - $         $ - % X X o = - - - = - - = : s 6.6.H C T ! Q N h           ",
"        A n.l.d.3.q.( E -.W z w > : - > : - - - = = = & = - ,     : = # X X X X & = = = - - - = < T z.@./ T ^ / ! ! D h         ",
"      u G.n.r.r.j.-.q.E +.*.n j w : : : : - - - = = & & & % & : : % @ X X X O X & = = = = = = - c a.m.y.r.-.3. .F H  .m 7       ",
"      w J G.d.l.y.z.3.y.J <./ x y 1 : : 7 - - > = = = = & $ $ % $ o X X X O O o % & & & & % % y X.C.C.C.C.z.y.F } ! m m 6 o     ",
"    $ & > x G.B.B.n.z.y.q.%.6.H x p > : 1 > - - = = = & & % @ # o o X O O . O X # $ % $ % $ = T r.G.D.D.D.d.%.y.*.Q F - = %     ",
"    - # % : j l.G.B.B.j.q.1.:.,.N h 7 : : 7 : > = = = & & $ # # @ o O O X X . X $ $ # $ $ $ a 3.D.D.H.H.l.r.z.g.{ j - = & -     ",
"    = o @ $ = q o.G.H.D.z.y.d.q. .c a > > : : : = - = & % % % @ + X . X O O X + # @ # # # = ^ B.G.J.H.m.j.D.d. .t - & & $ =     ",
"    & + o @ # & > E G.D.D.j.r.j.O.U p > = 4 4 6 < & & & & % # + o X . X X . # z c t 3 & % 4 n.G.J.K.G.D.D.q.~ 1 = & & & % =     ",
"    & $ + o o @ $ - k G.J.G.l.y.+.G q ] J.L.L.K.l.j 2 % % % @ o o X X X + S {  .:.@.$.O.) h f B.J.J.G.D.g.V - = & % & & $ =     ",
"  @ = % $ @ o o + @ - 8 V.G.C.%.: ^ L.L.K.K.J.g.6.J F n 8 $ + + + X X q Q E ^ / ` | @.d.n.d.} 4 g.J.D.3.g - & & % % % % $ = #   ",
"  : = & % $ $ o o + + & : ..| 6 G.L.L.L.D.n.B m m m I m m v @ + X @ j F F m u a P H J E  .r.D.6.y #.E q = & % % % % # % % = -   ",
"  : & & & % $ $ + o + + @ = i L.L.L.K.n.P j j x m m N C h h C - : J n p 6 > p I U C V C E X.q.B.G.j - = & # $ $ $ # o @ $ $ :   ",
"  = = & & & % % $ # X o o %  .K.L.L.#.P x c n m C m N N x p e h c e 2 > : w F W H N m m V Y %.H.D.g.: $ # @ # # @ @ o o @ $ =   ",
"  & = = & % & % % $ $ + o Q y j  .B.B.P N x m D F F F N z 5 r > 1 : - : > j O.! Y C D N Y 3.} D K.K.R + o + + + + o o o + $ %   ",
"+ % & % & & & % % % $ $ $ J > = p m | ' C V N F C F c m e e : : : - - > p F <. .Y H H @.5.%.m D 6.L.| o o o o o o o X o o @ % + ",
"= & % % $ % $ % % % % % $ F - - = 2 p H _ D V N D F D m 6 : : > : - : e c <.<.<. .` 5.6.^ m q a ! K.d.X o o X o X X X o X o $ = ",
"< $ $ $ $ $ $ $ $ $ $ % % N - - = - : 2 c W m x w a z e 7 1 - - : : e z T 2.2.5.6.q.6./ N h w w E n.H.X X X X o o X o X X X o = ",
"$ % % $ $ # # # $ # # $ % N = = % = - - - 4 D F h w r r w 1 : - : > a D 5.q.0.q.6.5.^ N x p w a V d.B.@ X X X X o X X X X + o $ ",
"  + + @ $ $ # @ @ @ @ @ & n = = # % = = = = : c I z p p e e : > : 2 j _ 5.6.0.q.<.W c j z z p m N d.B.$ o o o X X X o @ X O X   ",
"  # @ + + @ @ $ # @ @ @ % C = & # $ % = & & = = a V n h p y 1 7 > q C +.8.q.r.1.F h p a c n c N m g.b.* X X X X + + X . . X +   ",
"  % @ @ + + + + @ # # @ % N = $ + @ $ & & % % & = - u I h a y e : e ~ 6.r.6.1.F p p s z c c C J V g.d.; X X @ @ X . . X X X %   ",
"    # @ @ @ + + + + @ @ $ n = # + + @ $ % = % % & = = > V n 8 1 > a r.y.q.%.c 7 p a h m N m U F F 6.3.# # o . . . X X X X X     ",
"    % @ + @ @ + + + + + + j = # + + # $ & = = = = = & & - x C : 1 H y.3.H h > , r r z x m m D H Y q.O.# . O . X X O . X X @     ",
"    ; $ # # # # # @ # @ @ e - @ @ + $ % & = = = = - = = = = 1 m p q.^ x e > > > e w j c h m V Y +.1.' X X X X X X X X X o =     ",
"      $ # # # # # # # # @ < 1 # @ @ $ % & = = - = = - - - - - = 1 9 r e 8 > > > > e x c h c C E 3.d.l # # @ @ @ @ @ + o o       ",
"      & $ # # # # # # # @ @ 2 # # @ # $ & = = - = = - - : 1 1 : - - j s w e > : : q m m p m Y W 3.n.# # $ # @ + + + + o @       ",
"      - $ # # # # # # # # @ : % # # @ # % = = - - : > r e 8 > - - - 2 z h e q : , e x x r m I +.3.^ % % & & & $ # + + X -       ",
"        % # # # # # # # # @ $ = # $ # $ & = - : < 8 e 1 : : - = = - - u c j w > > y h x e x C -.m., # $ % = = = & % + +         ",
"        & # # # # # # # # # + - # $ $ $ = - : : : : : : : : = & = = - - x n h 8 e w h x x n V 6.,.@ # % = = = & & % $ #         ",
"        = $ $ # # # # # # # @ & = $ $ & & - - - - - - : e - % & & = - - : C n a p x V x x c ) G.n @ @ # $ = = = % # @ -         ",
"          $ # $ # # # # # # @ + - $ $ & - - - - : - : e : & % % & = - - - a C V x z V h N V O.G.+ + @ @ @ + # $ $ # +           ",
"          % $ # # # $ $ # $ $ # : = % = = = - - - : e : = # $ $ % = - - - : C C N x z m ! 3.j.U + + + + + @ @ + @ + +           ",
"          & % # # $ $ $ % % # @ @ = % % & = - - : > 1 = & $ $ % % & = - - - y T L m c V ! z.a.o @ & & $ @ + @ + + + &           ",
"            & $ $ $ @ @ + + + + + $ - % & = - - : < - = & & & $ = = = - = - > C W ~ I Y O.6.$ o o X o o % = % # @ +             ",
"            % @ + + @ + + + + + + + & - % & = - : - = = & & & & % % = = = - - p ) +.X.^ +., o o o o o X o o o + @ =             ",
"              = # + @ + + + + @ @ + + - - % & - - = - = = = = & % % $ $ & = - : N -.6.{ 4 o o o o o o X o O o o #               ",
"                @ @ @ + + @ @ + @ + + + : = - - - = - - - - = = & $ $ & = = - - y ' _ q o o o o o o o o X o o + o               ",
"                $ # @ + + @ + + + @ + @ @ - = - - - : : : : - = % $ % & & = & : p Y k + + o o o o o + o o o o $                 ",
"                  = # + + + @ @ @ + @ @ + @ - - - - : > > : - = & $ $ % % & = - j K + o + o o + o o o X o X &                   ",
"                    $ # + @ @ + + + @ + + + + r = - : : > > - = & & $ $ = % - 2 Z + + + + o o o o o o o o o                     ",
"                    o $ @ + @ + @ @ @ @ @ + @ + > - - : : : : - = = % % % - p n o # @ + + + o o o o o o o o                     ",
"                      @ $ @ @ @ @ @ + + + + o o + : e : - - - - - = % & : D u o o + # + + o o o o o o o #                       ",
"                        - # + @ @ + @ @ @ o o o o + $ p : - = - = & = 2 V # o X o X @ # + + o + o o o =                         ",
"                          & @ @ @ @ @ + o o o o @ + + # e < - - = - u n o o o + o o o @ # + + o o o #                           ",
"                            $ @ # @ + o X o + + + @ @ + $ - e : : w = + + o o o o o o o @ @ + o o o                             ",
"                            + $ # + o X o o @ @ + @ # # # % $ e w o + @ + + o o o o o X o # @ + o +                             ",
"                              & + + X o + @ @ @ @ # # # # # # @ o X + @ + + o o o o o o X o @ @ ;                               ",
"                                & X o o + # # @ @ # # $ $ # # + O X o @ + + + o o o o o o o o =                                 ",
"                                  = + + # # @ @ # # $ $ # # # + X X o @ + + + o + o + o o o ;                                   ",
"                                    X # $ # # # # $ $ # # $ # + X X o + + @ + + o + o o + o                                     ",
"                                        , # # # $ $ $ # # # @ + X . o + + + + + o o o -                                         ",
"                                          @ $ $ $ $ # $ # # + + X . o + + + + + o o @                                           ",
"                                              - % % # # # + + + o . o @ @ + + + %                                               ",
"                                                & $ $ $ @ + + + + . X @ @ + + &                                                 ",
"                                                  o % $ @ + + o + . X @ + # o                                                   ",
"                                                      : + o + + @ X o + -                                                       ",
"                                                        + + + o @ X X +                                                         ",
"                                                            - o + -                                                             ",
"                                                              + o                                                               "
};
