/* XPM */
static char *output_onlinepngtools[] = {
/* columns rows colors chars-per-pixel */
"192 18 113 2 ",
"   c #3A0707",
".  c #3E0707",
"X  c #3E0907",
"o  c #3E0A09",
"O  c #3F0B09",
"+  c #3F090B",
"@  c #440D06",
"#  c #410808",
"$  c #400908",
"%  c #410A08",
"&  c #400A09",
"*  c #400B09",
"=  c #430A0A",
"-  c #420B0B",
";  c #440A0A",
":  c #440B0B",
">  c #430C0A",
",  c #450C09",
"<  c #450D0B",
"1  c #460C0A",
"2  c #460D0B",
"3  c #470E0A",
"4  c #440C0C",
"5  c #460C0C",
"6  c #470C0C",
"7  c #470D0C",
"8  c #460D0D",
"9  c #460E0C",
"0  c #460C0E",
"q  c #470E0E",
"w  c #480E09",
"e  c #490E09",
"r  c #490F09",
"t  c #4A0E09",
"y  c #4A0D0B",
"u  c #480E0A",
"i  c #480F0A",
"p  c #4A0E0B",
"a  c #4F0F09",
"s  c #4C0F0B",
"d  c #4D0F0B",
"f  c #4E0F0A",
"g  c #4E0F0B",
"h  c #490C0C",
"j  c #490D0D",
"k  c #4A0D0D",
"l  c #4B0D0D",
"z  c #490E0C",
"x  c #4A0E0C",
"c  c #4A0E0D",
"v  c #4B0E0D",
"b  c #4A0F0D",
"n  c #4B0F0D",
"m  c #4B0D0E",
"M  c #4A0D0F",
"N  c #490E0E",
"B  c #4A0E0E",
"V  c #4B0E0E",
"C  c #4A0E0F",
"Z  c #4A0F0F",
"A  c #4C0D0D",
"S  c #4C0E0C",
"D  c #4C0F0C",
"F  c #4D0F0C",
"G  c #4C0E0D",
"H  c #4D0F0D",
"J  c #4E0F0C",
"K  c #4F0F0C",
"L  c #4E0F0D",
"P  c #4C0D0E",
"I  c #4D0D0E",
"U  c #4C0E0E",
"Y  c #4D0E0E",
"T  c #4C0F0E",
"R  c #4D0F0E",
"E  c #4D0E0F",
"W  c #4C0F0F",
"Q  c #4D0F0F",
"!  c #4E0F0E",
"~  c #4F0F0E",
"^  c #4E0F0F",
"/  c #500F0E",
"(  c #4A100A",
")  c #4D100A",
"_  c #4D100B",
"`  c #4E100A",
"'  c #4F100A",
"]  c #4E110A",
"[  c #4E100B",
"{  c #4F100B",
"}  c #4E110B",
"|  c #4F110B",
" . c #4E120B",
".. c #4F120B",
"X. c #4C100C",
"o. c #4D100C",
"O. c #4D100D",
"+. c #4E100C",
"@. c #4F100C",
"#. c #4E110C",
"$. c #4F110C",
"%. c #4E100D",
"&. c #4C100E",
"*. c #50100A",
"=. c #50110A",
"-. c #50100B",
";. c #50110B",
":. c #50120C",
">. c #50100E",
",. c #4A0E10",
"<. c #4C1010",
"1. c #4D1010",
"2. c None",
/* pixels */
"2.2.2.2.2.2.2.2.2.2.2.2.2.2.2.2.2.2.2.2.2.2.2.2.2.2.2.2.2.2.2.2.2.2.2.2.2.2.2.2.2.2.2.2.2.2.2.2.2.2.2.2.2.2.2.2.2.2.2.2.2.2.2.2.2.2.2.2.2.2.2.2.2.2.2.2.2.2.2.2.2.2.2.2.2.2.2.2.2.2.2.2.2.2.2.2.2.2.2.2.2.2.2.2.2.2.2.2.2.2.2.2.2.2.2.2.2.2.2.2.2.2.2.2.2.2.2.2.2.2.2.2.2.2.2.2.2.2.2.2.2.2.2.2.2.2.2.2.2.2.2.2.2.2.2.2.2.2.2.2.2.2.2.2.2.2.2.2.2.2.2.2.2.2.2.2.2.2.2.2.2.2.2.2.2.2.2.2.2.2.2.2.",
"2.2.2.2.2.2.2.2.2.2.2.2.2.2.2.2.2.2.2.2.2.2.2.2.2.2.2.2.2.2.2.2.2.2.2.2.2.2.2.2.2.2.2.2.2.2.2.2.2.2.2.2.2.2.2.2.2.2.2.2.2.2.2.2.q V E 1.2.2.2.2.2.2.2.2.2.2.2.2.2.2.2.2.2.2.2.2.2.2.2.2.2.2.2.2.2.2.2.2.2.2.2.2.2.2.2.2.2.2.2.2.2.2.2.2.2.2.2.2.2.2.2.2.2.2.2.2.2.2.2.2.2.2.2.2.2.2.2.2.2.2.2.2.2.2.2.2.2.2.2.2.2.2.2.2.2.2.2.2.2.2.2.2.2.2.2.2.2.2.2.2.2.2.2.2.2.2.2.2.2.2.2.2.2.2.2.2.2.2.2.2.",
"2.2.2.2.2.2.2.2.2.2.2.2.2.2.2.2.2.2.2.2.2.2.2.2.2.2.2.2.2.2.2.2.2.2.2.2.2.2.2.2.2.2.2.2.2.2.,.=.} q 2.2.2.2.2.$.E 2.2.2.2.2.E V 2.2.2.2.E E 2.2.2.2.2.V E =.2.2.2.2.2.2.2.} / 2.2.2.2.2.2.2.> E ;.$.2.2.2.V E V 2.2.2.2.2.2.2.} } q 2.2.2.$.} E 2.2.2.E $.2.2.2.V E } E 2.2.2.V } V 2.2.2.2.2.2.2.2.2.2.2.2.2.2.2.2.2.2.2.2.2.2.2.2.2.2.2.2.2.2.2.2.2.2.2.2.2.2.2.2.2.2.2.2.2.2.2.2.2.2.2.2.2.2.",
"2.2.2.2.2.2.2.2.2.2.2.2.2.2.2.2.2.2.2.2.2.2.2.2.2.2.2.2.2.2.2.2.2.2.2.2.2.2.2.2.2.2.2.2.2.2.2.V =.2.2.2.2.2.2.d 2.2.2.2.2.$.2.2.2.2.2.2.2.} E 2.2.2.2.2.=.} 2.2.2.2.2.2.2.V u 2.2.2.2.2.2.2.2.2.E E 2.2.2.2.2.&.} E 2.2.2.2.2.E d 2.2.2.2.2.d 2.2.2.2.2.E 2.2.2.2.} d 2.2.2.2.2.2.} E 2.2.2.2.2.2.2.2.2.2.2.2.2.2.2.2.2.2.2.2.2.2.2.2.2.2.2.2.2.2.2.2.2.2.2.2.2.2.2.2.2.2.2.2.2.2.2.2.2.2.2.2.2.",
"2.2.2.2.2.2.2.2.2.2.2.2.2.2.2.2.2.2.2.2.2.2.2.2.2.2.2.2.2.2.2.2.2.2.2.2.2.2.2.2.2.2.2.2.2.2.2.2.E E 2.2.2.2.E 2.2.2.2.2.=.( 2.2.2.2.2.2.2.2.=.u 2.2.2.2.=.V 2.2.2.2.2.2.2.E q 2.2.2.2.2.2.2.2.2.} = 2.2.2.2.2.2.V } V 2.2.2.2.V } 2.2.2.2.2.$.2.2.2.2.2.V 2.2.2.2.V $.2.2.2.2.2.2.2.$.$.2.2.2.2.2.2.2.2.2.2.2.2.2.2.2.2.2.2.2.2.2.2.2.2.2.2.2.2.2.2.2.2.2.2.2.2.2.2.2.2.2.2.2.2.2.2.2.2.2.2.2.2.",
"2.2.2.2.2.2.2.2.2.2.2.2.2.2.2.2.2.2.2.2.2.2.2.2.2.2.2.2.2.2.2.2.2.2.2.2.2.2.2.2.2.2.2.2.2.2.2.2.2.$.u 2.2.2.: 2.2.2.2.2.$.2.2.2.2.2.2.2.2.2.} E 2.2.2.2.} E 2.2.2.2.2.2.2.= = 2.2.2.2.2.2.2.2.2.$.O 2.2.2.2.2.2.2.$.} 2.2.2.2.E } 2.2.2.2.2.$.2.2.2.2.2.2.2.2.2.2.( $.2.2.2.2.2.2.2.2.d V 2.2.2.2.2.2.2.2.2.2.2.2.2.2.2.2.2.2.2.2.2.2.2.2.2.2.2.2.2.2.2.2.2.2.2.2.2.2.2.2.2.2.2.2.2.2.2.2.2.2.2.",
"2.2.2.2.2.2.2.2.2.2.2.2.2.2.2.2.2.2.2.2.2.2.2.2.2.2.2.2.2.2.2.2.2.2.2.2.2.2.2.2.2.2.2.2.2.2.2.2.2.$.E 2.2.E 2.2.2.2.2.d } 2.2.2.2.2.2.2.2.2.} =.2.2.2.2.} ,.2.2.2.2.2.2.2.X . 2.2.2.2.2.2.2.2.2.E o 2.2.2.2.2.2.2.O } E 2.2.2.E / 2.2.2.2.2.$.2.2.2.2.E 2.2.2.2.2.@ $.2.2.2.2.2.2.2.2.} } 2.2.2.2.2.2.2.2.2.2.2.2.2.2.2.2.2.2.2.2.2.2.2.2.2.2.2.2.2.2.2.2.2.2.2.2.2.2.2.2.2.2.2.2.2.2.2.2.2.2.2.",
"2.2.2.2.2.2.2.2.2.2.2.2.2.2.2.2.2.2.2.2.2.2.2.2.2.2.2.2.2.2.2.2.2.2.2.2.2.2.2.2.2.2.2.2.2.2.2.2.2.2.d V V 2.2.2.2.2.2.$.=.2.2.2.2.2.2.2.2.2.: } 1.2.2.2.} V 2.2.2.2.2.2.2.. = 2.2.2.2.2.2.2.2.2.} o 2.2.2.2.2.2.2.2.d $.2.2.2.E } 2.2.2.2.2.E 2.2.2.} E 2.2.2.2.2.< E 2.2.2.2.2.2.2.2.u } 2.2.2.2.2.2.2.2.2.2.2.2.2.2.2.2.2.2.2.2.2.2.2.2.2.2.2.2.2.2.2.2.2.2.2.2.2.2.2.2.2.2.2.2.2.2.2.2.2.2.2.",
"2.2.2.2.2.2.2.2.2.2.2.2.2.2.2.2.2.2.2.2.2.2.2.2.2.2.2.2.2.2.2.2.2.2.2.2.2.2.2.2.2.2.2.2.2.2.2.2.2.2.u =.V 2.2.2.2.2.2.} } 2.2.2.2.2.2.2.2.2.2.=.E 2.2.2.} V 2.2.2.2.2.2.2.$ $ 2.2.2.2.2.2.2.2.2.} O 2.2.2.2.2.2.2.2.} } 2.2.2.E } 2.2.2.2.2.d q 2.2.} / 2.2.2.2.2.u $.2.2.2.2.2.2.2.2./ $.2.2.2.2.2.2.2.2.2.2.2.2.2.2.2.2.2.2.2.2.2.2.2.2.2.2.2.2.2.2.2.2.2.2.2.2.2.2.2.2.2.2.2.2.2.2.2.2.2.2.2.",
"2.2.2.2.2.2.2.2.2.2.2.2.2.2.2.2.2.2.2.2.2.2.2.2.2.2.2.2.2.2.2.2.2.2.2.2.2.2.2.2.2.2.2.2.2.2.2.2.2.2.2.} 2.2.2.2.2.2.2.} $.2.2.2.2.2.2.2.2.2.2.} E 2.2.2.=.,.2.2.2.2.2.2.2.  = 2.2.2.2.2.2.2.2.2.} O 2.2.2.2.2.2.2.2.d } 2.2.2.E d 2.2.2.2.2.d 2.2.2.2.V 2.2.2.2.2.u $.2.2.2.2.2.2.2.2.} } 2.2.2.2.2.2.2.2.2.2.2.2.2.2.2.2.2.2.2.2.2.2.2.2.2.2.2.2.2.2.2.2.2.2.2.2.2.2.2.2.2.2.2.2.2.2.2.2.2.2.2.",
"2.2.2.2.2.2.2.2.2.2.2.2.2.2.2.2.2.2.2.2.2.2.2.2.2.2.2.2.2.2.2.2.2.2.2.2.2.2.2.2.2.2.2.2.2.2.2.2.2.2.2.=.2.2.2.2.2.2.2.} =.2.2.2.2.2.2.2.2.2.< =.2.2.2.2.} V 2.2.2.2.2.2.2.V 2.2.2.2.2.2.2.2.2.2.$.O 2.2.2.2.2.2.2.2.=.E 2.2.2.E =.2.2.2.2.2.$.2.2.2.2.2.2.2.2.2.2.< $.2.2.2.2.2.2.2.2.u =.2.2.2.2.2.2.2.2.2.2.2.2.2.2.2.2.2.2.2.2.2.2.2.2.2.2.2.2.2.2.2.2.2.2.2.2.2.2.2.2.2.2.2.2.2.2.2.2.2.2.2.",
"2.2.2.2.2.2.2.2.2.2.2.2.2.2.2.2.2.2.2.2.2.2.2.2.2.2.2.2.2.2.2.2.2.2.2.2.2.2.2.2.2.2.2.2.2.2.2.2.2.2.2.$.2.2.2.2.2.2.2.E } 2.2.2.2.2.2.2.2.2.E $.2.2.2.2.} $.2.2.2.2.2.2.2.V 2.2.2.2.2.2.2.2.2.2.E O 2.2.2.2.2.2.2.u } 2.2.2.2.V ;.2.2.2.2.2.$.2.2.2.2.2.2.2.2.2.2.u E 2.2.2.2.2.2.2.2.$.E 2.2.2.2.2.2.2.2.2.2.2.2.2.2.2.2.2.2.2.2.2.2.2.2.2.2.2.2.2.2.2.2.2.2.2.2.2.2.2.2.2.2.2.2.2.2.2.2.2.2.2.",
"2.2.2.2.2.2.2.2.2.2.2.2.2.2.2.2.2.2.2.2.2.2.2.2.2.2.2.2.2.2.2.2.2.2.2.2.2.2.2.2.2.2.2.2.2.2.2.2.2.2.2.=.2.2.2.2.2.2.2.2.$.V 2.2.2.2.2.2.2.2.$.2.2.2.2.2.;.} 2.2.2.2.2.2.2.} 2.2.2.2.2.2.2.2.2.2.} = 2.2.2.2.2.2.2.$.V 2.2.2.2.E E 2.2.2.2.2.$.2.2.2.2.2.2.2.E 2.2.< $.2.2.2.2.2.2.2.2.$.2.2.2.2.2.2.2.2.2.2.2.2.2.2.2.2.2.2.2.2.2.2.2.2.2.2.2.2.2.2.2.2.2.2.2.2.2.2.2.2.2.2.2.2.2.2.2.2.2.2.2.2.",
"2.2.2.2.2.2.2.2.2.2.2.2.2.2.2.2.2.2.2.2.2.2.2.2.2.2.2.2.2.2.2.2.2.2.2.2.2.2.2.2.2.2.2.2.2.2.2.2.2.2.2.} 2.2.2.2.2.2.2.2.< d q 2.2.2.2.2.2.V E 2.2.2.2.2.2.$.E 2.2.2.2.2.q V 2.2.2.2.2.2.2.2.2.2.} V 2.2.2.2.2.2.V $.2.2.2.2.2.V } 2.2.2.2.2.E E 2.2.2.2.2.V 2.2.2.V } 2.2.2.2.2.2.2.E 2.2.2.2.2.2.2.2.2.2.2.2.2.2.2.2.2.2.2.2.2.2.2.2.2.2.2.2.2.2.2.2.2.2.2.2.2.2.2.2.2.2.2.2.2.2.2.2.2.2.2.2.2.",
"2.2.2.2.2.2.2.2.2.2.2.2.2.2.2.2.2.2.2.2.2.2.2.2.2.2.2.2.2.2.2.2.2.2.2.2.2.2.2.2.2.2.2.2.2.2.2.2.2.2.u } E 2.2.2.2.2.2.2.2.2.E V 2.2.2.2.} E 2.2.2.2.2.2.2.2.d u : 2.< E V 2.2.2.2.2.2.2.2.2.2.V } d 2.2.2.2.2.E V 2.2.2.2.2.2.} =.2.2.2.2.} =./ 2.2.2.2.d } 2.2.2.} =.E 2.2.2.2.u E 2.2.2.2.2.2.2.2.2.2.2.2.2.2.2.2.2.2.2.2.2.2.2.2.2.2.2.2.2.2.2.2.2.2.2.2.2.2.2.2.2.2.2.2.2.2.2.2.2.2.2.2.2.2.",
"2.2.2.2.2.2.2.2.2.2.2.2.2.2.2.2.2.2.2.2.2.2.2.2.2.2.2.2.2.2.2.2.2.2.2.2.2.2.2.2.2.2.2.2.2.2.2.2.2.V < 2.< E E 2.2.2.2.2.2.2.2.2.V } $.$.2.2.2.2.2.2.2.2.2.2.2.E } } E 2.2.2.2.2.2.2.2.2.2.2.E = 2.< 2.E E E 2.2.2.2.2.2.2.2.2.2.2.2.< 2.E < 2.1 1 < < E E 2.2.2.2.2.2.< E E E = 2.2.2.2.2.2.2.2.2.2.2.2.2.2.2.2.2.2.2.2.2.2.2.2.2.2.2.2.2.2.2.2.2.2.2.2.2.2.2.2.2.2.2.2.2.2.2.2.2.2.2.2.2.2.2.2.",
"2.2.2.2.2.2.2.2.2.2.2.2.2.2.2.2.2.2.2.2.2.2.2.2.2.2.2.2.2.2.2.2.2.2.2.2.2.2.2.2.2.2.2.2.2.2.2.2.2.2.2.2.2.2.2.2.2.2.2.2.2.2.2.2.2.2.2.2.2.2.2.2.2.2.2.2.2.2.2.2.2.2.2.2.2.2.2.2.2.2.2.2.2.2.2.2.2.2.2.2.2.2.2.2.2.2.2.2.2.2.2.2.2.2.2.2.2.2.2.2.2.2.2.2.2.2.2.2.2.2.2.2.2.2.2.2.2.2.2.2.2.2.2.2.2.2.2.2.2.2.2.2.2.2.2.2.2.2.2.2.2.2.2.2.2.2.2.2.2.2.2.2.2.2.2.2.2.2.2.2.2.2.2.2.2.2.2.2.2.2.2.2.",
"} d d $.;.;.=.=.;.=.;.;.=.} =./ =.=.;.;.} ;.=.=.=.$.;.=.;.} =.=.;.;.;.;.;.;.$.;.=.=.=.=.d =.=./ =.;.=.=.=.=.=.=.} =.=.=.=.=.=./ / =.=.=.=./ =.=.=.=.=.=.;.=.$.=.=.=.=.=.;.=.;.;./ =.=.=./ =./ =.=.=.d =.=./ =./ =.;.;.=.=.=.=.=.=./ =.=.;.=.;.=.=.=.=./ =./ =.=.=.;.=.$.;.=./ =.=.=./ =.=.=.=.=.;.;.=.=.;.;.=.=.;.;.=.=.=.=.=.=./ =.=.=.=./ =.=.} =.=.;.;.;./ =.=.=.=.=.=./ E q u E u E V < =.2."
};
