/* XPM */
static char *_7654_8727f06bb9193351bf34ff6dba02f34d8140de7f45d823217aa960f991058773[] = {
/* columns rows colors chars-per-pixel */
"64 64 56 1 ",
"  c #23132E",
". c #251430",
"X c #271533",
"o c #291634",
"O c #2A1736",
"+ c #2B1837",
"@ c #2D1A38",
"# c #361D43",
"$ c #361E42",
"% c #3A2046",
"& c #3C2248",
"* c #3D2249",
"= c #3F234C",
"- c #42254F",
"; c #43294D",
": c #452553",
"> c #462753",
", c #4A2E55",
"< c #502C5F",
"1 c #4D3158",
"2 c #542D65",
"3 c #5C316F",
"4 c #653E70",
"5 c #653678",
"6 c #693C78",
"7 c #6A3A7D",
"8 c #6E407E",
"9 c #703C85",
"0 c #7C4490",
"q c #83568C",
"w c #804A91",
"e c #854D96",
"r c #874F99",
"t c #884F99",
"y c #895397",
"u c #915E9C",
"i c #9157A0",
"p c #9454A6",
"a c #945AA2",
"s c #9858A9",
"d c #9D5AAF",
"f c #A05DB2",
"g c #A36DAC",
"h c #AB68BB",
"j c #AB71B4",
"k c #AD74B6",
"l c #B272BE",
"z c #B471C1",
"x c #B677C1",
"c c #C27FCD",
"v c #ADACB8",
"b c #C582CF",
"n c #CB88D3",
"m c #CE8BD6",
"M c #D0D2DA",
"N c #DCDFE6",
/* pixels */
"NNNNNNNNNNNNNNNNNNNNNNNNNNNNNNNNNNNNNNNNNNNNNNNNNNNNNNNNNNNNNNNN",
"NNNNNNNNNNNNNNNNNNNNNNNNNNNNNNNNNNNNNNNNNNNNNNNNNNNNNNNNNNNNNNNN",
"NNMvvvvvvvvvvvvvvvvvvvvvvvvvvvvvvvvvvvvvvvvvvvvvvvvvvvvvvvvvvMNN",
"NNv                                                          vNN",
"NNv                                                          vNN",
"NNv                                                          vNN",
"NNv                                                          vNN",
"NNv                                                          vNN",
"NNv                                                          vNN",
"NNv                                                          vNN",
"NNv                             11111&##########+++++.  ++o  vNN",
"NNv                             mmmmmr9999999999>>>>>+  >>*  vNN",
"NNv                             mmmmmr9999999999>>>>>+  >>*  vNN",
"NNv             wwyggyww        11111&##########+++++.  ++o  vNN",
"NNv             ffhmmhff                                     vNN",
"NNv             ffhmmhff                                     vNN",
"NNv             mmmmmmmm                mmmmmr99995>>+       vNN",
"NNv             mmmmmmmm                mmmmmr99995>>+       vNN",
"NNv             mmmmmmmm--%  %-------O  ggggg833332**o       vNN",
"NNv             mmmmmmmmffw  wfffffff-                       vNN",
"NNv             mmmmmmmmffw  wfffffff-                       vNN",
"NNv             mmmmmzhhcclwwsffffffftwwww6     ggu33:****$  vNN",
"NNv             mmmmmhffmmcfffffffffffffffw     mmx99<>>>>*  vNN",
"NNv             mmmmmhffmmcfffffffffffffffw     mmx99<>>>>*  vNN",
"NNv  gmmffw       -ffcmmmmmmmhff     wfffffff-               vNN",
"NNv  gmmffw       -ffcmmmmmmmhff     wfffffff-               vNN",
"NNv  gmmhha11111114hhbmmmmmmmzhh     6wwfffff-               vNN",
"NNv  gmmmmmmmmmmmmmmmmmmmmmmmmmm        fffff-               vNN",
"NNv  gmmmmmmmmmmmmmmmmmmmmmmmmmm        fffff-               vNN",
"NNv  gmmmmmmmmmmmmbhh411mmmmmmmmww6     -----O  ggu33:****$  vNN",
"NNv  gmmmmmmmmmmmmcff-  mmmmmmmmffw             mmx99<>>>>*  vNN",
"NNv  gmmmmmmmmmmmmcff-  mmmmmmmmffw             mmx99<>>>>*  vNN",
"NNv     ffhmmmmm          1mmmmmmmg                          vNN",
"NNv     ffhmmmmm          1mmmmmmmg                          vNN",
"NNv     wwyggggg          ,ccnmmmmk11@    O--,1111,--O       vNN",
"NNv                       -ffcmmmmmmm1    -ffcmmmmcff-       vNN",
"NNv                       -ffcmmmmmmm1    -ffcmmmmcff-       vNN",
"NNv                     wwtffcmmmmmmmkggggjccnmmhhi--O       vNN",
"NNv                     fffffcmmmmmmmmmmmmmmmmmmffw          vNN",
"NNv                     fffffcmmmmmmmmmmmmmmmmmmffw          vNN",
"NNv                  wffffffffffmmmmmmmmmmmmm1    1mmr99>>*  vNN",
"NNv                  wffffffffffmmmmmmmmmmmmm1    1mmr99>>*  vNN",
"NNv       X##X    O--tffffdppewwggggggggggggg;    ;gg833**$  vNN",
"NNv       #99#    -fffffffp99#                               vNN",
"NNv       #99#    -fffffffp99#                               vNN",
"NNv       =pp733wwtfffff--=##X               qgg332*****     vNN",
"NNv       -ff099ffffffff                     gmm995>>>>>     vNN",
"NNv       -ff099ffffffff                     gmm995>>>>>     vNN",
"NNv          wfffffff-                                       vNN",
"NNv          wfffffff-                                       vNN",
"NNv          6wwffsww%          11111&##+++++.    .++.       vNN",
"NNv             ffw             mmmmmr99>>>>>+    +>>+       vNN",
"NNv             ffw             mmmmmr99>>>>>+    +>>+       vNN",
"NNv             --%             11111&##+++++.    .++.       vNN",
"NNv                                                          vNN",
"NNv                                                          vNN",
"NNv                                                          vNN",
"NNv                                                          vNN",
"NNv                                                          vNN",
"NNv                                                          vNN",
"NNv                                                          vNN",
"NNMvvvvvvvvvvvvvvvvvvvvvvvvvvvvvvvvvvvvvvvvvvvvvvvvvvvvvvvvvvMNN",
"NNNNNNNNNNNNNNNNNNNNNNNNNNNNNNNNNNNNNNNNNNNNNNNNNNNNNNNNNNNNNNNN",
"NNNNNNNNNNNNNNNNNNNNNNNNNNNNNNNNNNNNNNNNNNNNNNNNNNNNNNNNNNNNNNNN"
};
