/* XPM */
static char *_8347_6cac0df23b5f1fa56e0de942a3922f1639f677f3eed7dedec42257fb01017454[] = {
/* columns rows colors chars-per-pixel */
"64 64 234 2 ",
"   c #18082B",
".  c #19092D",
"X  c #1A092E",
"o  c #1C0B30",
"O  c #1C0B31",
"+  c #1D0D33",
"@  c #1E0D34",
"#  c #1F0F36",
"$  c #200E36",
"%  c #200F37",
"&  c #211039",
"*  c #221039",
"=  c #22113A",
"-  c #24113B",
";  c #24123C",
":  c #25123D",
">  c #24133D",
",  c #26133E",
"<  c #25143F",
"1  c #2B183E",
"2  c #261540",
"3  c #271540",
"4  c #281441",
"5  c #281643",
"6  c #291643",
"7  c #281743",
"8  c #2A1644",
"9  c #2F1C42",
"0  c #291845",
"q  c #2A1846",
"w  c #2A1946",
"e  c #2B1947",
"r  c #2C1944",
"t  c #2C1847",
"y  c #2C1848",
"u  c #2C1A49",
"i  c #2D1A49",
"p  c #2D1B4A",
"a  c #2E1A4A",
"s  c #2E1C4C",
"d  c #2E1C4D",
"f  c #2F1C4D",
"g  c #2F1D4D",
"h  c #301C4E",
"j  c #321C4F",
"k  c #301E4F",
"l  c #311E4F",
"z  c #311D50",
"x  c #311E50",
"c  c #321F50",
"v  c #331F52",
"b  c #341F53",
"n  c #37234B",
"m  c #36224C",
"M  c #322052",
"N  c #332052",
"B  c #332053",
"V  c #342153",
"C  c #342054",
"Z  c #352255",
"A  c #362256",
"S  c #362356",
"D  c #362257",
"F  c #372257",
"G  c #3B2750",
"H  c #3C2850",
"J  c #3F2B52",
"K  c #372458",
"L  c #382359",
"P  c #382459",
"I  c #382559",
"U  c #39245A",
"Y  c #3A265B",
"T  c #3C235C",
"R  c #3A255C",
"E  c #3B255D",
"W  c #3B265D",
"Q  c #3B275D",
"!  c #3D245E",
"~  c #3D275F",
"^  c #3D295E",
"/  c #3C285F",
"(  c #3E2861",
")  c #3F2B60",
"_  c #3F2963",
"`  c #422D59",
"'  c #443158",
"]  c #402762",
"[  c #422D61",
"{  c #402864",
"}  c #412864",
"|  c #422965",
" . c #402A64",
".. c #422B66",
"X. c #432A67",
"o. c #432B68",
"O. c #442B68",
"+. c #442B69",
"@. c #452D6B",
"#. c #462C6B",
"$. c #472E6D",
"%. c #482C6D",
"&. c #482E6E",
"*. c #492E6F",
"=. c #492F6F",
"-. c #4C3865",
";. c #493368",
":. c #4D3769",
">. c #4F3A6A",
",. c #4E386C",
"<. c #4F386C",
"1. c #513864",
"2. c #523A6B",
"3. c #4A2E70",
"4. c #4B3172",
"5. c #4C3073",
"6. c #4D3175",
"7. c #4D3274",
"8. c #4E3276",
"9. c #4F3378",
"0. c #533C72",
"q. c #553D71",
"w. c #563E75",
"e. c #503378",
"r. c #503479",
"t. c #52357B",
"y. c #55377F",
"u. c #563B78",
"i. c #574076",
"p. c #5D4471",
"a. c #594377",
"s. c #5B4378",
"d. c #5D457A",
"f. c #5B427C",
"g. c #644977",
"h. c #644A7B",
"j. c #654C7F",
"k. c #563780",
"l. c #583983",
"z. c #66488B",
"x. c #685083",
"c. c #6C5180",
"v. c #6D5184",
"b. c #745889",
"n. c #755A8D",
"m. c #765B8D",
"M. c #74588F",
"N. c #775C8F",
"B. c #795E8B",
"V. c #795C8D",
"C. c #6B4C92",
"Z. c #6C4D92",
"A. c #6F5094",
"S. c #705294",
"D. c #7A5E90",
"F. c #7B5E90",
"G. c #7C5F90",
"H. c #7D6192",
"J. c #7F6492",
"K. c #816496",
"L. c #816497",
"P. c #83669A",
"I. c #866999",
"U. c #84699B",
"Y. c #86699B",
"T. c #85689D",
"R. c #866A9C",
"E. c #876A9D",
"W. c #896C9D",
"Q. c #8A6C9F",
"!. c #8B6E9F",
"~. c #896CA4",
"^. c #8B6DA6",
"/. c #8C6FA4",
"(. c #8C6EA7",
"). c #8D6FA9",
"_. c #8C70A0",
"`. c #8D73A0",
"'. c #8F72A3",
"]. c #8E70A4",
"[. c #8F71A4",
"{. c #8E70A8",
"}. c #8F72A9",
"|. c #9174A6",
" X c #9376A6",
".X c #9279A4",
"XX c #9273A9",
"oX c #9171AE",
"OX c #9374AC",
"+X c #9676AD",
"@X c #9378A8",
"#X c #957BA8",
"$X c #967BAC",
"%X c #987AAD",
"&X c #997BAD",
"*X c #9B7EAE",
"=X c #9372B0",
"-X c #9677B2",
";X c #9878B0",
":X c #9B7DB1",
">X c #9C7CB4",
",X c #9D7FB6",
"<X c #9E7EB6",
"1X c #9E83B2",
"2X c #9F80B4",
"3X c #A386B5",
"4X c #A488B5",
"5X c #A68AB7",
"6X c #A283B8",
"7X c #A282B9",
"8X c #A184B8",
"9X c #A586BB",
"0X c #A789BA",
"qX c #A88BB9",
"wX c #A88BBA",
"eX c #A98BBC",
"rX c #A888BF",
"tX c #AA8EBC",
"yX c #AB8DBE",
"uX c #AC8EBF",
"iX c #AD90BE",
"pX c #A786C0",
"aX c #AB8BC2",
"sX c #AC8CC1",
"dX c #AE8EC3",
"fX c #AF91C0",
"gX c #AF90C4",
"hX c #B193C2",
"jX c #B395C5",
"kX c #B294C6",
"lX c #B597C7",
"zX c #B698C8",
"xX c #B89BC9",
"cX c #BA9DCA",
/* pixels */
"g.g.g.c.H.Y.Y.Y.Y.].<XpXpXpXpX+Xb.g.g.g.g.g.g.c.H.Y.Y.Y.Y.Y.Y.Y.Y.].<XpXpXpXpXpXpX+Xb.g.g.g.g.c.H.Y.Y.Y.Y.Y.Y.Y.Y.H.c.g.g.1.1   ",
"b.b.b.F.E.[.|. X X&X9XaXaXaXaX2XI.B.B.B.B.B.B.J._. X X X X X X X X&X9XaXaXaXaXaXaX2XI.B.B.B.B.J._. X X X X X X'.W.K.V.b.b.p.9   ",
"+X+X+X;X>X6XeXiXiXfXjXlXlXlXlXhXqX4X4X4X4X4X4X5XtXiXiXiXiXiXiXiXiXfXjXlXlXlXlXlXlXhXqX4X4X4X4X5XtXiXiXiXiXiXiX3X'.Q.XX+X+Xm.n   ",
"aXaXaXaXaXdXkXzXxXcXcXxXzXlXlXzXxXcXcXcXcXxXzXlXlXlXlXlXlXlXlXlXlXlXlXzXxXcXcXxXzXlXlXzXxXcXcXcXcXxXzXlXlXlXlXuX*X%X7XpXpXP.G   ",
"lXlXlXlXlXkXdXgXzXcXcXzXgXaXaXgXzXcXcXcXcXzXgXaXaXaXaXaXaXaXaXaXaXaXaXgXzXcXcXzXgXaXaXgXzXcXcXcXcXzXgXaXaXaXaXsXuXyXrXpXpXP.G   ",
"8X8X8X8X8X,X-X-X,X8X8X,X-X=X=X-X,X8X8X8X8X,X-XoX).(.(.(.(.(.(.(.(.~.T.R.`..X#X@X/.~.^.}.$X1XwXiXiX0X:XOX{.(.(.}.$X$X}.).oXM.m   ",
"S.S.S.S.S.A.Z.Z.A.S.S.A.Z.C.C.Z.A.S.S.S.S.A.Z.z.f.w.w.w.w.w.w.w.w.<.` H J ' -.>.:.,.0.i.a.x.U. X X!.G.v.d.w.w.i.a.a.i.f.z.u.r   ",
"l.l.l.l.l.l.l.l.l.l.l.l.l.l.l.l.l.l.l.l.l.l.l.t.$..... ./ Q Q Q Q c %     + 7 s s x K Q Q ;.j.N.L.D.h.2.[ Q Q Q Q Q Q ..r.%.4   ",
"l.l.l.l.l.l.l.l.l.l.l.l.l.l.l.l.l.l.l.l.l.l.l.k.t.r.r.4. .Q Q Q Q c %     + 7 s s x K Q Q ) ;.s.N.n.q.[ ^ Q Q Q Q Q Q ..r.%.4   ",
"l.l.l.l.l.l.l.l.l.l.l.l.l.l.l.l.l.l.l.l.l.l.l.l.l.k.t.4. .Q Q Q Q N > + + = u x x B P Q Q Q Q ;.j.j.;.Q Q Q Q Q Q Q Q ..r.%.4   ",
"l.l.l.l.l.l.l.l.l.l.l.l.l.l.l.l.l.l.l.l.l.l.l.l.l.t.$. ./ Q Q Q Q S p 7 7 u B K K P Y Q Q Q Q ) ;.;.) Q Q Q Q Q Q Q Q ..r.%.4   ",
"l.l.l.l.l.l.l.l.l.l.l.l.l.l.l.l.l.l.l.l.l.l.l.l.l.r...Q Q Q Q Q Q K x d k B P Q Q Q Q Q Q Q Q Q Q Q Q Q Q Q Q Q Q Q Q ..r.%.4   ",
"l.l.l.l.l.l.l.l.l.l.l.l.l.l.l.l.l.l.l.l.l.l.l.l.l.r...Q Q Q Q Q Q K x k Z P Y Q Q Q Q Q Q Q Q Q Q Q Q Q Q Q Q Q Q Q Q ..r.%.4   ",
"l.l.l.l.l.l.l.l.l.l.l.l.l.l.l.l.l.l.l.l.l.k.t.r.r.4. .Q Q Q Q Y P A M B P Q Q Q Q Q Q Q Q Q Q Q Q Q Q Q Q Q Q Q Q Q Q ..r.%.4   ",
"l.l.l.l.l.l.l.l.l.l.l.l.l.l.l.l.l.l.l.l.l.t.$..... ./ Q Q Q Q P B M A P Y Q Q Q Q Q Q Q Q Q Q Q Q Q Q Q Q Q Q Q Q Q Q ..r.%.4   ",
"l.l.l.l.l.l.l.l.l.l.l.l.l.l.l.l.l.k.t.r.r.4. .Q Q Q Q Q Q Q Q P B B P Q Q Q Q Q Q Q Q Q Q Q Q Q Q Q Q Q Q Q Q Q Q Q Q ..r.%.4   ",
"l.l.l.l.l.l.l.l.l.l.l.l.l.l.l.l.l.t.$..... ./ Q Q Q Q Q Q Q Q Y P P Y Q Q Q Q Q Q Q Q Q Q Q Q Q Q Q Q Q Q Q Q Q Q Q Q ..r.%.4   ",
"l.l.l.l.l.l.l.l.l.l.l.l.l.l.l.k.t.7.@. ./ Q Q Q Q Q Q Q Q Q Q Q Q Q Q Q Q Q Q Q Q Q Q Q Q Q Q Q Q Q Q Q Q Y P S N c c F | T -   ",
"l.l.l.l.l.l.l.l.l.l.l.l.l.l.l.t.$.@.7.4. .Q Q Q Q Q Q Q Q Q Q Q Q Q Q Q Q Q Q Q Q Q Q Q Q Q Q Q Q Q Q Q Q P B p > % % * , - o   ",
"l.l.l.l.l.l.l.l.l.l.l.l.l.l.l.r... .4.4. .Q Q Q Q Q Q Q Q Q Q Q Q Q Q Q Q Q Q Q Q Q Q Q Q Q Q Q Q Q Q Y P B u > O               ",
"l.l.l.l.l.l.l.l.l.l.l.l.l.l.l.r.../  . ./ Q Q Q Q Q Q Q Q Q Q Q Q Q Q Q Q Q Q Q Q Q Q Q Q Q Q Q Q Q Q P B u = O .               ",
"l.l.l.l.l.l.l.l.l.l.l.l.l.l.l.r...Q Q Q Q Q Q Q Q Q Q Q Q Q Q Q Q Q Q Q Q Q Q Q Q Q Q Q Q Q Q Q Q Y P Z k 7 +         . O O .   ",
"l.l.l.l.l.l.l.l.l.l.l.l.l.l.l.r...Q Q Q Q Q Q Q Q Q Q Q Q Q Q Q Q Q Q Q Q Q Q Q Q Q Q Q Q Q Q Q Q P B k d 7 +         O > > O   ",
"l.l.l.l.l.l.l.l.l.l.l.l.l.l.l.r...Q Q Q Q Q Q Q Q Q Q Q Q Q Q Q Q Q Q Q Q Q Q Q Q Q Q Q Q Q Q Y P Z k s s 7 + . O + + ; z h $   ",
"l.l.l.l.l.l.l.l.l.l.l.l.l.l.l.r...Q Q Q Q Q Q Q Q Q Q Q Q Q Q Q Q Q Q Q Q Q Q Q Q Q Q Q Q Q Q P B k d s s 7 + O > 7 7 z O.] :   ",
"l.l.l.l.l.l.l.l.l.l.l.l.l.k.t.4. .Q Q Q Q Q Q Q Q Q Q Q Q Q Q Q Q Q Q Q Q Q Q Q Q Y P K K K K Z k u 0 0 u u 6 t b L L { e.%.4   ",
"l.l.l.l.l.l.l.l.l.l.l.l.l.t.$. ./ Q Q Q Q Q Q Q Q Q Q Q Q Q Q Q Q Q Q Q Q Q Q Q Q P B x x x x k d 0 & & 0 C } *.5.6.6.e.y.%.4   ",
"l.l.l.l.l.l.l.l.l.l.l.l.l.r...Q Q Q Q Q Q Q Q Q Q Q Q Q Q Q Q Q Q Q Q I V c c c c l f s s s s u 0 2 = > p R 8.l.l.l.l.l.l.%.4   ",
"l.l.l.l.l.l.l.l.l.l.l.l.l.r...Q Q Q Q Q Q Q Q Q Q Q Q Q Q Q Q Q Q Q Q V 3 % % % % ; q s s s s 0 & = i N S _ 9.l.l.l.l.l.l.%.4   ",
"l.l.l.l.l.l.l.l.l.l.l.k.t.4. .Q Q Q Q Q Q Y P K K S N c c N S K K K K g # X @ % % = 2 7 7 7 7 2 = 3 V Q Q  .4.t.k.l.l.l.l.%.4   ",
"l.l.l.l.l.l.l.l.l.l.l.t.$. ./ Q Q Q Q Q Q P B x x p > % % > p x x x x w @ @ e c c i = + + + + = i V I Q Q /  .$.t.l.l.l.l.%.4   ",
"l.l.l.l.l.k.t.t.k.k.t.7.@. ./ Q Q Q Q I V g w q f p > % % > p x x x x p > 3 V Q Q V 3 % % % % 3 V Q Q Q Q Q Q ..r.l.l.l.l.%.4   ",
"l.l.l.l.l.t.$.$.t.t.$.@.7.4. .Q Q Q Q V 3 # @ ; l S N c c N S K K K K S N V I Q Q I V c c c c V I Q Q Q Q Q Q ..r.l.l.l.l.%.4   ",
"l.k.t.t.k.t.$.@.7.7.@.@.7.7.@.( A N S g # X @ 3 V Q Q Q Q Q Q Q Q Q Q Q Q Q Q Q Q Q Q Q Q Q Q /  .............$.t.l.l.l.l.%.4   ",
"l.t.$.$.t.k.t.7.@.@.7.7.@.@.7.+.y > p w @ @ e V I Q Q Q Q Q Q Q Q Q Q Q Q Q Q Q Q Q Q Q Q Q Q  .4.r.r.r.r.r.r.t.k.l.l.l.l.%.4   ",
"r.4. . .4.t.k.r... .4.7.@.o.#.T - + 7 q ; 3 V Q Q Q Q Q Q Q Q Q Q Q Q Q Q Q Q Q Q Q Q Q Q /  .$.t.l.l.l.l.l.l.l.l.k.t.r.r.| ,   ",
".. ./ /  .$.t.r.../  .@.7.#.j - o + 7 f l V I Q Q Q Q Q Q Q Q Q Q Q Q Q Q Q Q Q Q Q Q Q Q  .4.t.k.l.l.l.l.l.l.l.l.t.$.....F *   ",
".. ./ Q Q  .4.4. .Q Q  .4.X.8 + + % < w g V I Q Q Q Q Q Q Q Q Q Q Q Q Q Q Q Q Q Q Q Q /  .$.t.l.l.l.l.l.l.l.l.k.t.4. ./  .F *   ",
"r.4. .Q Q /  . ./ Q Q /  .W s 7 7 < % @ # 3 V Q Q Q Q Q Q Q Q Q Q Q Q Q Q Q Q Q Q Q Q  .4.t.k.l.l.l.l.l.l.l.l.t.$. ./  .4.| ,   ",
"r.4. .Q Q Q Q Q Q Q Q Y P Z k u 0 > O     % c Q Q Q Q Q Q Q Q Q Q Q Q Q Q Q Q /  .....$.t.l.l.l.l.l.l.l.l.l.l.r.../  .$.t.%.4   ",
".. ./ Q Q Q Q Q Q Q Q P B k d 0 & O .     % c Q Q Q Q Q Q Q Q Q Q Q Q Q Q Q Q  .4.r.r.t.k.l.l.l.l.l.l.l.l.l.l.r... .4.t.k.%.4   ",
"Q Q Q Q Q Q Q Q Q Q Q K x u 0 > O         % c Q Q Q Q Q Q Q Q Q Q Q Q Q Q Q Q ..r.l.l.l.l.l.l.l.l.l.l.k.t.r.r.4. ...r.l.l.%.4   ",
"Q Q Q Q Q Q Q Q Q Q Q K x 0 & O .         % c Q Q Q Q Q Q Q Q Q Q Q Q Q Q Q Q ..r.l.l.l.l.l.l.l.l.l.l.t.$..... ./ ..r.l.l.%.4   ",
".. ./ Q Q Q Q Q Q I V g w > O         . O ; l P Y Q Q Q Q Q Q Q Q Q Q Q Q Q Q ..r.l.l.l.l.l.l.l.l.k.t.7.@..... ./  .4.t.k.%.4   ",
"r.4. .Q Q Q Q Q Q V 3 # @ O .         O > q f B P Q Q Q Q Q Q Q Q Q Q Q Q Q Q ..r.l.l.l.l.l.l.l.l.t.$.@.7.r.r.4. ./  .$.t.%.4   ",
"l.r...Y P K K S N e @ X @ @ X     o - 8 s k d f l V I Q Q Q Q Q Q Q Q Q Q Q Q ..r.l.l.l.l.k.t.r.r.7.@.@.7.t.k.r...Q Q  .4.| ,   ",
"l.r...P B x x p > @ X @ e e @     - T X.W Z k q ; 3 V Q Q Q Q Q Q Q Q Q Q Q Q ..r.l.l.l.l.t.$.....@.7.7.@.$.t.r...Q Q /  .F *   ",
"r.4. .K x u 0 5 4 4 4 a E U 6 % % y +.4. .P B u = = i V I Q Q Q Q Q Q Q Q Q Q  .4.r.r.r.r.4. .Q Q  .4.4. . .4.4. .Q Q /  .F *   ",
".. ./ K x 0 & 4 ! %.%.3.8.=.U c c A (  ./ Y P B u 2 = 3 V Q Q Q Q Q Q Q Q Q Q /  ......... ./ Q Q /  . ./ /  . ./ Q Q  .4.| ,   ",
"K K K B u > O , | r.r.r.r.4. .Q Q Q Q Q Q Q Q P B u = = i V I Q Q Q Q Q Q Q Q Q Q Q Q Q Q Y P K K P Y Q Q Q Q Q Q Q Q ..r.%.4   ",
"x x x u = O . * F ........ ./ Q Q Q Q Q Q Q Q Y P B u 2 = 3 V Q Q Q Q Q Q Q Q Q Q Q Q Q Q P B x x B P Q Q Q Q Q Q Q Q ..r.%.4   ",
"s u 0 > O X @ 3 V Q Q Q Q Q Q Q Q Q Q Q Q Q Q Q Q P B u = > N Q Q Y P S N N S P Y Q Q Q Q P B x x M A S N c c V I Q Q ..r.%.4   ",
"s 0 & O . @ e V I Q Q Q Q Q Q Q Q Q Q Q Q Q Q Q Q Y P B u p S Q Q P B p > > p B P Q Q Q Q Y P K K A M p > % % 3 V Q Q ..r.%.4   ",
"7 > O . O > N Q Q Q Q Q Q Q Q Q Q Q Q Q Q Q Q Q Q Q Q P B M A K K A M p > > p M A K K P Y Q Q Q Q P B p > @ X # g S N E 8.%.4   ",
"+ O . O > p S Q Q Q Q Q Q Q Q Q Q Q Q Q Q Q Q Q Q Q Q Y P A M x x M A S N N S A M x x B P Q Q Q Q Y P S N e @ @ w p > a 3.%.4   ",
"      + 7 x K Q Q Q Q /  ................. ./ Q Q Q Q Q Q P B k d x K Q Q Q Q P B k d k Z P Y Q Q Q Q Q Q c % + 7 7 + 4 %.%.4   ",
"      + 7 x K Q Q Q Q  .4.r.r.r.r.r.r.r.r.4. .Q Q Q Q Q Q Y P Z k x K Q Q Q Q Y P Z k d k B P Q Q Q Q Q Q c % + 7 7 + 4 %.%.4   ",
"      + 7 x K Q Q /  .$.t.l.l.l.l.l.l.l.l.t.$. ./ Q Q Q Q Q Q P B B P Q Q Q Q Q Q P B k d x K Q Q Q Q Q Q c % + 7 7 + 4 %.%.4   ",
"      + 7 x K Q Q  .4.t.k.l.l.l.l.l.l.l.l.k.t.4. .Q Q Q Q Q Q Y P P Y Q Q Q Q Q Q Y P Z k x K Q Q Q Q Q Q c % + 7 7 + 4 %.%.4   ",
"      + 7 x K /  .$.t.l.l.l.l.l.l.l.l.l.l.l.l.r...Q Q Q Q Q Q Q Q Q Q Q Q Q Q Q Q Q Q K x x K Q Q Q Q Q Q c % + 7 7 + 4 %.%.4   ",
"      + 7 x K  .4.t.k.l.l.l.l.l.l.l.l.l.l.l.l.r...Q Q Q Q Q Q Q Q Q Q Q Q Q Q Q Q Q Q K x x K Q Q Q Q Q Q c % + 7 7 + 4 %.%.4   ",
"      + 7 v ~ $.t.l.l.l.l.l.l.l.l.l.l.l.l.l.l.r...Q Q Q Q Q Q Q Q Q Q Q Q Q Q Q Q Q Q P B B P Q Q Q Q Q Q V 3 = 2 > O 4 %.%.4   ",
"      + 7 D &.t.k.l.l.l.l.l.l.l.l.l.l.l.l.l.l.r...Q Q Q Q Q Q Q Q Q Q Q Q Q Q Q Q Q Q Y P P Y Q Q Q Q Q Q I V i = O . 4 %.%.4   ",
"      + 7 L 6.l.l.l.l.l.l.l.l.l.l.l.l.l.l.l.l.r...Q Q Q Q Q Q Q Q Q Q Q Q Q Q Q Q Q Q Q Q Q Q Q Q Q Q Q Q Q Q c %     4 %.%.4   "
};
