/* XPM */
static char *_8f80c7662af408cd3b37fc17c0822d0PA1IqB3C7m29N7YG[] = {
/* columns rows colors chars-per-pixel */
"192 18 161 2 ",
"   c None",
".  c #324430",
"X  c #314831",
"o  c #334831",
"O  c #364E38",
"+  c #395237",
"@  c #39523B",
"#  c #3B563B",
"$  c #3D583D",
"%  c #3F593F",
"&  c #41583D",
"*  c #3C5940",
"=  c #3F5B41",
"-  c #425E43",
";  c #456145",
":  c #456245",
">  c #456444",
",  c #456645",
"<  c #466447",
"1  c #476746",
"2  c #476449",
"3  c #486548",
"4  c #49644B",
"5  c #49684B",
"6  c #4A694A",
"7  c #4A684B",
"8  c #4B6B4B",
"9  c #4C6A4A",
"0  c #4B6D4B",
"q  c #4B694C",
"w  c #4B6C4C",
"e  c #4B6C4D",
"r  c #4C6C4C",
"t  c #4D6D4D",
"y  c #4C6F4C",
"u  c #4D6E4D",
"i  c #4D6C4E",
"p  c #4C6D4E",
"a  c #4D6D4E",
"s  c #4C6C4F",
"d  c #4D6E4F",
"f  c #4E6F4E",
"g  c #4D704D",
"h  c #4E704E",
"j  c #53714F",
"k  c #50724F",
"l  c #52744F",
"z  c #53744F",
"x  c #4E6D50",
"c  c #4F6F51",
"v  c #4E7050",
"b  c #4F7050",
"n  c #4F7250",
"m  c #4F7251",
"M  c #507150",
"N  c #517151",
"B  c #507250",
"V  c #507251",
"C  c #507252",
"Z  c #507352",
"A  c #517352",
"S  c #527352",
"D  c #517451",
"F  c #527452",
"G  c #527553",
"H  c #537553",
"J  c #527752",
"K  c #537653",
"L  c #537753",
"P  c #557652",
"I  c #537454",
"U  c #527554",
"Y  c #527455",
"T  c #537455",
"R  c #537754",
"E  c #537755",
"W  c #547755",
"Q  c #557755",
"!  c #547556",
"~  c #537853",
"^  c #567952",
"/  c #537855",
"(  c #547854",
")  c #547954",
"_  c #557954",
"`  c #547855",
"'  c #547955",
"]  c #577955",
"[  c #557A55",
"{  c #557B55",
"}  c #567B55",
"|  c #547856",
" . c #557856",
".. c #547956",
"X. c #557956",
"o. c #557857",
"O. c #567957",
"+. c #557A56",
"@. c #567A56",
"#. c #577A56",
"$. c #567B56",
"%. c #567A57",
"&. c #567B57",
"*. c #577B57",
"=. c #567C56",
"-. c #567D56",
";. c #577C57",
":. c #577D57",
">. c #587D57",
",. c #597D57",
"<. c #5A7D57",
"1. c #587E56",
"2. c #567A58",
"3. c #577A58",
"4. c #567B58",
"5. c #577B58",
"6. c #577B59",
"7. c #577C58",
"8. c #567D58",
"9. c #577D58",
"0. c #577C59",
"q. c #577D59",
"w. c #577E59",
"e. c #587B58",
"r. c #587C58",
"t. c #597C58",
"y. c #587D58",
"u. c #597D58",
"i. c #587C59",
"p. c #587D59",
"a. c #597D59",
"s. c #5A7D58",
"d. c #5A7D59",
"f. c #587E58",
"g. c #597E58",
"h. c #587E59",
"j. c #597E59",
"k. c #597F59",
"l. c #5A7F58",
"z. c #5B7F58",
"x. c #5A7E59",
"c. c #5B7E59",
"v. c #5A7F59",
"b. c #587D5A",
"n. c #597D5A",
"m. c #597D5B",
"M. c #587E5A",
"N. c #597E5A",
"B. c #597F5B",
"V. c #5A7E5A",
"C. c #5B7F5A",
"Z. c #597D5C",
"A. c #588058",
"S. c #598158",
"D. c #598059",
"F. c #598159",
"G. c #5A8059",
"H. c #5A8159",
"J. c #59815A",
"K. c #5A825A",
"L. c #5F8560",
/* pixels */
"  z.z.0.0.z.0.0.z.0.0.z.0.0.z.b.0.z.6.b.z.0.0.z.b.z.z.0.0.z.0.0.0.0.  z.0.0.z.b.0.z.b.b.z.0.0.z.0.0.z.0.0.z.0.0.z.0.0.z.0.0.z.0.0.z.0.0.z.0.0.z.0.0.z.b.0.z.b.0.z.0.0.z.0.0.z.0.0.z.0.0.z.0.0.z.0.0.z.0.0.z.b.0.z.0.0.z.  Z.z.0.0.z.0.0.z.b.0.z.b.0.Z.0.z.0.0.z.z.b.0.z.b.0.Z.0.z.z.0.0.z.0.0.0.z.0.0.0.z.z.0.0.z.0.0.z.0.0.z.0.0.z.0.0.z.b.0.z.b.0.z.b.0.z.b.0.z.b.0.z.b.  z.b.0.z.b.0.z.b.0.z.",
"                                                                                                                      /                                                                                                                                   G.                                                                                                                                    ",
"                                        6.0.z.        0.G.0.    0.z.        z.0.6.  6.z.                z.0.        E z.        0.0.          z.z.z.    z.6.=   Z.6.z.E Z.z.6.z.  z.z.6.      6.z.        0.Z.z.  6.0.      $ 6.0.z.z.6.z.      z.    z.  0.Z.0.0.z.6.z.Z.z.      p m     0.E       ;.z.z.  z.6.      2 z.0.0.Z.0.0.  h b.0.-   4 z.:                                           ",
"                                          z.            G.      z.W           b.      Z.              6.0.          p z.          b.z.          Z       - z.  E       Z.            0.                      z.6.    F E       w z.      z.      !         z.      z.      C     F m         z.@       z.      ! /       0.z.      z.      z.        z.b.                                        ",
"                                          z.            z.      h C           0.      Z.z.            z.z.          z.z.          z.6.                  x 0.  z.      z.            z.E       z.            z.p       z.        0.            +.                  z.            z.            Z.      0.        z.      z.0.      p       z.          z.<                                       ",
"                                          Z.            z.      G.m           ;.      b.z.              0.            0.          0.6.b.                  +.          z.              z.                    6.0.      z.        z.            e.6.                Z.          z.z.            0.      0.        Z.      0.6.              0.          C 0.                                      ",
"                                          0.            z.      z.Z           0.      z.E ;.        6.  z.              6.        0.  z.E                 ;.          z.              +.2   E               z.0.      z.        z.            +.0.                z.          Z.              z.z.    z.        z.        0.              0.            G.                                      ",
"                                          z.            Z.      0.G.          0.      z.  0.        x   b.        G.    z.        z.    0.                0.          Z.                G.  F               z.0.    +.          b.    x         0.z.              z.          z.              . J.    z.      Z.        + z.    G.        z.            z.                                      ",
"                                          0.0.x z.0.z.0.z.      0.6.          0.      Z.  z.            0.        J.    G.        0.    6.z.              ;.          z.                z.0.                z.6.  0.            b.z.0.z.          z.z.            z.          z.                z.    z.    z.          X 0.z.Z.G.        0.            z.z.                                    ",
"                                          z.            b.      0.6.          0.      G.  Z.0.    m     z.        z.    z.        z.      Z.              ;.          z.                ! z.                0.0.  z.            z.    z.            6.z.          z.          z.                Z.    0.    b.          0.b.    G.        z.            = E                                     ",
"                                          z.            Z.      z.E           ;.      G.    G.    w     0.        C +.+.m L.      z.      a z.            ;.          z.                z.b.                z.0.  6.7           b.                  w 0.          Z.          Z.                G.    z.    z.          z.b.              z.            z.                                      ",
"                                          Z.            z.      a F           6.      Z.    z.          Z.                z.      6.        z.Z           ;.          E                 +.:                 z.0.    z.          z.                    z.          z.          z.              . z.    E     x 0.        0.G.              b.            z.                                      ",
"                                          z.            Z.      x z.          G.      z.    Z.6.6.      z.      G.        z.      6.          0.          +.          z.                z.0.                G.0.    0.          Z.                    z.          z.          z.G.            0.E     z.      z.        z.0.              z.            b.                                      ",
"                                          0.            G.        z.          G.      Z.      z.C       z.      G.        z.      z.          z.z.        +.          z.                6.z.                0.6.    x 0.        0.                    0.          6.            G.            z.      0.      Z.Z.      z.0.              0.          E x                                       ",
"                                          z.            z.        z.        O         z.      z.        0.      C         6.6.    0.            z.      w 0.          Z.3                 0.                z.m       z.        z.        G.          z.          z.            0.*           0.      0.        G.      0.0.        z.    G.          z.                                        ",
"                                          Z.z.          z.#         z.+.  6.z.      +.Z.      0.      z.z.    z.z.        z.z.    z.2           Z.      z.z.          z.z.              Z.z.                z.0.      9 z.    6.z.      / z.  G.    F 7         x z.+.            z.        z.        z.z.      Z.G.    0.z.      6.w   z.z.F     & Z.                                          ",
"                                                                      x /                                                     /                                                                                           a 6.          0.      a 0.                                m Z.z.                          x 0.          +.                                                            ",
"  0.z.b.z.0.z.z.Z.  z.b.z.b.z.0.z.    z.z.0.z.b.Z.z.z.0.z.0.b.z.0.b.0.z.z.0.0.0.z.0.b.z.0.0.z.b.z.b.z.b.z.b.z.0.z.0.z.0.Z.z.0.z.0.z.0.0.z.0.0.z.0.0.z.b.b.z.0.0.b.z.0.0.z.b.b.z.0.0.z.0.z.  0.b.z.b.z.b.z.b.z.0.z.0.z.0.z.  0.0.0.0.0.z.0.0.z.0.0.z.z.0.z.0.0.z.0.b.z.b.b.z.  0.z.b.0.z.0.0.Z.0.z.0.z.0.z.0.z.0.z.0.0.b.z.b.z.b.0.z.0.0.z.b.b.z.0.0.z.b.b.z.0.0.b.z.0.b.z.b.b.z.0.0.z.b.b.z.z.  "
};
